<?xml version="1.0" standalone="no"?>
<!DOCTYPE svg PUBLIC "-//W3C//DTD SVG 20010904//EN"
 "http://www.w3.org/TR/2001/REC-SVG-20010904/DTD/svg10.dtd">
<svg version="1.0" xmlns="http://www.w3.org/2000/svg"
 width="1280.000000pt" height="640.000000pt" viewBox="0 0 1280.000000 640.000000"
 preserveAspectRatio="xMidYMid meet">
<g transform="translate(0.000000,640.000000) scale(0.100000,-0.100000)"
fill="#000000" stroke="none">
<path d="M7454 5841 c-100 -26 -192 -100 -240 -193 -23 -43 -28 -70 -32 -143
-6 -126 18 -187 107 -276 72 -71 121 -95 221 -106 108 -11 250 48 313 130 61
80 72 115 72 227 0 93 -3 112 -27 162 -33 71 -106 143 -178 176 -59 27 -176
39 -236 23z m193 -133 c48 -22 99 -76 119 -124 18 -44 18 -153 -1 -197 -56
-135 -226 -188 -351 -111 -27 16 -62 49 -79 72 -25 37 -30 55 -33 117 -5 89 9
135 56 187 77 85 184 106 289 56z"/>
<path d="M3390 5780 l0 -60 60 0 60 0 2 -287 3 -288 54 -3 c37 -2 57 1 62 10
5 7 9 138 9 291 l0 277 59 0 c64 0 71 6 71 60 0 61 5 60 -196 60 l-184 0 0
-60z"/>
<path d="M3877 5833 c-4 -3 -7 -161 -7 -350 l0 -343 184 0 c200 0 196 -1 196
58 0 48 -8 51 -135 54 l-120 3 0 100 0 100 122 3 122 3 6 29 c4 17 4 43 0 60
l-6 29 -122 3 -122 3 0 65 0 65 122 3 122 3 6 29 c4 17 4 44 0 60 l-7 30 -177
0 c-98 0 -181 -3 -184 -7z"/>
<path d="M4601 5823 c-9 -19 -261 -673 -261 -680 0 -2 28 -3 62 -1 l62 3 24
60 c13 33 29 66 34 73 16 18 281 17 297 -2 7 -8 22 -40 35 -73 l22 -58 62 -3
c34 -2 62 -1 62 1 0 7 -251 660 -261 678 -14 27 -124 28 -138 2z m127 -293
c34 -89 40 -115 30 -121 -21 -14 -164 -11 -176 4 -7 8 1 41 29 112 21 55 41
106 44 113 11 30 32 0 73 -108z"/>
<path d="M5191 5788 c-11 -54 -111 -636 -111 -644 0 -3 26 -4 58 -2 l57 3 37
210 c20 116 37 212 37 213 1 2 6 2 13 0 6 -2 43 -98 82 -214 l71 -209 55 -3
55 -3 48 143 c83 245 100 289 111 285 6 -2 27 -98 46 -213 l36 -209 57 -3 c42
-2 57 0 56 10 0 7 -26 164 -58 348 l-57 335 -59 0 -60 0 -81 -240 c-45 -131
-86 -241 -92 -243 -5 -1 -45 101 -87 230 -43 128 -82 239 -88 246 -5 7 -32 12
-63 12 l-53 0 -10 -52z"/>
<path d="M6267 5833 c-3 -5 29 -161 71 -348 l77 -340 58 -3 c47 -2 58 0 64 15
4 9 32 107 63 218 38 137 60 200 70 200 9 0 33 -67 75 -215 l60 -215 63 -3
c34 -2 62 0 62 5 0 4 34 157 75 340 41 183 75 337 75 343 0 6 -23 10 -54 10
-43 0 -56 -4 -60 -17 -3 -10 -26 -108 -50 -217 -25 -109 -48 -201 -51 -204
-12 -12 -25 20 -65 158 -23 80 -50 175 -61 213 l-20 67 -43 0 c-24 0 -48 -6
-53 -12 -5 -7 -35 -105 -66 -217 -31 -112 -59 -206 -62 -209 -14 -14 -28 29
-72 223 l-48 210 -52 3 c-28 2 -53 -1 -56 -5z"/>
<path d="M8068 5835 c-5 -5 -8 -163 -8 -352 l0 -343 60 0 60 0 0 144 c0 80 4
147 9 151 13 7 38 -31 111 -172 l64 -123 63 0 c35 0 63 2 63 5 0 3 -34 69 -75
146 -41 78 -75 146 -75 152 0 7 21 24 46 39 122 74 106 280 -26 336 -38 16
-280 30 -292 17z m256 -136 c20 -16 26 -29 26 -59 0 -57 -35 -82 -109 -78
l-56 3 -3 64 c-2 35 -1 70 2 77 9 23 108 18 140 -7z"/>
<path d="M8637 5833 c-4 -3 -7 -161 -7 -350 l0 -343 60 0 59 0 3 147 c2 93 7
148 14 150 6 2 57 -64 114 -147 l104 -150 69 0 c52 0 66 3 61 13 -4 6 -61 89
-126 183 -65 94 -118 178 -118 186 0 9 50 79 110 158 61 79 110 147 110 151 0
5 -29 9 -64 9 l-64 0 -92 -117 c-50 -65 -97 -118 -103 -118 -8 0 -13 35 -15
118 l-3 117 -53 0 c-29 0 -56 -3 -59 -7z"/>
<path d="M6261 4895 c-80 -23 -147 -63 -210 -126 -96 -95 -141 -206 -141 -344
0 -137 46 -251 140 -345 98 -98 203 -140 351 -140 215 0 396 133 459 338 27
87 27 208 0 296 -42 133 -157 257 -287 306 -76 29 -233 37 -312 15z"/>
<path d="M4006 4625 c-131 -34 -253 -131 -311 -250 -37 -75 -52 -184 -38 -280
41 -284 339 -462 615 -366 190 66 308 235 308 441 0 164 -69 297 -203 389 -97
66 -256 95 -371 66z"/>
<path d="M8566 4624 c-288 -70 -439 -393 -309 -661 82 -168 274 -277 458 -260
176 17 315 117 393 283 25 55 27 69 27 184 0 115 -2 129 -27 184 -67 141 -171
230 -312 266 -91 23 -147 24 -230 4z"/>
<path d="M6145 3856 c-135 -49 -180 -71 -270 -131 -224 -149 -370 -406 -421
-740 -10 -70 -14 -167 -13 -325 l1 -225 -221 -3 -221 -2 0 -160 0 -160 68 0
c40 0 73 -5 80 -12 9 -9 12 -195 12 -775 l0 -763 145 0 145 0 2 772 3 773 155
0 c150 0 155 -1 151 -20 -8 -42 -4 -194 7 -270 7 -44 19 -138 27 -210 33 -274
78 -651 97 -800 12 -98 31 -146 75 -186 46 -43 87 -59 153 -59 90 0 160 42
201 122 21 42 25 131 10 232 -10 65 -19 130 -51 399 -11 92 -29 241 -41 332
-11 91 -19 174 -17 186 2 16 23 29 88 55 l85 35 82 -33 c46 -18 85 -39 88 -46
4 -11 -5 -101 -35 -332 -5 -41 -14 -114 -20 -162 -5 -49 -15 -127 -20 -175
-10 -84 -16 -135 -40 -323 -9 -69 -8 -94 4 -133 31 -104 104 -157 215 -157 73
0 123 22 169 74 40 46 48 78 73 288 11 95 24 209 30 253 5 44 14 118 19 165
15 131 45 374 62 510 11 86 13 160 6 230 l-3 25 144 3 c97 2 148 -1 157 -9 12
-10 14 -136 14 -775 l0 -764 145 0 145 0 2 773 3 772 78 3 77 3 0 159 0 160
-217 2 -218 3 3 190 c8 390 -59 658 -221 893 -107 156 -258 260 -491 338 -55
19 -107 34 -115 34 -8 0 -41 -25 -73 -56 l-60 -57 -57 57 c-39 38 -64 56 -81
56 -14 -1 -65 -16 -115 -34z m275 -216 c6 -41 15 -100 20 -130 5 -30 22 -147
39 -260 16 -113 33 -224 37 -247 6 -39 3 -45 -57 -124 l-63 -82 -28 34 c-16
19 -45 57 -64 85 -35 50 -35 51 -25 115 6 35 24 154 41 264 67 450 66 443 81
428 4 -4 13 -42 19 -83z m-522 -845 c2 -349 1 -365 -38 -365 -31 0 -38 22 -50
153 -14 146 -2 311 31 456 21 93 26 104 42 98 9 -3 13 -96 15 -342z m1033 318
c6 -16 20 -68 31 -118 18 -76 21 -122 21 -295 -1 -237 -6 -265 -49 -265 l-29
0 -3 353 c-2 348 2 395 29 325z"/>
<path d="M3925 3649 c-121 -25 -246 -112 -300 -211 l-30 -53 0 -625 0 -625 28
-57 c33 -67 80 -111 157 -147 53 -25 63 -26 300 -31 242 -5 246 -6 296 -32 62
-32 116 -93 132 -147 14 -46 16 -201 3 -303 -5 -40 -15 -129 -21 -198 -6 -69
-16 -157 -20 -195 -5 -39 -12 -124 -16 -190 -6 -119 -6 -121 23 -175 41 -78
103 -115 192 -115 54 0 74 5 114 28 91 53 107 100 127 357 6 80 15 199 20 265
34 440 37 806 9 904 -18 64 -97 142 -171 169 -59 22 -212 52 -265 52 -56 0
-63 17 -63 158 0 70 4 133 9 141 7 11 19 8 62 -17 135 -76 301 -106 564 -100
199 5 232 13 278 67 71 85 53 204 -42 268 -32 22 -44 23 -197 23 -268 0 -378
34 -489 151 -68 73 -118 165 -184 340 -41 107 -89 172 -166 224 -104 70 -234
97 -350 74z"/>
<path d="M8705 3653 c-109 -24 -224 -89 -277 -155 -17 -22 -61 -113 -97 -202
-96 -234 -154 -312 -279 -375 -88 -45 -187 -61 -368 -61 -176 0 -206 -8 -252
-68 -20 -27 -27 -49 -30 -98 -4 -57 -1 -69 22 -104 47 -71 85 -83 286 -88 265
-7 443 25 578 104 23 14 47 22 52 19 15 -9 13 -278 -2 -293 -7 -7 -31 -12 -55
-12 -64 0 -229 -38 -290 -67 -30 -14 -69 -44 -89 -67 -60 -70 -68 -116 -66
-406 1 -140 6 -316 11 -390 6 -74 16 -205 22 -290 24 -333 34 -407 66 -458 87
-141 308 -128 385 23 18 35 20 52 15 165 -3 69 -11 169 -16 223 -40 362 -54
535 -48 602 8 103 57 173 152 217 46 21 68 23 290 28 238 5 241 6 303 34 41
19 78 46 107 78 77 86 75 64 75 750 l0 609 -29 57 c-36 71 -96 131 -172 172
-86 46 -219 70 -294 53z"/>
<path d="M9415 3324 c-58 -14 -99 -55 -115 -113 -7 -26 -10 -218 -10 -553 1
-531 -2 -573 -41 -650 -25 -49 -90 -121 -133 -147 -79 -48 -119 -55 -381 -60
-237 -6 -252 -7 -286 -29 -66 -40 -94 -108 -77 -184 12 -57 37 -87 94 -118
l49 -25 3 -443 2 -442 95 0 95 0 0 438 c0 327 3 441 12 450 14 14 604 17 625
4 10 -6 13 -111 15 -448 l3 -439 98 -3 97 -3 0 456 0 456 33 41 32 40 3 830
c2 828 2 830 -19 867 -37 67 -112 96 -194 75z"/>
<path d="M3244 3311 c-17 -10 -42 -34 -55 -53 l-24 -33 -3 -805 c-2 -443 0
-819 3 -836 3 -18 19 -49 35 -69 l30 -38 0 -458 0 -459 100 0 100 0 0 438 c0
327 3 441 12 450 9 9 91 12 309 12 257 0 300 -2 313 -16 14 -14 16 -68 16
-450 l0 -435 98 3 97 3 5 442 5 443 44 22 c53 27 79 60 91 114 17 75 -15 150
-81 189 -31 18 -58 21 -284 26 -207 4 -259 8 -300 23 -116 42 -194 124 -238
251 -7 19 -13 231 -17 592 -5 550 -5 562 -26 590 -11 15 -36 38 -54 51 -43 29
-131 31 -176 3z"/>
</g>
</svg>
