<?xml version="1.0" standalone="no"?>
<!DOCTYPE svg PUBLIC "-//W3C//DTD SVG 20010904//EN"
 "http://www.w3.org/TR/2001/REC-SVG-20010904/DTD/svg10.dtd">
<svg version="1.0" xmlns="http://www.w3.org/2000/svg"
 width="626.000000pt" height="626.000000pt" viewBox="0 0 626.000000 626.000000"
 preserveAspectRatio="xMidYMid meet">

<g transform="translate(0.000000,626.000000) scale(0.100000,-0.100000)"
fill="#000000" stroke="none">
<path d="M3410 5571 c-20 -5 11 -6 75 -3 95 4 161 -2 285 -23 14 -3 5 2 -20
11 -51 17 -282 28 -340 15z"/>
<path d="M3315 5550 c-25 -11 1 -11 35 0 20 6 21 8 5 8 -11 0 -29 -3 -40 -8z"/>
<path d="M3844 5526 c11 -9 24 -16 30 -16 12 0 7 5 -24 19 -24 11 -24 11 -6
-3z"/>
<path d="M3175 5495 c-38 -19 -97 -56 -130 -82 l-59 -48 157 -5 157 -5 32 -33
33 -32 3 -369 3 -369 65 -7 c36 -4 68 -5 71 -1 4 3 -7 6 -23 6 -16 0 -46 3
-66 6 l-37 7 -3 364 -3 364 -42 40 -42 39 -138 0 c-122 1 -136 2 -119 15 13
10 24 11 37 5 10 -6 21 -10 26 -10 4 1 -3 7 -16 14 l-23 13 23 22 c17 16 25
18 31 9 5 -9 8 -8 8 5 0 10 4 16 9 13 5 -3 11 0 14 7 3 8 27 22 54 32 26 10
52 22 58 26 19 18 -11 8 -80 -26z"/>
<path d="M3910 5496 c0 -2 7 -7 16 -10 8 -3 12 -2 9 4 -6 10 -25 14 -25 6z"/>
<path d="M3950 5476 c0 -2 16 -13 36 -25 19 -12 32 -16 29 -11 -7 11 -65 43
-65 36z"/>
<path d="M4058 5399 c18 -19 29 -39 25 -44 -5 -4 -3 -5 3 -2 12 7 43 -21 43
-38 0 -5 5 -11 11 -13 22 -8 -7 31 -62 83 -29 28 -38 34 -20 14z"/>
<path d="M4166 5275 c3 -11 16 -42 27 -70 12 -30 23 -88 27 -145 l7 -95 1 76
c2 79 -21 176 -54 229 -10 17 -13 18 -8 5z"/>
<path d="M3770 5181 c0 -6 4 -12 9 -15 13 -8 42 4 35 15 -7 12 -44 12 -44 0z"/>
<path d="M3441 5074 c0 -11 3 -14 6 -6 3 7 2 16 -1 19 -3 4 -6 -2 -5 -13z"/>
<path d="M3440 5031 c0 -6 4 -13 10 -16 6 -3 7 1 4 9 -7 18 -14 21 -14 7z"/>
<path d="M4206 4927 c-4 -21 -11 -35 -16 -32 -4 3 -6 -5 -2 -17 5 -19 7 -17
19 17 7 22 12 46 10 55 -2 8 -6 -2 -11 -23z"/>
<path d="M4170 4826 c-15 -39 -12 -46 6 -13 9 16 13 31 10 34 -3 3 -10 -6 -16
-21z"/>
<path d="M4141 4780 c-1 -15 -50 -68 -111 -120 l-35 -29 30 -28 29 -28 -24 28
-24 28 29 24 c17 13 33 24 36 25 14 0 80 91 76 103 -4 8 -6 7 -6 -3z"/>
<path d="M3658 4543 c6 -2 18 -2 25 0 6 3 1 5 -13 5 -14 0 -19 -2 -12 -5z"/>
<path d="M4095 4526 c10 -14 19 -26 22 -26 7 0 -17 39 -28 46 -6 3 -3 -5 6
-20z"/>
<path d="M3724 4526 c11 -9 24 -16 30 -16 12 0 7 5 -24 19 -24 11 -24 11 -6
-3z"/>
<path d="M3820 4480 c19 -11 43 -16 54 -13 13 4 16 2 11 -7 -6 -9 -4 -11 5 -5
19 12 -18 37 -43 29 -11 -3 -17 -2 -14 2 3 5 -7 10 -21 11 -26 1 -25 0 8 -17z"/>
<path d="M4143 4486 c12 -16 8 -26 -8 -20 -8 4 -15 3 -15 -1 0 -11 53 -50 63
-47 5 1 17 -8 27 -20 11 -13 19 -18 20 -12 0 5 -21 33 -47 60 -27 28 -45 46
-40 40z"/>
<path d="M3904 4448 c-4 -7 -3 -8 4 -4 7 4 12 2 12 -4 0 -6 4 -9 9 -5 5 3 13
1 16 -5 8 -14 197 -102 203 -95 3 3 0 5 -6 5 -6 0 -9 6 -6 13 3 8 -10 20 -33
30 l-38 18 25 -20 c31 -25 22 -26 -24 -4 -19 9 -32 21 -29 26 4 6 1 7 -6 2
-12 -7 -58 10 -71 26 -3 3 -15 11 -27 18 -16 8 -24 8 -29 -1z"/>
<path d="M4243 4376 c4 -5 2 -16 -5 -23 -9 -11 -9 -16 2 -23 9 -6 17 -5 21 2
5 8 20 -1 44 -25 20 -20 32 -37 26 -37 -25 0 -8 -21 32 -40 23 -12 34 -15 25
-7 -10 8 -18 18 -18 23 0 5 -30 39 -67 74 -37 36 -64 61 -60 56z m110 -120 c4
-10 1 -13 -8 -9 -8 3 -12 9 -9 14 7 12 11 11 17 -5z"/>
<path d="M4212 4312 c-9 -6 -5 -12 15 -20 24 -11 26 -10 11 1 -10 8 -15 17
-11 20 9 9 1 8 -15 -1z"/>
<path d="M4260 4276 c0 -2 7 -6 15 -10 8 -3 15 -1 15 4 0 6 -7 10 -15 10 -8 0
-15 -2 -15 -4z"/>
<path d="M707 4186 c-49 -18 -71 -38 -115 -105 -30 -46 -35 -61 -35 -112 0
-50 7 -72 48 -155 l49 -97 15 32 c8 17 22 33 32 36 37 12 42 32 19 79 -39 78
-6 100 68 45 l42 -31 0 40 c0 23 4 52 10 66 6 18 6 34 -2 51 -9 19 -9 28 0 37
17 17 73 13 112 -7 l33 -17 -7 27 c-11 44 -36 75 -79 97 -52 26 -140 33 -190
14z"/>
<path d="M4520 4129 c52 -45 90 -71 90 -62 -1 10 -104 93 -116 93 -5 -1 7 -14
26 -31z"/>
<path d="M4504 3995 c37 -20 70 -34 73 -31 6 6 -81 51 -117 60 -14 4 6 -10 44
-29z"/>
<path d="M4413 3893 c4 -6 27 -13 52 -16 25 -4 57 -10 71 -13 17 -4 25 -3 21
3 -4 6 -27 13 -52 16 -25 4 -57 10 -71 13 -17 4 -25 3 -21 -3z"/>
<path d="M4749 3883 c33 -4 33 -5 28 -47 -3 -23 -9 -51 -12 -61 -6 -18 -5 -18
5 -3 6 10 14 40 17 68 l6 50 -39 -2 c-39 -1 -39 -1 -5 -5z"/>
<path d="M1175 3853 c-86 -18 -125 -50 -125 -101 0 -26 8 -42 33 -66 19 -17
37 -39 40 -49 8 -22 54 -40 83 -33 13 4 35 1 51 -5 15 -5 24 -7 20 -3 -4 4 5
20 20 36 27 28 53 37 53 18 0 -5 5 -10 10 -10 6 0 3 11 -7 25 -10 13 -26 25
-36 25 -25 0 -50 63 -51 127 -1 29 -5 53 -11 52 -5 -1 -41 -8 -80 -16z"/>
<path d="M4707 3789 c7 -7 15 -10 18 -7 3 3 -2 9 -12 12 -14 6 -15 5 -6 -5z"/>
<path d="M4462 3756 c-59 -15 -86 -32 -32 -21 60 12 110 26 110 30 0 7 -19 5
-78 -9z"/>
<path d="M4916 3695 c-3 -10 1 -15 12 -15 9 0 33 -10 52 -22 55 -33 131 -21
129 21 0 11 -3 10 -9 -5 -12 -30 -70 -36 -110 -11 -17 10 -30 25 -30 33 0 19
-36 18 -44 -1z"/>
<path d="M4985 3690 c9 -15 45 -32 45 -22 0 5 -12 14 -26 20 -14 7 -23 8 -19
2z"/>
<path d="M4473 3626 c-35 -16 -63 -33 -63 -37 0 -8 108 37 124 52 21 19 -3 14
-61 -15z"/>
<path d="M1304 3584 c-18 -14 -18 -15 4 -4 12 6 22 13 22 15 0 8 -5 6 -26 -11z"/>
<path d="M570 3485 l-53 -102 6 -94 c3 -52 10 -125 16 -164 5 -38 12 -126 16
-195 7 -120 8 -125 36 -151 28 -26 29 -31 29 -116 0 -48 -7 -133 -15 -188 -18
-127 -18 -213 0 -295 9 -36 28 -166 44 -291 28 -219 29 -229 15 -360 -8 -85
-13 -265 -14 -496 0 -318 2 -362 15 -357 13 5 15 -6 15 -70 l0 -76 235 0 235
0 0 43 -1 42 -89 54 c-50 29 -93 57 -95 62 -10 16 36 1231 59 1544 3 43 1 64
-10 76 -8 9 -15 29 -16 45 -4 65 26 254 52 334 28 84 28 85 63 88 53 5 58 17
48 113 -5 50 -4 91 1 102 6 12 5 23 -2 32 -9 10 -5 17 18 30 18 11 53 59 96
133 37 63 65 116 63 119 -2 2 -33 6 -69 10 l-64 6 -49 -82 -50 -81 -6 34 c-8
47 -25 71 -125 173 -48 48 -81 80 -74 71 8 -12 9 -18 2 -18 -6 0 -14 5 -17 10
-9 15 -109 64 -191 93 l-71 25 -53 -103z m365 -45 c10 -11 16 -20 13 -20 -3 0
-13 9 -23 20 -10 11 -16 20 -13 20 3 0 13 -9 23 -20z"/>
<path d="M1240 3550 c0 -5 14 -41 31 -80 28 -62 35 -70 59 -70 36 0 64 32 56
64 -5 22 -10 25 -36 19 -18 -3 -30 -1 -30 5 0 5 -8 9 -17 8 -12 -1 -21 10 -28
32 -8 29 -35 46 -35 22z"/>
<path d="M5640 3515 c0 -5 14 -30 30 -54 17 -24 30 -40 30 -35 0 5 -14 29 -30
54 -16 25 -30 41 -30 35z"/>
<path d="M4870 3497 c0 -19 20 -33 49 -35 13 0 22 0 20 2 -50 37 -69 46 -69
33z m35 -25 c-3 -3 -11 0 -18 7 -9 10 -8 11 6 5 10 -3 15 -9 12 -12z"/>
<path d="M5710 3362 l5 -47 3 39 c2 21 0 42 -5 47 -4 4 -6 -13 -3 -39z"/>
<path d="M5240 3300 c8 -5 20 -10 25 -10 6 0 3 5 -5 10 -8 5 -19 10 -25 10 -5
0 -3 -5 5 -10z"/>
<path d="M5702 3290 c0 -14 2 -19 5 -12 2 6 2 18 0 25 -3 6 -5 1 -5 -13z"/>
<path d="M5692 3240 c0 -14 2 -19 5 -12 2 6 2 18 0 25 -3 6 -5 1 -5 -13z"/>
<path d="M5673 3188 c-13 -15 -33 -128 -23 -128 6 0 41 132 36 138 -2 1 -8 -3
-13 -10z"/>
<path d="M5610 3140 c0 -5 5 -10 10 -10 6 0 10 5 10 10 0 6 -4 10 -10 10 -5 0
-10 -4 -10 -10z"/>
<path d="M5636 3014 c-4 -20 -5 -38 -3 -40 3 -3 8 11 11 32 4 20 5 38 3 40 -3
3 -8 -11 -11 -32z"/>
<path d="M5167 2875 c3 -55 7 -102 9 -104 7 -7 2 91 -6 149 -6 40 -7 27 -3
-45z"/>
<path d="M5615 2920 c-4 -23 -5 -43 -2 -46 2 -3 7 14 11 37 4 23 5 44 2 46 -2
2 -7 -14 -11 -37z"/>
<path d="M5604 2750 c0 -63 1 -89 3 -57 2 31 2 83 0 115 -2 31 -3 5 -3 -58z"/>
<path d="M5183 2705 c0 -27 2 -38 4 -22 2 15 2 37 0 50 -2 12 -4 0 -4 -28z"/>
<path d="M1288 2703 c6 -2 18 -2 25 0 6 3 1 5 -13 5 -14 0 -19 -2 -12 -5z"/>
<path d="M1283 2683 c9 -2 23 -2 30 0 6 3 -1 5 -18 5 -16 0 -22 -2 -12 -5z"/>
<path d="M1275 2640 c3 -5 11 -10 16 -10 6 0 7 5 4 10 -3 6 -11 10 -16 10 -6
0 -7 -4 -4 -10z"/>
<path d="M5190 2623 c0 -59 25 -279 33 -284 5 -3 11 -34 14 -67 5 -55 3 -64
-21 -92 -14 -17 -26 -36 -26 -41 0 -5 -33 -9 -73 -9 -43 0 -78 -5 -85 -12 -17
-17 -17 -499 0 -516 8 -8 50 -12 125 -12 62 0 113 -1 113 -2 5 -23 28 -853 25
-858 -3 -4 -45 -32 -95 -61 l-90 -53 0 -43 0 -43 230 0 230 0 0 70 c0 64 2 72
23 80 20 8 19 9 -9 9 -46 1 -94 12 -89 21 2 4 -6 5 -18 3 -12 -2 -49 2 -82 10
l-60 14 -6 89 c-4 49 -10 244 -13 434 -4 190 -12 408 -17 485 -5 77 -14 214
-19 305 -5 98 -13 166 -19 168 -6 2 -11 18 -11 36 0 18 -6 55 -14 82 -8 27
-20 106 -27 177 -6 70 -13 127 -15 127 -2 0 -4 -8 -4 -17z"/>
<path d="M1312 2597 c-2 -29 -7 -40 -24 -47 -16 -6 -18 -9 -7 -9 26 -1 41 24
36 61 l-4 33 -1 -38z"/>
<path d="M5611 2594 c0 -21 4 -48 9 -59 6 -13 7 -1 3 35 -7 66 -13 78 -12 24z"/>
<path d="M1275 2590 c0 -15 3 -26 8 -23 4 2 7 13 7 23 0 10 -3 21 -7 23 -5 3
-8 -8 -8 -23z"/>
<path d="M5631 2485 c-1 -11 4 -36 10 -55 13 -39 12 -209 0 -225 -5 -5 -11
-39 -14 -75 -6 -69 -12 -113 -20 -170 -3 -19 -11 -93 -17 -165 -6 -71 -12
-148 -14 -170 l-4 -40 82 5 81 5 0 265 0 265 -48 3 c-48 3 -49 4 -42 30 4 15
11 69 15 121 5 76 3 107 -11 160 -9 36 -18 57 -18 46z"/>
<path d="M5588 1175 c1 -220 4 -411 6 -425 6 -50 4 706 -3 765 -3 33 -5 -120
-3 -340z"/>
</g>
</svg>
