<?xml version="1.0" standalone="no"?>
<!DOCTYPE svg PUBLIC "-//W3C//DTD SVG 20010904//EN"
 "http://www.w3.org/TR/2001/REC-SVG-20010904/DTD/svg10.dtd">
<svg version="1.0" xmlns="http://www.w3.org/2000/svg"
 width="860.000000pt" height="650.000000pt" viewBox="0 0 860.000000 650.000000"
 preserveAspectRatio="xMidYMid meet">

<g transform="translate(0.000000,650.000000) scale(0.100000,-0.100000)"
fill="#000000" stroke="none">
<path d="M4463 5023 c-47 -3 -63 -8 -63 -18 0 -12 17 -15 80 -15 73 0 80 2 80
20 0 13 -6 19 -17 18 -10 -1 -46 -3 -80 -5z"/>
<path d="M4438 4943 c23 -2 61 -2 85 0 23 2 4 4 -43 4 -47 0 -66 -2 -42 -4z"/>
<path d="M4463 4903 c-46 -4 -55 -16 -24 -33 30 -16 76 -12 94 8 10 10 17 22
17 25 0 7 -7 7 -87 0z"/>
<path d="M3161 4734 c-12 -15 -21 -31 -21 -35 0 -5 -10 -9 -22 -9 -68 -1 -84
-83 -53 -260 8 -47 15 -111 15 -143 l0 -58 42 23 c50 28 83 73 92 126 7 45 22
56 57 38 20 -9 26 -23 35 -81 l11 -70 17 57 c9 32 22 60 27 63 5 4 9 20 9 37
0 24 3 29 16 24 145 -56 347 -2 378 100 6 18 -4 24 -106 58 -62 21 -145 56
-185 78 -96 52 -175 78 -239 78 -45 0 -56 -4 -73 -26z"/>
<path d="M2858 4067 l-146 -51 24 -29 c58 -69 120 -227 204 -525 27 -95 54
-181 60 -192 16 -29 97 -126 258 -307 169 -190 172 -191 172 -49 0 225 30 504
75 701 33 145 41 236 25 274 -12 29 -80 80 -170 126 -29 15 -33 15 -22 2 8
-10 12 -36 10 -74 l-3 -58 -30 47 c-24 38 -34 47 -50 42 -25 -8 -35 -23 -35
-51 0 -13 -3 -23 -7 -22 -5 0 -51 49 -103 109 -52 60 -99 109 -105 109 -5 0
-76 -23 -157 -52z m615 -369 c-13 -115 -62 -208 -108 -208 -31 0 -48 66 -40
155 4 44 9 83 11 87 3 5 36 8 74 8 l68 0 -5 -42z"/>
<path d="M2459 3900 c-68 -12 -101 -33 -146 -92 -64 -85 -66 -91 -74 -258 -10
-209 -16 -227 -109 -327 -102 -109 -137 -218 -127 -396 5 -90 27 -187 53 -228
19 -31 86 89 139 249 17 52 49 116 86 172 32 49 68 109 80 132 12 24 46 70 75
102 67 73 97 168 59 182 -18 7 -38 68 -30 94 9 29 39 25 68 -10 59 -69 164 -9
199 114 16 54 27 50 38 -13 l5 -35 22 34 23 35 0 -58 c0 -32 -7 -74 -15 -94
-8 -20 -14 -38 -11 -40 2 -2 11 14 20 37 23 57 22 238 -1 287 -40 85 -211 139
-354 113z m251 -296 c-14 -36 -46 -71 -82 -90 -53 -28 -48 -13 19 54 37 37 69
66 71 66 1 -1 -2 -14 -8 -30z"/>
<path d="M3892 3673 c-18 -9 -38 -25 -44 -36 -11 -21 -48 -242 -48 -290 0 -25
2 -27 28 -21 15 4 29 11 32 15 3 4 11 52 19 106 15 112 29 146 74 173 31 19
56 20 785 20 827 0 799 2 835 -59 9 -16 17 -47 17 -69 0 -82 -108 -780 -125
-805 -38 -59 -15 -57 -830 -57 -845 0 -801 -4 -836 76 -19 41 -19 44 3 188 12
80 19 148 16 152 -4 3 -19 0 -35 -8 -27 -13 -29 -17 -50 -168 -30 -214 -30
-215 11 -256 l34 -34 375 0 375 0 21 -62 c12 -34 21 -66 21 -70 0 -4 -36 -8
-79 -8 -82 0 -98 -9 -85 -45 5 -13 -22 -15 -206 -15 -203 0 -212 1 -207 19 2
10 2 24 -2 30 -8 12 -601 18 -621 6 -7 -4 -9 -17 -6 -31 l6 -24 -102 0 c-57 0
-109 -4 -116 -9 -8 -4 -12 -19 -10 -32 l3 -24 1386 -3 c1256 -2 1388 -1 1400
14 9 11 10 20 2 32 -9 15 -57 17 -530 20 l-520 2 5 29 c4 27 1 30 -29 33 -31
3 -36 8 -51 53 -31 93 -63 85 328 85 l346 0 28 29 c16 16 31 39 34 52 10 44
126 894 126 921 0 40 -10 57 -41 73 -24 13 -150 15 -866 15 -753 0 -841 -2
-871 -17z"/>
<path d="M2705 3078 c-4 -119 -4 -221 0 -227 3 -6 15 -11 26 -11 11 0 86 -13
167 -29 166 -33 292 -46 292 -32 0 6 -6 14 -14 18 -8 4 -101 87 -206 183 -175
160 -194 181 -224 244 l-33 70 -8 -216z"/>
<path d="M5216 3265 c-22 -8 -51 -25 -64 -39 l-26 -25 25 -20 c21 -17 26 -18
40 -5 8 7 30 19 47 25 18 6 32 16 32 22 0 7 3 22 6 35 7 26 -3 27 -60 7z"/>
<path d="M1723 2719 c-47 -14 -101 -71 -109 -116 -6 -30 14 -125 100 -473 59
-239 111 -451 117 -471 12 -47 40 -83 83 -103 30 -14 86 -16 439 -16 394 0
405 1 431 21 18 14 26 30 26 51 l0 31 46 -7 c26 -3 78 -6 115 -6 82 0 82 -1
39 -97 -32 -70 -89 -149 -216 -298 -67 -80 -174 -226 -174 -239 0 -3 38 -17
84 -32 l85 -28 93 85 c124 113 271 238 393 334 55 44 121 99 146 122 l47 43
54 -92 c30 -51 99 -165 154 -253 54 -88 124 -209 154 -268 l55 -107 70 0 c39
0 76 4 82 8 10 6 5 28 -21 93 -52 130 -108 294 -180 529 -99 326 -137 405
-231 488 -37 32 -70 49 -141 72 -158 50 -406 95 -684 124 l-134 14 -54 -49
c-69 -63 -132 -82 -262 -81 -52 1 -119 7 -149 14 l-54 13 -96 225 c-115 267
-182 399 -226 446 -35 37 -35 37 -82 23z m632 -1009 l40 -19 -31 0 c-18 -1
-42 8 -55 19 -31 25 -8 25 46 0z"/>
<path d="M2603 951 c-10 -16 -37 -49 -61 -75 -41 -45 -44 -46 -105 -47 -34 -1
-52 -4 -39 -6 21 -4 22 -9 22 -100 l0 -96 53 6 c29 4 67 10 84 13 26 5 36 1
57 -21 20 -21 31 -26 51 -21 14 4 28 13 31 21 3 8 -27 53 -75 109 l-81 94 29
22 30 21 40 -25 c30 -19 50 -45 81 -105 23 -43 50 -87 60 -96 14 -12 48 -20
112 -26 51 -5 99 -7 106 -4 6 2 12 17 12 33 0 28 -6 32 -109 77 -105 45 -111
49 -147 103 -52 81 -93 131 -114 142 -15 8 -22 4 -37 -19z"/>
<path d="M3062 798 c-21 -27 -32 -94 -21 -127 11 -31 12 -31 79 -31 l67 0 7
61 c12 115 15 109 -58 109 -39 0 -68 -5 -74 -12z"/>
<path d="M3310 758 c0 -24 -3 -60 -6 -80 l-7 -38 105 0 c67 0 108 4 116 12 16
16 15 63 0 75 -14 10 -184 73 -199 73 -5 0 -9 -19 -9 -42z"/>
<path d="M3900 773 c-21 -8 -30 -24 -30 -55 0 -37 40 -118 59 -118 8 0 26 14
40 31 l26 30 78 -31 c90 -36 207 -51 232 -30 21 17 19 63 -3 90 -17 21 -26 23
-99 21 -90 -2 -156 11 -225 45 -50 25 -54 26 -78 17z"/>
</g>
</svg>
