<svg width="368" height="298" viewBox="0 0 368 298" fill="none" xmlns="http://www.w3.org/2000/svg">
<path d="M135.731 2.5C134.046 2.5 132.397 3.16681 131.204 4.39513L78.9823 56.6166C24.3392 111.26 24.3392 199.875 78.9823 254.518C133.625 309.161 222.24 309.161 276.883 254.518L329.105 202.296C330.298 201.103 330.965 199.454 330.965 197.769V6.14989C330.965 4.14947 329.351 2.53509 327.35 2.53509H135.731V2.5Z" fill="#6ED8FF" stroke="white" stroke-width="2" stroke-miterlimit="10" stroke-linecap="round" stroke-linejoin="round"/>
<path d="M247.07 97.9317H200.093V41.4399H245.22C246.245 41.4399 247.07 42.2658 247.07 43.29V97.9317V97.9317Z" fill="white" stroke="black" stroke-width="1.2" stroke-miterlimit="10" stroke-linecap="round" stroke-linejoin="round"/>
<path d="M154.173 52.6722C154.305 56.9669 155.56 59.7089 156.518 62.1536C148.458 58.0241 141.388 57.1982 141.388 57.1982C141.388 57.1982 121.236 55.3812 114.067 60.0393C112.085 60.8652 110.235 62.4839 108.087 64.1358C105.147 60.0393 104.255 53.7954 106.634 48.6088C108.979 43.4221 114.596 42.6623 118.857 37.839C129.198 26.1442 125.894 21.387 136.069 14.7467C138.316 13.2601 141.817 12.2029 148.16 13.7887C149.251 14.053 152.059 15.6387 153.776 17.6539C160.813 25.946 153.776 39.4247 154.173 52.6722Z" fill="black"/>
<path d="M142.049 57.6606C142.049 57.6606 174.556 61.1294 179.214 93.9343" stroke="black" stroke-width="1.2" stroke-miterlimit="10" stroke-linecap="round" stroke-linejoin="round"/>
<path d="M136.928 30.1416C136.201 31.1988 135.475 32.2229 134.748 33.28C134.516 36.4185 133.757 41.3409 131.18 46.7588C130.09 49.0052 128.9 50.9213 127.711 52.5401C126.026 54.8526 124.077 56.6696 121.269 57.1321C120.674 57.2312 114.893 59.6759 113.34 60.3697C116.38 77.1851 135.508 81.8762 143.866 78.1101C149.152 75.7315 151.464 69.4876 152.422 65.8206C151.101 64.6644 145.815 59.1473 144.229 58.5196C143.998 56.7027 143.469 50.2276 143.634 48.6749" fill="#6ED8FF"/>
<path d="M152.224 251.087C153.677 259.28 154.966 272.825 156.386 281.315C157.014 283.363 159.525 282.934 163.06 282.934C172.64 282.868 182.32 283 192.528 283C192.726 282.934 195.039 283.165 193.684 279.994C190.81 274.675 182.452 268.893 176.737 266.35C176.538 261.064 176.538 257.661 176.538 252.507L152.224 251.087Z" fill="black" stroke="black" stroke-width="1.2" stroke-miterlimit="10" stroke-linecap="round" stroke-linejoin="round"/>
<path d="M155.098 85.1467C148.061 86.9968 138.58 87.228 131.543 85.9726C130.85 75.6984 126.357 56.9669 125.828 54.7205C123.218 55.8107 120.74 56.5374 118.263 57.5946C134.55 117.489 99.8617 130.142 99.8617 130.869C100.555 145.372 104.817 180.357 104.817 194.86C104.817 196.28 104.123 197.337 103.76 198.758C96.6902 216.432 89.9508 233.776 84.665 251.781L111.689 251.88C115.62 245.075 119.452 238.236 123.086 231.266C126.588 224.559 129.991 217.754 132.7 210.684C133.79 207.876 134.814 204.969 135.309 201.963L145.352 207.447V210.387L152.521 252.805H176.572L175.547 208.471L155.098 85.1467Z" fill="white" stroke="black" stroke-width="1.2" stroke-miterlimit="10" stroke-linecap="round" stroke-linejoin="round"/>
<path d="M127.381 86.7984C128.202 86.7984 128.867 86.1329 128.867 85.3118C128.867 84.4908 128.202 83.8252 127.381 83.8252C126.56 83.8252 125.894 84.4908 125.894 85.3118C125.894 86.1329 126.56 86.7984 127.381 86.7984Z" fill="black"/>
<path d="M122.954 86.7985L127.942 91.9521L131.543 86.0056" stroke="black" stroke-width="1.2" stroke-miterlimit="10" stroke-linecap="round" stroke-linejoin="round"/>
<path d="M167.982 85.3118V86.7984C168.312 86.3359 168.577 85.8403 168.841 85.3118C168.577 85.3118 168.279 85.3118 167.982 85.3118Z" fill="white" stroke="black" stroke-width="1.2" stroke-miterlimit="10" stroke-linecap="round" stroke-linejoin="round"/>
<path d="M157.741 79.5639C157.014 73.3531 155.825 68.0013 154.503 61.5923L144.791 58.2556C146.476 65.7879 148.227 73.0228 148.821 79.5639H157.741Z" fill="white" stroke="black" stroke-width="1.2" stroke-miterlimit="10" stroke-linecap="round" stroke-linejoin="round"/>
<path d="M230.024 56.967L190.744 63.3099C186.912 63.9376 183.278 61.3278 182.65 57.4956L179.247 36.5837C178.62 32.7515 181.229 29.1175 185.062 28.4898L224.342 22.1469C228.174 21.5192 231.808 24.1291 232.435 27.9613L235.838 48.9062C236.466 52.7384 233.856 56.3723 230.024 56.967Z" fill="black" stroke="black" stroke-width="1.2" stroke-miterlimit="10" stroke-linecap="round" stroke-linejoin="round"/>
<path d="M201.976 52.6722L199.135 36.0881C198.871 34.5354 200.357 33.28 201.844 33.8086L216.677 39.7881C218.197 40.3167 218.527 42.3319 217.272 43.323L205.28 53.8946C204.09 54.9187 202.24 54.2249 201.976 52.6722Z" fill="#6ED8FF"/>
<path d="M156.386 112.038L145.385 67.1091C145.088 65.9198 145.815 64.6974 147.037 64.4001L201.514 51.0535C202.703 50.7562 203.925 51.483 204.223 52.7053L215.224 97.6345L156.386 112.038Z" fill="white" stroke="black" stroke-width="1.2" stroke-miterlimit="10" stroke-linecap="round" stroke-linejoin="round"/>
<path d="M200.038 56.9595L151.04 68.9607L160.015 105.605L209.013 93.604L200.038 56.9595Z" fill="#6ED8FF"/>
<path d="M158.633 100.013L168.841 77.9448L193.981 97.271" stroke="black" stroke-width="1.2" stroke-miterlimit="10" stroke-linecap="round" stroke-linejoin="round"/>
<path d="M186.317 91.3574L191.768 76.7224L210.169 90.4324" stroke="black" stroke-width="1.2" stroke-miterlimit="10" stroke-linecap="round" stroke-linejoin="round"/>
<path d="M182.419 75.401C184.517 75.401 186.218 73.7001 186.218 71.6019C186.218 69.5037 184.517 67.8027 182.419 67.8027C180.321 67.8027 178.62 69.5037 178.62 71.6019C178.62 73.7001 180.321 75.401 182.419 75.401Z" fill="black" stroke="black" stroke-width="1.2" stroke-miterlimit="10" stroke-linecap="round" stroke-linejoin="round"/>
<path d="M208.683 81.4797L206.403 82.9664L208.617 91.9852L211.392 92.1504L211.623 88.4504L208.683 81.4797Z" fill="white"/>
<path d="M136.928 30.1416C136.201 31.1988 135.475 32.2229 134.748 33.28C134.516 36.4185 133.757 41.3409 131.18 46.7588C130.09 49.0052 128.9 50.9213 127.711 52.5401C126.026 54.8526 124.077 56.6696 121.269 57.1321C120.674 57.2312 114.893 59.6759 113.34 60.3697" stroke="black" stroke-width="1.2" stroke-miterlimit="10" stroke-linecap="round" stroke-linejoin="round"/>
<path d="M152.521 252.805H176.571" stroke="black" stroke-width="1.2" stroke-miterlimit="10" stroke-linecap="round" stroke-linejoin="round"/>
<path d="M126.291 56.6035C126.291 56.6035 135.508 63.9375 144.89 58.883" stroke="black" stroke-width="1.2" stroke-miterlimit="10" stroke-linecap="round" stroke-linejoin="round"/>
<path d="M120.674 144.017C120.674 144.017 115.091 154.523 110.631 156.736" stroke="black" stroke-width="1.2" stroke-miterlimit="10" stroke-linecap="round" stroke-linejoin="round"/>
<path d="M215.653 102.128C224.667 102.128 231.973 94.8208 231.973 85.8076C231.973 76.7944 224.667 69.4878 215.653 69.4878C206.64 69.4878 199.333 76.7944 199.333 85.8076C199.333 94.8208 206.64 102.128 215.653 102.128Z" fill="white" stroke="black" stroke-width="1.2" stroke-miterlimit="10" stroke-linecap="round" stroke-linejoin="round"/>
<path d="M215.653 96.2468C221.419 96.2468 226.093 91.5729 226.093 85.8073C226.093 80.0418 221.419 75.3679 215.653 75.3679C209.888 75.3679 205.214 80.0418 205.214 85.8073C205.214 91.5729 209.888 96.2468 215.653 96.2468Z" fill="white" stroke="black" stroke-width="1.2" stroke-miterlimit="10" stroke-linecap="round" stroke-linejoin="round"/>
<path d="M87.8035 241.771H117.437" stroke="black" stroke-width="1.2" stroke-miterlimit="10" stroke-linecap="round" stroke-linejoin="round"/>
<path d="M150.671 241.771H176.307" stroke="black" stroke-width="1.2" stroke-miterlimit="10" stroke-linecap="round" stroke-linejoin="round"/>
<path d="M98.6062 118.811C98.6062 118.811 99.1348 126.871 99.8946 130.869Z" fill="white"/>
<path d="M98.6062 118.811C98.6062 118.811 99.1348 126.871 99.8946 130.869" stroke="black" stroke-width="1.2" stroke-miterlimit="10" stroke-linecap="round" stroke-linejoin="round"/>
<path d="M272.839 131.662L206.436 118.447L220.873 45.8337C221.104 44.6775 222.227 43.9176 223.384 44.1489L285.624 56.5374C286.78 56.7687 287.54 57.8919 287.309 59.0482L272.839 131.662Z" fill="white" stroke="black" stroke-width="1.2" stroke-miterlimit="10" stroke-linecap="round" stroke-linejoin="round"/>
<path d="M221.038 84.0896L245.088 88.2522" stroke="black" stroke-width="1.2" stroke-miterlimit="10" stroke-linecap="round" stroke-linejoin="round"/>
<path d="M182.914 210.387H135.375C133.426 210.387 131.874 208.801 131.874 206.885V97.4362C131.874 95.487 133.459 93.9343 135.375 93.9343H184.467" fill="black"/>
<path d="M182.914 210.387H135.375C133.426 210.387 131.874 208.801 131.874 206.885V97.4362C131.874 95.487 133.459 93.9343 135.375 93.9343H184.467" stroke="black" stroke-width="1.2" stroke-miterlimit="10" stroke-linecap="round" stroke-linejoin="round"/>
<path d="M282.981 210.387H173.07C171.253 210.387 169.799 208.933 169.799 207.116V97.2049C169.799 95.3879 171.253 93.9343 173.07 93.9343H282.981C284.798 93.9343 286.251 95.3879 286.251 97.2049V207.116C286.251 208.933 284.798 210.387 282.981 210.387Z" fill="#6ED8FF" stroke="black" stroke-width="1.2" stroke-miterlimit="10" stroke-linecap="round" stroke-linejoin="round"/>
<path d="M183.245 124.592C188.068 119.802 190.15 116.795 189.687 116.168C189.026 115.21 186.516 117.291 181.99 121.09C184.6 118.579 190.744 113.624 189.588 112.071C188.663 110.816 183.542 115.903 180.536 117.819C185.029 113.492 186.417 111.41 186.02 110.882C185.194 109.759 182.882 111.113 176.01 117.819C177.728 115.11 178.389 112.236 177.761 111.708C176.241 110.75 173.268 115.606 170.13 120.925C167.487 121.883 164.844 122.61 162.234 123.171L162.102 123.105C134.517 127.565 115.851 111.939 116.281 90.2673L118.461 79.8939C117.47 78.3082 116.446 76.7555 115.488 75.1367C113.01 71.0402 111.061 67.8357 108.98 63.541C100.225 68.6947 94.7083 76.5573 93.2547 90.6637C89.2573 129.778 127.018 155.018 164.315 140.218C168.346 138.5 172.376 136.055 176.241 133.578C179.875 131.265 189.985 123.766 188.828 121.024C188.465 119.967 183.906 123.997 183.245 124.592Z" fill="#6ED8FF"/>
<path d="M154.14 34.6346C153.05 44.182 149.779 49.2365 145.683 49.0714C145.253 49.0383 144.824 49.0053 144.394 48.9062C147.764 47.9481 149.68 42.8936 150.638 34.5355C151.662 25.5166 148.127 20.429 143.635 19.471C144.031 19.3719 144.394 19.3388 144.791 19.3058C149.779 19.2067 155.263 24.5585 154.14 34.6346Z" fill="white"/>
<path d="M150.638 34.5025C149.68 42.8607 147.797 47.9152 144.395 48.8733C140.133 47.9152 136.499 43.158 136.103 35.824C136.631 35.9892 137.193 36.0222 137.721 35.791C139.109 35.2293 139.604 33.2802 138.845 31.4632C138.382 30.34 137.523 29.5141 136.598 29.1837C137.688 24.0301 140.364 20.1979 143.635 19.405C148.095 20.3961 151.663 25.5167 150.638 34.5025Z" fill="#6ED8FF"/>
<path d="M137.093 41.6713C138.646 46.7588 142.115 48.9062 145.683 49.0714C149.779 49.2696 153.05 44.215 154.14 34.6346C155.296 24.5585 149.779 19.2067 144.791 19.3058C142.313 19.3388 140.067 21.1228 138.481 23.9639" stroke="black" stroke-width="1.2" stroke-miterlimit="10" stroke-linecap="round" stroke-linejoin="round"/>
<path d="M151.762 36.2866C152.356 36.7161 156.056 37.4759 155.66 38.8634C155.33 39.9867 151.497 39.8545 150.638 39.5572" fill="white"/>
<path d="M151.762 36.2866C152.356 36.7161 156.056 37.4759 155.66 38.8634C155.33 39.9867 151.497 39.8545 150.638 39.5572" stroke="black" stroke-width="1.2" stroke-miterlimit="10" stroke-linecap="round" stroke-linejoin="round"/>
<path d="M132.336 32.7517C134.286 31.9258 147.137 30.7365 154.999 26.4418C153.48 24.3605 151.101 19.1738 149.581 17.0926C148.458 16.8283 146.311 16.4979 143.767 17.1586C140.628 17.9515 138.679 19.7685 137.853 20.5944C135.706 23.898 134.484 29.4811 132.336 32.7517Z" fill="black"/>
<path d="M143.668 48.675C143.569 49.3688 144.262 54.9519 144.857 57.8921Z" fill="black"/>
<path d="M143.668 48.675C143.569 49.3688 144.262 54.9519 144.857 57.8921" stroke="black" stroke-width="1.2" stroke-miterlimit="10" stroke-linecap="round" stroke-linejoin="round"/>
<path d="M164.381 140.185C127.612 153.796 89.3233 129.746 93.3207 90.6308C95.6993 67.3073 114.332 58.8831 126.159 56.1411" stroke="black" stroke-width="1.2" stroke-miterlimit="10" stroke-linecap="round" stroke-linejoin="round"/>
<path d="M116.314 90.2344C115.884 111.906 134.55 127.565 162.135 123.072" stroke="black" stroke-width="1.2" stroke-miterlimit="10" stroke-linecap="round" stroke-linejoin="round"/>
<path d="M162.135 123.072C164.745 122.544 167.52 121.883 170.163 120.925C173.301 115.639 176.274 110.75 177.794 111.708C178.422 112.236 177.761 115.077 176.043 117.819C182.914 111.08 185.227 109.759 186.053 110.882C186.416 111.41 185.029 113.492 180.569 117.819C183.542 115.903 188.696 110.816 189.621 112.071C190.777 113.624 184.632 118.579 182.023 121.09C186.548 117.291 189.059 115.21 189.72 116.168C190.182 116.828 188.101 119.802 183.278 124.592C183.278 124.592 183.245 124.592 183.245 124.625C183.245 124.625 183.245 124.625 183.212 124.658C183.212 124.658 183.212 124.658 183.179 124.658C183.179 124.658 183.179 124.658 183.212 124.658C183.212 124.658 183.212 124.658 183.245 124.625C183.245 124.625 183.278 124.625 183.278 124.592C183.939 123.997 188.498 120 188.927 120.991C190.116 123.7 179.974 131.199 176.34 133.545C172.442 136.022 168.445 138.5 164.414 140.185" stroke="black" stroke-width="1.2" stroke-miterlimit="10" stroke-linecap="round" stroke-linejoin="round"/>
<path d="M97.3509 116.333C94.5758 110.651 100.027 97.6675 116.941 97.7005" stroke="black" stroke-width="1.2" stroke-miterlimit="10" stroke-linecap="round" stroke-linejoin="round"/>
<path d="M95.9302 112.567C93.1551 106.884 99.5972 95.3218 116.545 95.3548" stroke="black" stroke-width="1.2" stroke-miterlimit="10" stroke-linecap="round" stroke-linejoin="round"/>
<path d="M84.6979 251.781C83.9381 255.25 78.2559 278.804 79.0818 281.976C79.6104 283.628 83.4095 282.438 86.8123 282.603C94.5097 282.405 98.474 282.835 107.328 282.603C110.169 282.537 113.307 282.603 117.239 282.603C118.329 282.603 119.287 282.537 119.287 281.282C118.989 279.135 116.842 276.227 115.884 275.203C111.556 270.578 104.321 266.68 104.222 266.614C106.964 260.932 109.607 256.307 111.755 251.847L84.6979 251.781Z" fill="black" stroke="black" stroke-width="1.2" stroke-miterlimit="10" stroke-linecap="round" stroke-linejoin="round"/>
<path d="M248.161 141.638C249.581 143.059 251.795 141.638 250.969 139.821C249.945 137.212 248.359 134.767 246.146 132.554C237.688 124.096 223.978 123.667 215.092 131.331L212.283 128.523C211.259 127.499 209.475 128.127 209.244 129.547L206.833 147.089C206.833 148.312 207.625 149.303 208.848 149.105L226.39 146.693C227.81 146.495 228.405 144.678 227.414 143.455L224.375 140.416C231.246 134.8 241.719 135.196 248.161 141.638Z" fill="white"/>
<path d="M197.549 147.684C195.931 149.897 194.51 152.507 193.717 155.547C190.678 167.241 197.153 179.134 208.22 182.967L207.196 186.997C206.998 188.417 208.22 189.607 209.608 189.012L225.927 182.372C226.951 181.975 227.348 180.753 226.324 179.564L215.653 165.656C214.86 164.433 213.043 164.863 212.614 166.25L211.391 170.479C202.934 167.44 198.078 158.189 200.49 149.303C201.183 147.287 198.772 146.065 197.549 147.684Z" fill="white"/>
<path d="M246.971 148.08C246.178 147.486 244.758 147.882 244.361 148.873L237.721 165.193C237.127 166.614 238.316 168.001 239.736 167.605L243.965 166.382C245.584 175.467 239.935 184.123 231.048 186.534C229.231 187.129 229.231 189.772 231.246 189.97C234.054 190.367 236.895 190.168 239.902 189.376C251.596 186.336 258.666 174.873 256.42 163.178L260.45 162.154C261.871 161.757 262.267 159.94 260.847 158.718L246.971 148.08Z" fill="white"/>
<path d="M169.832 108.503H286.251" stroke="black" stroke-width="1.2" stroke-miterlimit="10" stroke-linecap="round" stroke-linejoin="round"/>
<path d="M178.785 104.638C180.299 104.638 181.527 103.41 181.527 101.896C181.527 100.382 180.299 99.1541 178.785 99.1541C177.271 99.1541 176.043 100.382 176.043 101.896C176.043 103.41 177.271 104.638 178.785 104.638Z" fill="black" stroke="black" stroke-width="1.2" stroke-miterlimit="10" stroke-linecap="round" stroke-linejoin="round"/>
<path d="M188.597 104.638C190.111 104.638 191.339 103.41 191.339 101.896C191.339 100.382 190.111 99.1541 188.597 99.1541C187.082 99.1541 185.855 100.382 185.855 101.896C185.855 103.41 187.082 104.638 188.597 104.638Z" fill="white" stroke="white" stroke-width="1.2" stroke-miterlimit="10" stroke-linecap="round" stroke-linejoin="round"/>
<path d="M198.144 104.638C199.658 104.638 200.886 103.41 200.886 101.896C200.886 100.382 199.658 99.1541 198.144 99.1541C196.63 99.1541 195.402 100.382 195.402 101.896C195.402 103.41 196.63 104.638 198.144 104.638Z" fill="white" stroke="white" stroke-width="1.2" stroke-miterlimit="10" stroke-linecap="round" stroke-linejoin="round"/>
<path d="M244.23 81.81L224.639 77.9117C223.648 77.7135 222.987 76.7224 223.186 75.6983L227.348 55.2159C227.546 54.2248 228.504 53.5971 229.462 53.7953L249.053 57.6936C250.044 57.8918 250.705 58.8829 250.506 59.907L246.344 80.3894C246.146 81.3805 245.188 82.0082 244.23 81.81Z" stroke="black" stroke-width="1.2" stroke-miterlimit="10" stroke-linecap="round" stroke-linejoin="round"/>
<path d="M285.326 68.9263L311.755 69.8843L285.855 95.7847C285.855 95.7847 285.359 93.9346 282.155 93.9346C280.371 93.9346 280.371 93.9346 280.371 93.9346L285.326 68.9263Z" fill="black" stroke="black" stroke-width="1.2" stroke-miterlimit="10" stroke-linecap="round" stroke-linejoin="round"/>
<path d="M255.396 63.3762L278.851 67.6709" stroke="black" stroke-width="1.2" stroke-miterlimit="10" stroke-linecap="round" stroke-linejoin="round"/>
<path d="M230.42 60.6672L245.386 63.8057" stroke="#6ED8FF" stroke-width="1.2" stroke-miterlimit="10" stroke-linecap="round" stroke-linejoin="round"/>
<path d="M254.273 68.6616L262.4 70.1482" stroke="#6ED8FF" stroke-width="1.2" stroke-miterlimit="10" stroke-linecap="round" stroke-linejoin="round"/>
<path d="M253.182 73.9475L274.292 77.8458" stroke="black" stroke-width="1.2" stroke-miterlimit="10" stroke-linecap="round" stroke-linejoin="round"/>
<path d="M252.059 79.2664L275.514 83.5611" stroke="black" stroke-width="1.2" stroke-miterlimit="10" stroke-linecap="round" stroke-linejoin="round"/>
<path d="M263.192 40.2835L266.496 42.0675C266.628 42.1335 266.661 42.3317 266.562 42.4309L262.895 46.4613C262.796 46.5604 262.598 46.5604 262.531 46.4282L260.45 43.2898C260.351 43.1577 260.186 43.1577 260.087 43.2568L257.444 46.1309C257.345 46.263 257.114 46.23 257.047 46.0648L250.936 32.6522C250.837 32.4539 251.035 32.2557 251.233 32.3218L265.207 37.1781C265.373 37.2442 265.406 37.4424 265.307 37.5415L263.159 39.8871C263.027 40.0523 263.06 40.2174 263.192 40.2835Z" fill="black" stroke="black" stroke-width="1.2" stroke-miterlimit="10" stroke-linecap="round" stroke-linejoin="round"/>
<path d="M137.787 35.9891C137.258 36.2204 136.664 36.2204 136.102 36.0221C135.144 35.6918 134.219 34.8328 133.724 33.6435C132.931 31.7274 133.459 29.6792 134.913 29.0845C135.474 28.8533 136.069 28.8533 136.631 29.0515C137.589 29.3819 138.481 30.2408 139.009 31.4301C139.769 33.3462 139.241 35.3944 137.787 35.9891Z" fill="#6ED8FF"/>
<path d="M132.898 94.9587L169.799 97.4365L158.17 107.017H123.383L132.898 94.9587Z" fill="black" stroke="black" stroke-width="1.2" stroke-miterlimit="10" stroke-linecap="round" stroke-linejoin="round"/>
<path d="M237.854 62.3518L235.244 75.2029" stroke="#6ED8FF" stroke-width="1.2" stroke-miterlimit="10" stroke-linecap="round" stroke-linejoin="round"/>
<path d="M123.383 107.017H158.17L171.517 95.6526" stroke="#6ED8FF" stroke-width="1.2" stroke-miterlimit="10" stroke-linecap="round" stroke-linejoin="round"/>
</svg>
