<?xml version="1.0" standalone="no"?>
<!DOCTYPE svg PUBLIC "-//W3C//DTD SVG 20010904//EN"
 "http://www.w3.org/TR/2001/REC-SVG-20010904/DTD/svg10.dtd">
<svg version="1.0" xmlns="http://www.w3.org/2000/svg"
 width="626.000000pt" height="626.000000pt" viewBox="0 0 626.000000 626.000000"
 preserveAspectRatio="xMidYMid meet">

<g transform="translate(0.000000,626.000000) scale(0.100000,-0.100000)"
fill="#000000" stroke="none">
<path d="M1634 5324 c-18 -14 -18 -15 4 -4 12 6 22 13 22 15 0 8 -5 6 -26 -11z"/>
<path d="M3180 5266 c0 -2 8 -10 18 -17 15 -13 16 -12 3 4 -13 16 -21 21 -21
13z"/>
<path d="M3235 5220 c10 -11 20 -20 23 -20 3 0 -3 9 -13 20 -10 11 -20 20 -23
20 -3 0 3 -9 13 -20z"/>
<path d="M1419 5183 c-13 -16 -12 -17 4 -4 16 13 21 21 13 21 -2 0 -10 -8 -17
-17z"/>
<path d="M1374 5148 l-19 -23 23 19 c21 18 27 26 19 26 -2 0 -12 -10 -23 -22z"/>
<path d="M3300 5167 c0 -2 15 -16 33 -33 l32 -29 -29 33 c-28 30 -36 37 -36
29z"/>
<path d="M1314 5098 l-29 -33 33 29 c30 28 37 36 29 36 -2 0 -16 -15 -33 -32z"/>
<path d="M3395 5060 c10 -11 20 -20 23 -20 3 0 -3 9 -13 20 -10 11 -20 20 -23
20 -3 0 3 -9 13 -20z"/>
<path d="M1219 5013 l-34 -38 38 34 c34 33 42 41 34 41 -2 0 -19 -17 -38 -37z"/>
<path d="M3420 5026 c0 -2 8 -10 18 -17 15 -13 16 -12 3 4 -13 16 -21 21 -21
13z"/>
<path d="M4705 4988 l-40 -43 43 40 c39 36 47 45 39 45 -2 0 -21 -19 -42 -42z"/>
<path d="M3450 4986 c0 -2 8 -10 18 -17 15 -13 16 -12 3 4 -13 16 -21 21 -21
13z"/>
<path d="M1154 4938 l-19 -23 23 19 c21 18 27 26 19 26 -2 0 -12 -10 -23 -22z"/>
<path d="M2734 4566 c40 -52 82 -131 98 -181 6 -16 13 -75 17 -130 l8 -100 1
90 c1 72 -3 104 -22 158 -27 75 -72 150 -112 188 -20 18 -18 12 10 -25z"/>
<path d="M4930 4467 c0 -2 15 -16 33 -33 l32 -29 -29 33 c-28 30 -36 37 -36
29z"/>
<path d="M1885 4380 c-4 -12 -5 -24 -2 -27 3 -2 8 5 12 17 4 12 5 24 2 27 -3
2 -8 -5 -12 -17z"/>
<path d="M3735 4326 c-16 -7 -44 -25 -61 -39 -25 -21 -43 -27 -80 -27 -84 0
-180 -66 -206 -141 -6 -19 -28 -38 -66 -60 l-56 -31 -19 26 c-49 68 -162 77
-230 18 -10 -9 -38 -17 -62 -18 -53 -2 -121 -42 -135 -80 -13 -32 -13 -96 0
-128 8 -22 6 -27 -28 -43 -55 -27 -85 -77 -79 -134 2 -26 14 -60 26 -78 22
-31 22 -31 3 -58 -45 -66 -54 -150 -23 -212 26 -51 82 -98 131 -111 36 -10 40
-14 40 -43 0 -43 38 -115 73 -141 41 -30 134 -29 176 2 36 26 41 27 41 7 0 -9
9 -33 20 -54 51 -101 193 -117 293 -33 18 16 22 73 11 145 -6 36 -8 37 -48 37
-87 0 -139 58 -142 157 -3 60 -6 67 -43 108 -107 117 -147 320 -87 451 23 50
29 56 37 41 8 -13 5 -29 -12 -63 -27 -56 -23 -131 10 -174 15 -21 21 -44 21
-81 0 -76 18 -127 57 -156 l34 -26 24 23 c18 17 28 20 37 13 7 -6 39 -17 71
-24 69 -15 88 -5 69 35 -9 19 -8 27 4 36 19 16 18 70 -2 98 -15 22 -15 25 6
47 19 20 22 32 17 65 -4 31 -2 43 9 47 25 9 46 62 39 99 -5 31 -3 34 29 48 37
15 66 59 66 99 0 22 5 25 55 29 33 3 62 12 74 22 19 17 21 17 51 -5 39 -30
101 -30 133 -2 14 13 42 22 77 26 30 3 62 8 70 11 10 3 22 -6 35 -27 11 -18
37 -41 58 -52 22 -12 37 -27 37 -38 0 -24 58 -105 81 -112 33 -11 41 -64 47
-289 4 -203 6 -218 19 -191 9 16 15 49 14 74 0 25 7 63 16 84 14 33 15 45 5
84 -11 41 -10 53 10 109 l22 63 -22 46 c-16 33 -22 64 -22 111 0 82 -17 123
-70 165 -24 19 -54 58 -70 90 -31 61 -84 113 -137 135 -21 9 -65 14 -121 13
-48 -1 -100 3 -115 10 -38 15 -175 13 -212 -3z"/>
<path d="M1875 4171 c10 -129 126 -300 245 -361 54 -28 50 -19 -9 19 -114 73
-202 203 -227 336 l-14 70 5 -64z"/>
<path d="M1010 4216 c0 -2 8 -10 18 -17 15 -13 16 -12 3 4 -13 16 -21 21 -21
13z"/>
<path d="M1070 4155 c13 -14 26 -25 28 -25 3 0 -5 11 -18 25 -13 14 -26 25
-28 25 -3 0 5 -11 18 -25z"/>
<path d="M1420 3926 c0 -2 8 -10 18 -17 15 -13 16 -12 3 4 -13 16 -21 21 -21
13z"/>
<path d="M3785 3776 c-19 -13 -18 -15 15 -20 76 -12 151 -13 147 -2 -11 34
-126 49 -162 22z"/>
<path d="M2121 3752 c-10 -8 -13 -27 -9 -80 7 -100 30 -127 118 -136 99 -9
310 -7 310 3 0 5 9 13 20 16 28 9 37 30 45 112 6 64 5 72 -12 76 -36 11 -458
18 -472 9z"/>
<path d="M4225 3704 c-22 -7 -41 -14 -42 -14 -2 0 -3 -7 -3 -16 0 -11 5 -14
17 -10 9 4 43 9 75 13 53 5 71 15 51 26 -24 13 -63 14 -98 1z"/>
<path d="M4209 3619 l-24 -20 25 8 c14 4 50 7 80 6 52 -1 54 -1 30 12 -37 21
-84 18 -111 -6z"/>
<path d="M3814 3615 c-18 -15 -17 -16 13 -10 18 4 49 1 69 -5 45 -15 55 -6 15
14 -38 20 -72 20 -97 1z"/>
<path d="M4071 3587 c-1 -5 24 -69 54 -144 59 -144 59 -151 5 -154 -18 -1 -20
-3 -7 -6 30 -8 67 6 67 25 0 27 -117 301 -119 279z"/>
<path d="M2170 3506 c0 -13 14 -16 88 -16 49 0 130 -3 180 -6 81 -6 92 -5 92
10 0 14 -18 16 -164 16 -90 0 -171 3 -180 6 -11 4 -16 1 -16 -10z"/>
<path d="M4252 3498 c-26 -26 1 -65 38 -53 16 5 20 14 18 33 -3 30 -35 41 -56
20z"/>
<path d="M3897 3484 c-15 -15 -7 -53 13 -59 27 -8 52 12 48 39 -3 21 -46 35
-61 20z"/>
<path d="M2172 3459 c4 -11 39 -15 176 -17 113 -2 172 1 172 8 0 5 -21 10 -47
10 -27 0 -106 3 -177 7 -108 5 -128 4 -124 -8z"/>
<path d="M2180 3410 c0 -16 38 -50 56 -50 9 0 27 -9 41 -20 28 -22 126 -29
139 -9 3 6 26 19 50 29 54 24 57 45 7 54 -63 10 -293 7 -293 -4z"/>
<path d="M1449 3323 c-13 -16 -12 -17 4 -4 9 7 17 15 17 17 0 8 -8 3 -21 -13z"/>
<path d="M1340 3203 l-55 -58 58 55 c31 30 57 56 57 57 0 8 -10 -1 -60 -54z"/>
<path d="M3990 3179 c-11 -8 -4 -9 29 -5 28 5 48 2 59 -6 13 -11 14 -10 10 2
-6 18 -76 25 -98 9z"/>
<path d="M1209 3073 l-24 -28 28 24 c25 23 32 31 24 31 -2 0 -14 -12 -28 -27z"/>
<path d="M4924 2958 l-19 -23 23 19 c21 18 27 26 19 26 -2 0 -12 -10 -23 -22z"/>
<path d="M3049 2363 l-24 -28 28 24 c25 23 32 31 24 31 -2 0 -14 -12 -28 -27z"/>
<path d="M4570 2226 c0 -4 13 -26 29 -49 43 -64 77 -160 102 -287 18 -98 21
-135 16 -255 -4 -77 -13 -180 -21 -230 -23 -132 -23 -131 21 -98 35 26 42 28
137 28 64 0 110 -5 124 -14 13 -7 26 -10 29 -7 3 3 -5 10 -18 16 -13 5 -37 20
-52 32 -21 17 -46 24 -95 28 l-67 5 55 36 c30 20 72 42 93 50 20 7 37 17 37
21 0 8 -33 -3 -80 -27 -41 -21 -45 -19 -15 10 14 14 25 28 25 30 0 5 -7 2 -97
-34 -66 -27 -67 -26 -58 7 12 48 6 279 -10 370 -19 114 -40 184 -75 252 -29
55 -80 130 -80 116z"/>
<path d="M2932 2070 c0 -14 2 -19 5 -12 2 6 2 18 0 25 -3 6 -5 1 -5 -13z"/>
<path d="M3650 1980 c63 -61 152 -146 198 -188 l83 -76 -34 -12 c-79 -28 -164
-108 -211 -201 -30 -59 -16 -48 34 29 58 89 95 122 168 155 30 13 52 27 50 31
-2 5 -37 40 -79 78 -42 38 -132 120 -200 183 l-124 113 115 -112z"/>
<path d="M2941 1994 c0 -11 3 -14 6 -6 3 7 2 16 -1 19 -3 4 -6 -2 -5 -13z"/>
<path d="M2970 1904 c0 -11 59 -114 65 -114 3 0 -9 26 -27 58 -37 66 -38 68
-38 56z"/>
<path d="M780 1765 c19 -19 36 -35 39 -35 3 0 -10 16 -29 35 -19 19 -36 35
-39 35 -3 0 10 -16 29 -35z"/>
<path d="M3071 1735 c46 -71 271 -292 419 -411 138 -111 339 -259 344 -253 1
2 -1 15 -5 29 -4 16 -7 19 -8 7 -1 -21 -72 28 -291 202 -136 108 -370 331
-454 431 l-37 45 32 -50z"/>
<path d="M3812 1180 c0 -14 2 -19 5 -12 2 6 2 18 0 25 -3 6 -5 1 -5 -13z"/>
<path d="M4595 785 c-578 -104 -660 -112 -757 -75 -29 11 -73 33 -98 50 -35
23 -56 30 -94 30 l-50 0 60 -36 c32 -19 66 -42 74 -49 31 -28 127 -64 198 -75
83 -13 189 -5 442 36 345 55 359 59 378 113 13 37 23 37 -153 6z"/>
</g>
</svg>
