<?xml version="1.0" standalone="no"?>
<!DOCTYPE svg PUBLIC "-//W3C//DTD SVG 20010904//EN"
 "http://www.w3.org/TR/2001/REC-SVG-20010904/DTD/svg10.dtd">
<svg version="1.0" xmlns="http://www.w3.org/2000/svg"
 width="260.000000pt" height="260.000000pt" viewBox="0 0 260.000000 260.000000"
 preserveAspectRatio="xMidYMid meet">

<g transform="translate(0.000000,260.000000) scale(0.100000,-0.100000)"
fill="#000000" stroke="none">
<path d="M1196 1645 c-114 -40 -182 -153 -193 -317 -10 -133 33 -204 143 -237
l59 -17 -78 -7 c-116 -8 -211 -55 -263 -130 -33 -47 -52 -62 -148 -114 -61
-33 -127 -66 -146 -73 -51 -20 -107 -61 -121 -90 -16 -35 -40 -632 -26 -647
12 -11 1407 -17 1407 -6 0 6 -7 27 -15 47 -36 87 -57 355 -31 391 12 17 12 24
-1 48 -8 16 -12 31 -10 33 2 3 10 -9 17 -26 7 -16 18 -30 25 -30 7 0 89 33
183 73 223 96 342 186 358 273 7 36 5 38 -87 126 -81 78 -174 148 -245 186
-12 7 -75 59 -140 116 -65 58 -122 102 -127 99 -19 -11 -157 -237 -157 -257 0
-2 44 -32 98 -66 53 -35 112 -76 130 -92 21 -18 40 -27 52 -23 12 4 19 -1 23
-15 5 -18 0 -20 -51 -20 -63 0 -119 23 -136 55 -40 74 -43 76 -115 72 -56 -3
-76 -9 -127 -40 -32 -20 -71 -37 -84 -37 -19 0 -22 2 -11 9 22 14 0 54 -49 90
l-40 29 58 -5 c44 -4 60 -2 70 10 12 14 7 16 -32 22 -51 8 -117 52 -113 75 3
16 48 18 101 5 55 -14 23 17 -46 45 -117 48 -161 82 -123 96 9 4 50 -3 91 -16
42 -12 78 -20 81 -17 7 8 -85 53 -124 62 -26 5 -33 12 -33 31 0 15 6 24 15 24
8 0 23 9 32 20 12 14 30 20 60 20 23 0 45 5 49 11 13 22 102 2 140 -31 19 -16
39 -30 44 -30 20 0 10 86 -16 139 -59 117 -222 181 -348 136z"/>
</g>
</svg>
