<?xml version="1.0" standalone="no"?>
<!DOCTYPE svg PUBLIC "-//W3C//DTD SVG 20010904//EN"
 "http://www.w3.org/TR/2001/REC-SVG-20010904/DTD/svg10.dtd">
<svg version="1.0" xmlns="http://www.w3.org/2000/svg"
 width="860.000000pt" height="860.000000pt" viewBox="0 0 860.000000 860.000000"
 preserveAspectRatio="xMidYMid meet">

<g transform="translate(0.000000,860.000000) scale(0.100000,-0.100000)"
fill="#000000" stroke="none">
<path d="M1385 6510 c-123 -33 -211 -85 -305 -180 -140 -139 -198 -276 -207
-486 -6 -130 8 -231 50 -349 21 -62 30 -210 15 -248 -8 -18 -9 -18 -39 0 -51
30 -153 144 -192 214 -64 115 -99 240 -112 400 l-7 86 36 21 c50 29 89 112 80
168 -7 45 -21 74 -34 74 -6 0 -6 10 0 26 6 14 10 43 10 65 0 35 -2 39 -26 39
-15 0 -37 -12 -56 -32 -17 -18 -32 -28 -34 -23 -11 29 -46 76 -59 81 -32 13
-48 -17 -41 -75 4 -31 13 -68 21 -84 12 -25 12 -32 0 -50 -43 -69 -22 -157 46
-185 l41 -17 -5 -50 c-13 -144 33 -358 105 -483 45 -78 118 -163 180 -207 29
-21 55 -40 57 -42 2 -1 -12 -22 -32 -46 -22 -27 -32 -48 -28 -56 14 -22 44 -8
76 36 34 48 35 48 61 29 19 -14 19 -15 -5 -40 -23 -24 -24 -56 -1 -56 12 0 44
30 58 55 14 26 66 12 57 -14 -9 -29 13 -36 38 -13 18 16 37 20 100 21 44 0 87
3 97 6 22 7 19 23 59 -301 16 -120 25 -222 22 -225 -3 -4 -159 -11 -346 -17
-187 -6 -350 -14 -362 -18 -11 -3 -24 -15 -26 -26 -3 -12 -2 -440 3 -952 5
-512 9 -1063 10 -1224 l0 -292 32 -20 c29 -18 53 -19 357 -20 179 0 783 4
1341 10 558 5 1605 14 2325 20 2480 20 3072 28 3093 39 10 5 24 23 30 38 12
30 31 1285 33 2148 l1 470 -274 -3 -274 -4 -37 94 c-48 121 -124 245 -193 314
-60 60 -57 59 -206 46 l-78 -8 0 56 0 55 76 17 c196 45 355 171 434 342 l27
60 18 -33 c27 -53 95 -121 150 -149 66 -33 198 -44 209 -17 9 25 -9 42 -52 50
-20 4 -52 18 -71 32 -57 44 -62 68 -59 300 3 229 -3 266 -64 387 -35 69 -124
167 -186 203 -158 93 -401 62 -516 -66 -14 -15 -31 -21 -61 -21 -23 0 -76 -9
-119 -20 -292 -75 -486 -337 -448 -605 37 -255 256 -449 535 -474 l72 -6 0
-52 c-1 -29 -3 -54 -6 -57 -3 -3 -47 -10 -99 -16 -127 -16 -141 -23 -158 -85
-29 -113 -55 -185 -99 -278 l-47 -98 -79 3 -79 3 -28 80 c-43 120 -74 201
-112 290 -28 65 -38 79 -54 77 -73 -13 -153 -12 -191 1 -47 16 -57 13 -43 -13
15 -29 103 -53 175 -48 l62 4 66 -195 c37 -107 64 -198 61 -201 -5 -5 -445
-19 -452 -14 -2 1 10 21 27 45 44 60 41 79 -29 151 -33 33 -60 65 -60 69 0 4
-71 71 -157 149 -87 78 -161 151 -166 162 -6 18 -13 20 -60 14 -28 -3 -105 -8
-169 -12 l-118 -7 0 52 c0 45 2 51 21 51 42 0 146 32 219 68 55 27 95 57 150
112 113 113 160 223 160 376 0 143 -45 250 -153 362 -116 119 -221 156 -452
156 -216 0 -329 -40 -442 -156 -118 -121 -163 -226 -163 -378 0 -158 57 -281
181 -393 96 -88 212 -136 367 -153 l63 -7 -3 -46 -3 -46 -163 -11 c-90 -7
-164 -13 -166 -15 -44 -59 -268 -499 -282 -552 -5 -24 -10 -25 -107 -32 -154
-10 -160 -9 -170 45 -4 25 -19 88 -31 140 -13 52 -34 145 -46 206 -12 60 -28
118 -36 128 -12 17 -23 17 -164 7 -210 -15 -190 -20 -190 39 0 44 2 50 21 50
42 0 146 32 219 68 105 51 216 161 264 260 100 210 60 430 -109 599 l-75 75
16 31 c38 73 -11 158 -115 199 -46 17 -76 21 -166 20 -62 0 -136 -7 -170 -16
-33 -8 -114 -29 -180 -45 -66 -17 -142 -33 -169 -37 -69 -8 -45 -26 35 -25 72
0 143 15 274 57 77 24 107 28 205 29 105 0 120 -2 173 -27 44 -21 61 -35 71
-60 46 -110 -57 -165 -325 -175 -183 -7 -277 6 -422 58 -61 22 -115 38 -120
36 -5 -1 19 -18 54 -36 35 -19 66 -35 68 -37 2 -2 -24 -33 -58 -69 -128 -138
-177 -310 -136 -484 53 -225 271 -401 518 -418 l77 -6 0 -47 c0 -59 7 -56
-198 -66 l-153 -7 -42 -56 c-96 -131 -221 -221 -306 -221 -147 0 -251 183
-295 519 -9 67 -16 151 -16 186 0 61 1 63 30 68 19 4 34 17 44 36 9 16 25 32
36 36 11 3 25 15 30 26 16 29 7 135 -13 157 -11 12 -17 36 -17 66 0 66 -13 86
-55 86 -41 0 -65 -29 -65 -76 0 -28 -6 -35 -45 -54 -112 -54 -124 -216 -19
-270 16 -8 31 -16 33 -17 2 -2 3 -31 2 -65 -3 -100 17 -295 40 -388 42 -169
124 -300 214 -341 24 -11 64 -19 101 -19 89 0 166 41 270 147 48 48 86 78 89
72 7 -10 66 -402 62 -405 -1 -1 -200 -7 -442 -13 -242 -6 -470 -13 -507 -14
-38 -2 -68 -2 -68 -1 0 1 14 28 30 59 36 68 38 121 10 184 -24 52 -284 320
-348 358 -41 24 -46 25 -152 18 l-110 -7 0 55 0 55 43 7 c65 11 176 53 238 91
73 44 179 157 213 227 122 249 40 529 -201 685 -113 72 -244 102 -396 90 -161
-13 -293 -72 -403 -183 -221 -222 -213 -546 17 -760 95 -87 217 -139 364 -153
l70 -7 0 -55 0 -55 -60 -8 c-33 -4 -101 -14 -151 -22 -50 -8 -97 -15 -103 -15
-7 0 -11 20 -11 50 0 56 -15 67 -25 18 -13 -65 -15 -68 -47 -68 -29 0 -30 2
-24 33 7 38 -3 99 -15 92 -4 -3 -13 -30 -19 -60 -10 -49 -14 -55 -36 -55 -25
0 -25 0 -18 73 4 48 2 87 -7 117 l-13 45 -8 -75 c-4 -41 -13 -89 -19 -107 -9
-27 -13 -31 -32 -24 -14 6 -21 16 -19 27 2 11 6 58 9 106 5 77 2 98 -26 190
-43 146 -55 226 -48 342 19 347 252 589 608 631 63 8 85 18 75 34 -11 17 -143
12 -221 -9z m5880 -79 c121 -60 221 -204 247 -357 9 -56 9 -104 -1 -230 -12
-141 -11 -164 2 -204 9 -24 15 -46 13 -47 -1 -2 -19 13 -39 34 -63 62 -79 108
-106 295 -16 118 -93 249 -186 320 -25 18 -45 36 -45 39 0 4 20 12 45 19 25 7
44 18 42 24 -6 18 -46 19 -98 1 -47 -15 -69 -14 -69 4 0 4 23 20 50 35 28 15
47 32 44 38 -9 15 -63 1 -106 -27 -63 -42 -112 -26 -67 21 29 31 13 31 -34 -2
-31 -21 -43 -24 -65 -16 -26 9 -26 10 36 41 83 42 124 51 206 46 51 -3 86 -12
131 -34z m-2203 -65 c125 -24 124 -24 130 -104 11 -157 103 -265 251 -296 25
-6 27 -10 27 -59 0 -123 -51 -237 -150 -338 -109 -111 -251 -169 -415 -169
-102 0 -178 19 -283 71 -91 46 -159 111 -210 202 -34 59 -62 146 -62 191 0 29
6 34 78 70 139 71 279 237 297 355 13 78 14 80 48 84 77 9 221 6 289 -7z
m-3488 -30 c-35 -55 -168 -152 -289 -213 -63 -32 -195 -77 -203 -69 -8 9 46
92 90 136 99 99 244 166 371 169 l47 1 -16 -24z m166 9 c79 -15 270 -125 270
-156 0 -31 -216 59 -307 129 -36 26 -43 46 -15 38 9 -2 33 -7 52 -11z m2954
-22 c-24 -111 -153 -273 -263 -332 -67 -35 -71 -36 -71 -18 0 8 18 22 41 32
50 23 141 120 175 187 14 28 27 69 29 92 3 35 7 42 36 52 53 19 60 18 53 -13z
m-4169 -43 c25 -50 34 -96 15 -85 -19 11 -60 135 -45 135 3 0 16 -22 30 -50z
m1156 6 c90 -81 230 -145 329 -151 l55 -3 32 -63 c45 -88 60 -179 44 -270 -35
-194 -186 -353 -396 -415 -96 -28 -250 -24 -348 10 -261 89 -408 317 -357 553
11 48 11 48 53 49 125 4 450 196 514 304 9 17 19 30 21 30 2 0 26 -20 53 -44z
m5080 15 c-43 -59 -161 -146 -287 -209 -82 -41 -191 -78 -201 -68 -12 11 49
96 111 154 96 89 235 149 354 151 l43 1 -20 -29z m241 -11 c87 -32 212 -120
195 -136 -25 -25 -337 127 -337 165 0 12 74 -3 142 -29z m-1756 12 c6 -4 15
-23 19 -42 18 -82 73 -158 140 -190 45 -22 61 -50 28 -50 -32 0 -103 42 -133
78 -32 39 -63 111 -74 175 -7 36 -2 44 20 29z m-694 -76 c-33 -69 -91 -140
-141 -169 -36 -21 -36 -21 -16 27 10 24 22 36 35 36 14 0 33 20 60 62 22 33
40 65 40 70 0 11 43 48 49 43 2 -2 -10 -33 -27 -69z m2301 42 c82 -81 242
-158 342 -163 l60 -3 32 -63 c160 -314 -89 -679 -482 -706 -325 -21 -607 234
-582 527 7 87 14 100 46 100 69 0 223 67 357 156 75 50 184 153 184 175 0 16
10 10 43 -23z m-6229 -38 c-20 -56 -40 -68 -30 -18 7 35 35 83 43 74 3 -3 -3
-28 -13 -56z m4724 -17 c81 -99 92 -139 17 -66 -36 35 -75 90 -75 106 0 18 21
3 58 -40z m-1973 -54 c124 -12 264 -4 373 22 45 11 90 18 100 15 21 -7 101
-83 130 -123 l20 -28 -122 -1 c-100 -1 -132 -5 -181 -24 -42 -15 -79 -22 -125
-21 -36 1 -78 -2 -95 -7 -19 -5 -45 -4 -73 4 -112 34 -307 38 -385 8 -9 -3
-17 -2 -17 4 0 19 91 131 130 160 40 29 41 29 92 15 29 -7 98 -18 153 -24z
m-2715 -33 c0 -49 -7 -76 -21 -76 -5 0 -3 12 3 26 9 19 9 33 1 54 -11 28 -8
40 9 40 4 0 8 -20 8 -44z m-82 14 c40 -25 37 -46 -6 -43 -45 4 -48 -14 -8 -38
55 -32 43 -73 -14 -49 -48 20 -63 95 -28 137 14 17 17 16 56 -7z m1992 -192
c0 -32 -3 -39 -16 -34 -9 3 -20 6 -25 6 -15 0 -10 42 7 61 23 26 34 15 34 -33z
m1430 39 c32 -16 35 -35 15 -102 -21 -73 -91 -148 -153 -164 -82 -22 -163 22
-205 111 -38 79 -43 114 -18 127 70 38 306 56 361 28z m-650 -25 l65 -18 -1
-50 c-2 -64 -31 -121 -88 -171 -151 -133 -356 -38 -356 164 0 51 3 64 19 73
61 32 246 34 361 2z m240 -47 c0 -85 66 -188 147 -229 36 -18 118 -21 160 -5
50 18 102 61 133 107 l30 45 0 -50 c0 -28 -9 -79 -19 -112 -52 -168 -204 -302
-399 -352 -186 -47 -396 4 -535 131 -67 61 -109 124 -136 207 -30 88 -26 102
12 52 91 -120 261 -128 382 -18 60 56 92 121 99 201 3 29 5 54 6 56 0 1 27 2
60 2 l60 0 0 -35z m-999 -54 c33 -27 22 -32 -46 -21 -63 10 -78 7 -73 -18 2
-12 22 -19 68 -27 61 -9 65 -12 68 -39 3 -26 2 -28 -25 -23 -15 3 -49 13 -75
23 -37 14 -50 16 -59 7 -16 -16 2 -39 39 -47 15 -3 34 -10 42 -16 13 -9 12
-12 -4 -25 -25 -19 -66 -19 -92 0 -28 19 -48 68 -40 98 21 84 138 136 197 88z
m2665 -698 c-8 -67 -35 -322 -44 -418 l-7 -80 -77 -3 c-59 -2 -78 0 -78 10 0
22 -50 392 -54 405 -3 6 4 29 15 50 11 21 18 46 15 55 -5 21 15 24 142 27 l94
1 -6 -47z m-365 -69 c13 -12 14 -26 8 -67 -5 -29 -15 -121 -24 -205 -8 -85
-17 -158 -21 -163 -3 -5 -38 -9 -78 -9 l-72 0 -38 243 c-21 133 -40 254 -43
269 l-5 27 123 3 124 3 5 -43 c3 -23 13 -49 21 -58z m482 23 c29 -29 86 -84
127 -122 41 -39 104 -103 139 -143 l64 -73 -55 -53 -55 -53 -159 -5 c-87 -3
-161 -4 -164 -2 -3 1 3 101 13 221 20 238 25 283 33 283 3 0 29 -24 57 -53z
m-3533 11 c0 -37 -31 -552 -33 -554 -1 -2 -76 -4 -165 -6 -156 -3 -163 -2
-167 17 -5 24 -66 482 -68 510 -2 17 5 21 40 23 36 3 42 0 49 -20 3 -13 29
-80 56 -150 47 -121 51 -128 77 -128 26 0 29 5 59 103 17 56 39 128 47 159 15
55 17 57 53 61 20 2 40 4 45 5 4 1 7 -8 7 -20z m-176 -113 c-16 -63 -31 -115
-35 -115 -7 0 -99 205 -99 220 0 8 148 19 159 13 2 -2 -9 -55 -25 -118z m379
-17 c70 -73 140 -152 154 -176 35 -59 29 -114 -22 -188 l-37 -54 -135 0 -135
0 6 68 c3 37 8 139 11 227 6 174 13 255 23 255 3 0 64 -60 135 -132z m1806 80
c0 -18 -10 -127 -22 -243 l-22 -210 -81 -3 -82 -3 -5 33 c-3 18 -9 56 -12 83
-3 28 -13 98 -22 157 -14 97 -14 109 1 129 9 13 16 38 16 56 l0 33 115 0 115
0 -1 -32z m3177 -80 c-4 -62 -9 -152 -12 -200 l-6 -86 -132 -7 c-72 -4 -153
-5 -181 -3 l-49 3 -27 185 c-15 102 -25 188 -22 193 2 4 21 7 42 7 l37 0 54
-141 c29 -77 59 -146 66 -154 8 -7 23 -11 34 -8 20 5 29 31 91 246 l22 77 45
0 45 0 -7 -112z m-3558 57 c2 -22 10 -47 18 -56 13 -15 13 -31 0 -135 -8 -66
-18 -147 -21 -180 l-7 -62 -45 -6 c-25 -3 -63 -6 -83 -6 l-38 0 -16 93 c-16
91 -55 338 -59 367 -2 12 18 16 103 21 154 8 144 10 148 -36z m3412 34 c0 -10
-45 -185 -56 -219 -3 -8 -28 37 -55 99 -38 88 -47 116 -37 122 20 13 148 11
148 -2z m-2265 -181 c12 -90 25 -184 28 -210 l6 -46 -92 -7 c-51 -4 -115 -5
-144 -3 l-51 3 17 35 c9 19 57 119 106 223 56 118 92 184 98 178 5 -5 20 -83
32 -173z m2528 120 c46 -65 119 -203 142 -269 13 -35 12 -37 -8 -43 -12 -3
-64 -6 -116 -6 l-94 0 6 98 c4 53 7 139 7 190 0 51 4 92 9 92 6 0 30 -28 54
-62z m-2188 42 c3 -5 1 -10 -4 -10 -6 0 -11 5 -11 10 0 6 2 10 4 10 3 0 8 -4
11 -10z m10 -67 c3 -10 1 -19 -4 -21 -16 -5 -13 -44 4 -66 19 -25 19 -51 0
-80 -17 -25 -11 -56 10 -56 16 0 23 -19 27 -75 3 -38 2 -40 -28 -43 -29 -3
-31 -1 -27 22 4 18 0 28 -11 32 -15 6 -16 20 -10 123 5 97 10 167 13 179 3 9
20 -1 26 -15z m-1055 -66 c0 -12 11 -67 24 -122 13 -55 27 -119 31 -142 l7
-43 -51 0 c-49 0 -51 1 -51 28 0 70 25 310 32 306 4 -3 8 -15 8 -27z m2660
-102 c6 -50 13 -100 15 -111 4 -20 0 -22 -63 -26 -37 -3 -69 -4 -71 -2 -2 2
14 38 36 81 22 43 46 95 52 116 7 21 14 37 16 35 2 -2 9 -44 15 -93z m-3012
63 c-2 -6 -10 -14 -16 -16 -7 -2 -10 2 -6 12 7 18 28 22 22 4z m-13 -234 c-37
-55 -38 -55 -30 6 4 30 17 71 29 90 l21 35 3 -46 c2 -37 -2 -55 -23 -85z
m4315 -46 c0 -29 -4 -240 -10 -468 -5 -228 -14 -766 -20 -1195 -6 -429 -13
-790 -16 -802 -3 -16 -13 -23 -37 -27 -17 -3 -664 -10 -1437 -16 -773 -5
-1558 -12 -1745 -15 -187 -3 -680 -7 -1095 -10 -415 -3 -1200 -10 -1744 -16
-544 -5 -991 -8 -993 -6 -3 4 -16 820 -28 1885 l-7 542 79 0 c43 0 344 7 668
15 325 8 777 19 1005 25 228 6 573 15 765 20 193 6 712 19 1155 30 443 11 891
22 995 25 260 8 1214 32 1760 45 248 6 482 12 520 13 39 2 96 4 128 5 l57 2 0
-52z"/>
<path d="M5122 6013 c2 -50 7 -68 17 -68 26 0 35 30 25 81 -6 35 -14 50 -27
52 -16 3 -18 -3 -15 -65z"/>
<path d="M4659 6043 c-5 -28 4 -130 12 -137 25 -27 42 64 23 127 -5 17 -33 24
-35 10z"/>
<path d="M4733 5798 c-39 -43 -49 -78 -21 -78 15 0 62 80 51 91 -6 6 -17 1
-30 -13z"/>
<path d="M4860 5760 c0 -29 4 -40 15 -40 16 0 20 35 9 64 -11 29 -24 16 -24
-24z"/>
<path d="M4920 5776 c0 -35 10 -56 26 -56 17 0 18 20 2 55 -14 32 -28 32 -28
1z"/>
<path d="M4776 5758 c-3 -17 -2 -36 3 -41 16 -16 31 3 31 39 0 44 -25 46 -34
2z"/>
<path d="M4975 5781 c-11 -18 3 -61 20 -61 18 0 19 17 1 49 -9 16 -15 20 -21
12z"/>
<path d="M5040 5766 c0 -28 24 -53 35 -36 8 13 -13 60 -27 60 -4 0 -8 -11 -8
-24z"/>
<path d="M5095 5780 c-4 -6 1 -22 10 -36 16 -24 15 -26 -2 -40 -66 -50 -183
-78 -268 -63 -84 15 -89 15 -92 -1 -6 -28 36 -79 86 -105 68 -34 153 -35 202
-2 37 25 50 63 24 73 -11 5 -5 11 24 26 54 26 77 53 62 72 -6 7 -9 20 -5 29 6
17 -12 57 -26 57 -5 0 -12 -5 -15 -10z m-88 -195 c-21 -19 -40 -25 -73 -25
-40 0 -114 22 -114 34 0 2 26 2 58 -1 31 -2 75 0 97 5 60 15 63 14 32 -13z"/>
<path d="M1866 5994 c-12 -31 -6 -101 9 -114 35 -29 63 58 35 111 -13 23 -36
25 -44 3z"/>
<path d="M1292 5908 c3 -65 5 -73 23 -73 17 0 20 8 23 49 4 68 -4 96 -29 96
-18 0 -20 -5 -17 -72z"/>
<path d="M1722 5695 c-48 -35 -114 -40 -192 -16 -56 18 -67 19 -79 6 -12 -12
-12 -21 -2 -57 27 -89 90 -138 177 -138 91 0 153 53 175 148 19 81 -13 104
-79 57z m-146 -76 c48 -9 107 -3 158 17 17 7 17 5 2 -24 -47 -91 -165 -98
-225 -13 -26 36 -26 45 -3 36 9 -3 40 -11 68 -16z"/>
<path d="M7062 5968 c-17 -17 -15 -103 3 -118 35 -29 59 41 35 104 -11 29 -20
32 -38 14z"/>
<path d="M6482 5878 c3 -65 5 -73 23 -73 17 0 20 8 23 49 4 68 -4 96 -29 96
-18 0 -20 -5 -17 -72z"/>
<path d="M6922 5670 c-51 -43 -148 -48 -231 -14 -30 12 -37 12 -49 1 -33 -34
24 -149 91 -180 74 -36 175 -14 222 47 32 42 53 121 39 144 -16 24 -45 25 -72
2z m-160 -82 c44 -11 113 -3 160 16 29 13 10 -30 -29 -64 -57 -50 -145 -37
-192 29 -26 36 -26 45 -3 36 9 -3 38 -11 64 -17z"/>
<path d="M3793 5943 c-20 -7 -17 -107 3 -124 25 -21 45 14 38 65 -7 45 -22 66
-41 59z"/>
<path d="M3210 5845 c0 -67 2 -75 19 -75 23 0 31 19 31 71 0 47 -14 79 -35 79
-12 0 -15 -16 -15 -75z"/>
<path d="M3630 5617 c-45 -76 -178 -90 -247 -25 -31 29 -41 16 -32 -43 17
-109 116 -177 218 -149 48 13 101 62 101 95 0 32 -27 39 -48 14 -40 -49 -56
-59 -97 -59 -27 0 -54 8 -75 23 -43 29 -52 51 -15 37 41 -16 116 -11 160 9 50
22 97 76 93 105 -5 35 -36 31 -58 -7z"/>
<path d="M6034 4079 c-8 -9 -27 -53 -40 -96 -30 -96 -114 -507 -114 -556 0
-20 -9 -83 -20 -139 -11 -57 -20 -129 -20 -160 0 -50 4 -62 30 -92 37 -42 109
-80 125 -66 11 9 17 74 31 350 3 58 7 111 9 118 4 9 32 12 117 10 l113 -3 7
-110 c12 -200 17 -233 45 -266 48 -57 133 -104 146 -81 5 8 -14 174 -38 341
-11 72 -12 108 -5 115 14 14 13 21 -13 53 -24 28 -51 99 -107 278 -53 168
-160 325 -220 323 -17 -1 -37 -9 -46 -19z m100 -87 c11 -22 96 -337 96 -357 0
-2 -6 -2 -14 1 -12 4 -82 -16 -140 -41 -16 -7 -18 -4 -12 21 3 16 13 97 21
179 16 164 25 225 31 225 2 0 10 -13 18 -28z"/>
<path d="M6742 4035 c-11 -14 -35 -70 -53 -123 -17 -53 -43 -122 -56 -152 -28
-64 -99 -308 -113 -389 -34 -202 -40 -238 -40 -253 0 -27 46 -74 105 -104 66
-34 70 -31 80 60 30 277 111 731 126 704 3 -7 15 -49 24 -93 10 -44 28 -123
41 -175 13 -52 33 -140 45 -195 25 -119 46 -163 96 -204 39 -32 102 -66 109
-58 6 5 40 143 48 192 16 97 138 521 155 538 8 8 44 -103 60 -188 13 -67 31
-291 31 -386 0 -65 4 -82 26 -115 25 -38 82 -93 97 -94 4 0 7 92 7 205 0 232
-10 304 -64 437 -39 97 -86 253 -86 286 0 21 -73 112 -90 112 -16 0 -91 -174
-175 -408 -54 -150 -91 -239 -96 -230 -4 7 -15 42 -24 78 -55 217 -170 522
-210 560 l-23 21 -20 -26z"/>
<path d="M5374 4019 c-66 -8 -74 -13 -75 -52 -1 -18 -4 -43 -8 -57 l-7 -25
-24 32 c-13 18 -40 44 -61 59 -42 29 -24 29 -359 1 -193 -16 -220 -21 -220
-41 0 -21 65 -76 101 -86 18 -6 66 -10 106 -10 39 0 74 -3 76 -7 2 -5 0 -53
-5 -108 -29 -366 -38 -513 -38 -608 l0 -107 42 -41 c63 -61 148 -99 148 -66 0
6 1 179 2 382 1 204 -2 412 -6 463 l-8 92 53 1 c30 0 81 4 114 9 33 4 64 4 68
0 5 -4 -1 -73 -13 -153 -23 -158 -32 -492 -16 -597 7 -46 15 -61 48 -93 21
-20 58 -47 81 -58 37 -20 51 -21 147 -15 105 6 260 46 260 67 0 17 -78 85
-131 114 l-53 28 -89 -17 c-48 -10 -90 -16 -94 -13 -3 3 -8 81 -11 173 l-5
167 34 -7 c19 -5 99 -12 179 -17 80 -5 162 -11 183 -15 31 -5 37 -3 37 12 0
22 -74 94 -132 128 -61 35 -158 49 -229 32 l-56 -13 -7 159 c-4 87 -4 163 -1
167 3 5 22 7 43 5 20 -2 96 -11 167 -19 168 -19 215 -19 215 -1 0 21 -48 74
-81 92 -60 30 -275 55 -375 43z"/>
<path d="M3829 3979 c-81 -10 -141 -30 -147 -47 -2 -7 11 -27 30 -46 32 -32
38 -34 131 -41 54 -4 114 -5 133 -2 l36 6 -6 -37 c-16 -103 -26 -277 -25 -453
0 -108 -3 -231 -7 -273 -7 -75 -6 -78 22 -108 36 -38 112 -88 135 -88 15 0 16
21 13 258 -2 141 -8 318 -13 392 -6 74 -13 174 -17 223 l-7 87 74 2 c41 2 95
2 122 1 63 -3 62 16 -1 77 -35 34 -60 49 -88 53 -54 9 -304 6 -385 -4z"/>
<path d="M3378 3934 c-4 -3 -14 -7 -24 -8 -41 -6 -62 -182 -58 -481 1 -88 2
-236 3 -329 l1 -169 36 -34 c39 -36 93 -68 101 -59 8 8 7 237 -2 344 -4 50 -4
92 0 92 20 0 70 -49 118 -118 92 -130 201 -234 280 -267 58 -24 56 1 -6 58
-30 29 -78 84 -107 122 -90 120 -119 152 -176 196 l-55 42 28 18 c97 64 190
200 200 293 11 90 -78 210 -199 271 -64 32 -125 45 -140 29z m144 -86 c115
-34 103 -153 -33 -323 l-64 -80 -6 85 c-4 47 -10 140 -14 208 l-7 122 42 0
c24 0 60 -5 82 -12z"/>
<path d="M2367 3923 c-4 -3 -24 -7 -44 -8 -34 -1 -38 -4 -45 -35 -13 -62 -29
-343 -24 -410 3 -36 11 -156 17 -268 14 -230 18 -243 96 -292 26 -17 51 -30
55 -30 12 0 10 92 -7 255 -9 81 -14 149 -12 151 2 2 17 -1 33 -8 26 -9 37 -7
85 16 78 40 143 93 168 137 12 22 23 39 24 39 1 0 3 -91 5 -203 2 -111 7 -218
13 -238 6 -24 24 -49 52 -71 63 -52 78 -58 122 -48 21 5 72 12 114 15 80 8
141 27 141 44 0 18 -67 86 -104 106 -31 17 -40 17 -105 5 -43 -8 -75 -10 -80
-4 -5 5 -12 82 -16 172 l-8 163 74 -6 c41 -4 110 -11 154 -16 105 -12 115 -12
115 6 0 19 -65 81 -118 112 -39 23 -51 25 -120 20 -42 -3 -84 -8 -93 -12 -18
-7 -22 17 -35 190 l-7 91 222 -4 c155 -3 221 -1 221 6 0 17 -60 81 -89 96 -21
11 -62 11 -221 1 -232 -14 -247 -18 -219 -63 7 -11 8 -45 2 -102 l-8 -85 -31
65 c-55 117 -122 174 -240 204 -69 18 -78 19 -87 9z m173 -102 c56 -26 73
-148 32 -227 -34 -66 -171 -171 -192 -147 -7 8 -30 274 -30 353 l0 46 83 -7
c45 -4 93 -12 107 -18z"/>
<path d="M1490 3889 c-30 -4 -104 -15 -165 -24 -238 -34 -268 -43 -246 -69 8
-10 11 -26 6 -43 -25 -98 -37 -245 -42 -515 -6 -337 -9 -322 74 -377 47 -32
48 -32 143 -26 52 4 140 18 194 31 54 13 107 24 117 24 10 0 21 5 25 11 8 14
-50 74 -103 106 l-43 25 -89 -26 c-48 -14 -111 -28 -140 -32 l-51 -7 0 65 c0
36 -3 112 -6 170 l-7 105 134 1 c136 1 298 27 322 51 14 14 -20 53 -82 92 -46
29 -79 36 -96 20 -15 -14 -167 -59 -226 -67 l-52 -7 6 93 c4 51 7 126 7 166
l0 73 118 4 c156 5 382 37 382 54 0 19 -94 113 -111 112 -8 -1 -39 -5 -69 -10z"/>
<path d="M2061 3867 c-15 -19 -58 -118 -97 -225 -19 -52 -40 -105 -48 -120
l-13 -25 -15 24 c-99 160 -147 230 -170 243 -58 35 -44 -15 66 -233 l74 -149
-52 -103 c-28 -57 -73 -141 -99 -185 -26 -45 -47 -87 -47 -93 0 -37 103 -120
134 -108 17 7 127 216 151 286 9 29 18 51 20 49 23 -28 109 -156 124 -185 23
-47 84 -104 140 -133 39 -19 71 -26 71 -14 0 5 -81 125 -242 357 l-56 82 24
83 c34 119 94 380 94 411 0 44 -35 66 -59 38z"/>
<path d="M3340 2733 c-428 -16 -702 -40 -972 -87 -112 -19 -286 -47 -388 -61
-185 -26 -300 -50 -460 -98 -47 -14 -132 -35 -190 -47 -118 -24 -227 -57 -235
-71 -8 -13 5 -12 119 11 56 10 151 28 211 39 61 11 184 35 275 55 101 21 248
43 380 56 118 11 287 32 375 45 324 48 809 65 1645 60 587 -4 935 -16 1165
-40 77 -8 223 -22 325 -30 102 -8 284 -26 405 -39 121 -14 274 -27 340 -31
252 -13 608 -54 826 -95 29 -6 66 -10 83 -9 27 1 24 3 -19 15 -187 52 -722
154 -885 169 -41 4 -181 22 -310 40 -129 19 -334 43 -455 55 -121 11 -254 25
-295 31 -180 25 -644 39 -1250 37 -338 -1 -649 -3 -690 -5z"/>
<path d="M1691 6511 c-24 -15 -4 -27 69 -40 199 -36 399 -221 478 -443 37
-106 37 -239 -2 -363 -53 -174 -46 -290 25 -389 58 -82 157 -133 173 -90 8 22
1 31 -43 54 -77 39 -130 129 -131 222 0 63 20 170 46 238 25 70 23 208 -5 300
-41 134 -96 225 -196 326 -100 101 -187 153 -296 179 -73 17 -98 18 -118 6z"/>
<path d="M3455 6403 c-16 -2 -79 -13 -139 -24 -60 -10 -147 -19 -193 -19 -82
0 -110 -13 -55 -25 58 -12 180 -5 272 16 67 15 139 23 245 25 83 2 155 4 160
5 6 1 -17 7 -50 15 -57 12 -174 16 -240 7z"/>
<path d="M2970 6336 c0 -11 73 -36 153 -52 91 -19 161 -16 447 15 151 16 161
19 115 26 -32 5 -116 2 -235 -9 -102 -9 -208 -16 -237 -16 -47 0 -179 21 -225
35 -10 4 -18 4 -18 1z"/>
<path d="M2095 5373 c24 -97 132 -238 176 -231 32 4 30 30 -2 45 -39 19 -94
84 -129 153 -32 63 -58 81 -45 33z"/>
<path d="M2030 5318 c0 -24 30 -92 52 -119 12 -15 51 -39 62 -39 14 0 4 25
-23 59 -15 20 -39 55 -52 78 -27 48 -39 54 -39 21z"/>
</g>
</svg>
