<?xml version="1.0" standalone="no"?>
<!DOCTYPE svg PUBLIC "-//W3C//DTD SVG 20010904//EN"
 "http://www.w3.org/TR/2001/REC-SVG-20010904/DTD/svg10.dtd">
<svg version="1.0" xmlns="http://www.w3.org/2000/svg"
 width="1600.000000pt" height="1136.000000pt" viewBox="0 0 1600.000000 1136.000000"
 preserveAspectRatio="xMidYMid meet">

<g transform="translate(0.000000,1136.000000) scale(0.100000,-0.100000)"
fill="#000000" stroke="none">
<path d="M0 5680 l0 -5680 1240 0 c1170 0 1240 1 1249 17 9 17 10 17 16 1 7
-17 217 -18 4214 -18 3352 0 4210 3 4220 12 11 10 14 10 18 1 4 -10 518 -13
2524 -13 l2519 0 0 5680 0 5680 -381 0 -382 0 6 -36 c5 -30 3 -36 -16 -43 -35
-14 -77 13 -77 49 l0 30 -3932 0 c-3880 0 -3931 0 -3914 -19 21 -23 18 -54 -7
-59 -19 -4 -42 41 -33 65 4 11 -39 13 -236 13 l-241 0 6 -35 c5 -32 3 -37 -20
-46 -37 -14 -73 12 -73 51 l0 30 -3350 0 -3350 0 0 -5680z m15758 5658 c17
-17 15 -48 -4 -55 -19 -7 -31 4 -39 40 -6 22 -4 27 12 27 10 0 24 -5 31 -12z
m-15012 -19 c7 -12 -15 -31 -28 -23 -4 3 -8 12 -8 20 0 17 26 19 36 3z m8447
4 c9 -9 -13 -34 -24 -27 -14 8 -11 34 4 34 8 0 17 -3 20 -7z m-5353 -62 c0
-14 -18 -23 -30 -16 -6 4 -8 11 -5 16 8 12 35 12 35 0z m8445 0 c7 -12 -12
-24 -25 -16 -11 7 -4 25 10 25 5 0 11 -4 15 -9z m-11790 -22 c10 -15 -1 -23
-20 -15 -9 3 -13 10 -10 16 8 13 22 13 30 -1z m8447 -4 c0 -5 -5 -11 -11 -13
-6 -2 -11 4 -11 13 0 9 5 15 11 13 6 -2 11 -8 11 -13z m-2482 -60 c0 -16 -27
-32 -37 -21 -7 7 16 36 28 36 5 0 9 -7 9 -15z m8450 1 c0 -21 -20 -30 -33 -17
-9 9 -8 14 3 21 21 14 30 12 30 -4z m-3063 -61 c-14 -15 -28 0 -20 22 4 10 9
11 19 2 10 -8 11 -14 1 -24z m-8446 10 c-1 -15 -24 -12 -29 3 -3 9 2 13 12 10
10 -1 17 -7 17 -13z m4114 -195 c0 -7 -6 -15 -12 -17 -8 -3 -13 4 -13 17 0 13
5 20 13 18 6 -3 12 -11 12 -18z m8450 0 c0 -7 -6 -15 -12 -17 -8 -3 -13 4 -13
17 0 13 5 20 13 18 6 -3 12 -11 12 -18z m-12684 -3 c-1 -12 -15 -9 -19 4 -3 6
1 10 8 8 6 -3 11 -8 11 -12z m8457 2 c-2 -6 -8 -10 -13 -10 -5 0 -11 4 -13 10
-2 6 4 11 13 11 9 0 15 -5 13 -11z m-10108 -9 c0 -5 -7 -10 -15 -10 -8 0 -15
5 -15 10 0 6 7 10 15 10 8 0 15 -4 15 -10z m2345 -8 c0 -18 -20 -15 -23 4 -3
10 1 15 10 12 7 -3 13 -10 13 -16z m6105 8 c0 -5 -7 -10 -15 -10 -8 0 -15 5
-15 10 0 6 7 10 15 10 8 0 15 -4 15 -10z m2345 -20 c-5 -8 -11 -8 -17 -2 -6 6
-7 16 -3 22 5 8 11 8 17 2 6 -6 7 -16 3 -22z m-10005 -50 c0 -4 -7 -10 -15
-13 -16 -7 -29 8 -20 23 6 10 35 2 35 -10z m2912 5 c0 -5 -5 -11 -11 -13 -6
-2 -11 4 -11 13 0 9 5 15 11 13 6 -2 11 -8 11 -13z m1676 3 c-6 -18 -28 -21
-28 -4 0 9 7 16 16 16 9 0 14 -5 12 -12z m3858 1 c8 -14 -18 -31 -30 -19 -9 9
0 30 14 30 5 0 12 -5 16 -11z m2915 -12 c-13 -13 -26 -3 -16 12 3 6 11 8 17 5
6 -4 6 -10 -1 -17z m1679 14 c0 -14 -18 -23 -30 -16 -6 4 -8 11 -5 16 8 12 35
12 35 0z m-14240 -26 c0 -8 -4 -15 -10 -15 -5 0 -10 7 -10 15 0 8 5 15 10 15
6 0 10 -7 10 -15z m8450 0 c0 -8 -4 -15 -10 -15 -5 0 -10 7 -10 15 0 8 5 15
10 15 6 0 10 -7 10 -15z m-2584 -20 c19 -29 12 -45 -21 -45 -37 0 -69 42 -48
63 15 16 53 6 69 -18z m8448 3 c24 -33 20 -48 -12 -48 -33 0 -67 32 -59 55 9
23 53 18 71 -7z m-14784 3 c0 -5 -6 -14 -14 -20 -16 -13 -32 2 -21 19 8 12 35
13 35 1z m8450 -6 c0 -8 -9 -15 -20 -15 -11 0 -20 7 -20 15 0 8 9 15 20 15 11
0 20 -7 20 -15z m-2447 -36 c-17 -17 -37 -1 -22 17 8 10 15 12 23 4 7 -7 7
-13 -1 -21z m8460 5 c-5 -15 -25 -19 -36 -7 -11 10 13 32 28 27 8 -3 11 -12 8
-20z m-11261 -31 c24 -22 23 -35 -4 -31 -15 2 -24 11 -26 26 -4 26 5 28 30 5z
m8452 2 c18 -13 15 -35 -5 -35 -16 0 -41 29 -34 40 8 13 16 12 39 -5z m-6234
-20 c0 -8 -4 -15 -9 -15 -13 0 -22 16 -14 24 11 11 23 6 23 -9z m8447 -11 c-9
-9 -28 6 -21 18 4 6 10 6 17 -1 6 -6 8 -13 4 -17z m-12197 -43 c0 -11 -26 -22
-34 -14 -12 12 -5 23 14 23 11 0 20 -4 20 -9z m5504 -38 c3 -27 8 -92 12 -145
5 -83 4 -98 -8 -98 -12 0 -16 21 -22 92 -9 127 -8 198 3 198 5 0 12 -21 15
-47z m212 -106 c-7 -75 -15 -140 -19 -143 -19 -19 -21 19 -10 138 14 144 19
166 33 152 5 -5 4 -63 -4 -147z m2732 141 c-3 -7 -11 -13 -18 -13 -7 0 -15 6
-17 13 -3 7 4 12 17 12 13 0 20 -5 18 -12z m-3144 -140 c15 -68 30 -133 33
-145 4 -16 1 -23 -9 -23 -11 0 -23 35 -42 125 -16 69 -30 134 -33 145 -4 13 0
20 9 20 11 0 23 -35 42 -122z m642 80 c-16 -87 -65 -253 -75 -256 -15 -5 -14
38 3 90 8 24 22 75 31 113 19 79 22 85 37 85 7 0 8 -12 4 -32z m-876 -41 c0
-7 22 -67 49 -132 27 -66 46 -125 44 -133 -8 -21 -26 11 -77 138 -50 124 -54
140 -31 140 8 0 15 -6 15 -13z m8451 0 c-1 -12 -15 -9 -19 4 -3 6 1 10 8 8 6
-3 11 -8 11 -12z m-12417 -28 c-3 -5 -10 -7 -15 -3 -5 3 -7 10 -3 15 3 5 10 7
15 3 5 -3 7 -10 3 -15z m5056 9 c1 -24 -113 -267 -121 -262 -16 9 -10 32 29
116 22 46 47 100 56 121 17 36 36 49 36 25z m3400 -2 c0 -11 -19 -15 -25 -6
-3 5 1 10 9 10 9 0 16 -2 16 -4z m-7380 -66 c-21 -14 -30 -12 -37 6 -9 23 19
37 37 18 13 -13 13 -16 0 -24z m8456 1 c-10 -16 -36 -13 -43 5 -8 22 18 37 36
20 7 -8 10 -19 7 -25z m-6066 15 c0 -8 -4 -18 -10 -21 -5 -3 -10 3 -10 14 0
12 5 21 10 21 6 0 10 -6 10 -14z m8450 -7 c0 -5 -7 -9 -15 -9 -15 0 -20 12 -9
23 8 8 24 -1 24 -14z m-14620 -14 c0 -8 -4 -15 -10 -15 -5 0 -10 7 -10 15 0 8
5 15 10 15 6 0 10 -7 10 -15z m1238 -2 c-4 -22 -48 -31 -48 -10 0 19 10 27 32
27 13 0 18 -6 16 -17z m6918 -19 c-4 -12 -10 -14 -17 -7 -5 5 -7 17 -3 27 4
12 10 14 17 7 5 -5 7 -17 3 -27z m294 21 c0 -8 -4 -15 -10 -15 -5 0 -10 7 -10
15 0 8 5 15 10 15 6 0 10 -7 10 -15z m1238 -2 c-4 -22 -48 -31 -48 -10 0 19
10 27 32 27 13 0 18 -6 16 -17z m-9978 -8 c0 -8 -7 -15 -15 -15 -8 0 -15 7
-15 15 0 8 7 15 15 15 8 0 15 -7 15 -15z m6812 -92 c91 -152 92 -153 74 -153
-22 0 -169 242 -153 252 6 4 13 8 14 8 0 0 30 -48 65 -107z m1438 65 c0 -7
-36 -66 -80 -132 -58 -86 -81 -114 -86 -102 -4 11 19 56 70 131 71 107 96 134
96 103z m-8392 -9 c-2 -6 -8 -10 -13 -10 -5 0 -11 4 -13 10 -2 6 4 11 13 11 9
0 15 -5 13 -11z m8450 0 c-2 -6 -8 -10 -13 -10 -5 0 -11 4 -13 10 -2 6 4 11
13 11 9 0 15 -5 13 -11z m-8298 -19 c0 -5 -4 -10 -10 -10 -5 0 -10 5 -10 10 0
6 5 10 10 10 6 0 10 -4 10 -10z m1785 1 c7 -12 -12 -24 -25 -16 -11 7 -4 25
10 25 5 0 11 -4 15 -9z m6665 -1 c0 -5 -4 -10 -10 -10 -5 0 -10 5 -10 10 0 6
5 10 10 10 6 0 10 -4 10 -10z m1785 -1 c10 -15 -1 -23 -20 -15 -9 3 -13 10
-10 16 8 13 22 13 30 -1z m-1140 -49 c-5 -8 -11 -8 -17 -2 -6 6 -7 16 -3 22 5
8 11 8 17 2 6 -6 7 -16 3 -22z m-8445 4 c0 -17 -22 -14 -28 4 -2 7 3 12 12 12
9 0 16 -7 16 -16z m3660 -4 c0 -5 -7 -10 -15 -10 -8 0 -15 5 -15 10 0 6 7 10
15 10 8 0 15 -4 15 -10z m8450 0 c0 -5 -9 -10 -21 -10 -11 0 -17 5 -14 10 3 6
13 10 21 10 8 0 14 -4 14 -10z m-6180 -47 c12 -16 38 -46 58 -68 77 -84 102
-117 97 -126 -11 -17 -22 -9 -91 73 -38 45 -79 93 -91 106 -13 14 -23 29 -23
33 0 19 30 8 50 -18z m-4815 -3 c3 -5 -1 -10 -9 -10 -9 0 -16 5 -16 10 0 6 4
10 9 10 6 0 13 -4 16 -10z m8445 -6 c0 -8 -4 -12 -10 -9 -5 3 -10 10 -10 16 0
5 5 9 10 9 6 0 10 -7 10 -16z m-3220 -9 c0 -8 -7 -15 -15 -15 -16 0 -20 12 -8
23 11 12 23 8 23 -8z m1428 6 c-8 -22 -191 -220 -199 -215 -15 9 -10 20 27 60
19 21 61 67 92 101 50 54 90 81 80 54z m7022 -12 c0 -5 -4 -9 -10 -9 -5 0 -10
7 -10 16 0 8 5 12 10 9 6 -3 10 -10 10 -16z m-7755 -13 c332 -72 599 -287 744
-597 114 -242 130 -523 46 -772 -19 -56 -36 -107 -38 -113 -1 -6 -11 -23 -20
-38 -10 -15 -15 -32 -11 -39 4 -7 4 -9 -1 -5 -11 11 -47 -50 -39 -65 4 -7 4
-9 -1 -5 -8 8 -61 -61 -57 -75 1 -4 -1 -6 -5 -5 -5 1 -48 -39 -98 -88 -49 -50
-114 -105 -142 -124 -29 -18 -53 -37 -53 -42 0 -5 -4 -7 -9 -4 -10 7 -33 -19
-55 -61 -13 -27 -76 -398 -76 -450 0 -11 -75 -13 -413 -13 l-412 0 -32 221
c-25 165 -38 230 -53 255 -12 18 -54 55 -93 81 -40 26 -112 88 -162 138 -49
49 -94 88 -98 87 -5 -1 -6 2 -2 8 4 6 -5 24 -18 40 -75 89 -153 282 -183 450
-43 246 21 549 157 747 18 25 32 52 32 59 0 7 4 11 8 9 4 -3 15 8 24 23 10 15
48 56 84 91 36 36 58 62 48 58 -11 -4 -16 -3 -12 4 4 6 13 8 20 5 8 -3 18 1
24 8 6 7 42 32 80 56 38 24 68 47 65 52 -3 4 3 5 12 1 13 -5 15 -3 9 7 -5 8
-4 11 3 6 14 -9 63 14 55 27 -3 6 -1 7 5 3 7 -4 32 2 56 13 25 10 69 25 100
32 30 6 53 16 50 20 -3 5 1 7 8 4 7 -3 40 -1 73 4 82 13 295 6 380 -13z
m-1320 -6 c0 -7 -6 -15 -12 -17 -8 -3 -13 4 -13 17 0 13 5 20 13 18 6 -3 12
-11 12 -18z m8448 6 c6 -15 -1 -26 -15 -26 -4 0 -8 9 -8 20 0 23 15 27 23 6z
m-14551 -88 c-15 -15 -26 -4 -18 18 5 13 9 15 18 6 9 -9 9 -15 0 -24z m823 22
c3 -6 -1 -13 -10 -16 -19 -8 -30 0 -20 15 8 14 22 14 30 1z m5254 -9 c12 -21
5 -32 -15 -24 -16 6 -19 43 -4 43 5 0 14 -8 19 -19z m2376 -11 c-5 -8 -11 -8
-17 -2 -6 6 -7 16 -3 22 5 8 11 8 17 2 6 -6 7 -16 3 -22z m820 20 c3 -6 -1
-13 -10 -16 -19 -8 -30 0 -20 15 8 14 22 14 30 1z m5255 -5 c10 -12 10 -19 2
-27 -9 -9 -16 -7 -27 8 -8 10 -15 22 -15 27 0 13 27 7 40 -8z m-9870 -27 c14
-24 16 -35 8 -45 -15 -19 -29 -16 -67 16 -41 34 -37 61 9 61 23 0 35 -7 50
-32z m8425 26 c24 -10 47 -58 32 -73 -18 -18 -33 -13 -66 19 -43 44 -23 76 34
54z m-6933 -33 c2 -7 83 -74 182 -153 16 -13 18 -20 9 -29 -8 -8 -38 11 -122
82 -61 51 -111 96 -111 101 0 11 37 10 42 -1z m2158 -38 c-1 -10 -17 -30 -38
-45 -20 -14 -71 -52 -112 -83 -43 -32 -76 -51 -78 -45 -3 7 4 20 14 30 29 29
198 159 207 160 4 0 7 -8 7 -17z m1820 -159 c410 -90 799 -176 865 -191 66
-15 126 -31 133 -36 32 -25 -13 -25 -117 -2 -63 14 -116 23 -119 21 -3 -3 -10
-2 -16 3 -6 5 -155 41 -331 80 -373 82 -1111 246 -1172 259 l-42 10 -145 -117
c-80 -64 -167 -132 -193 -151 -26 -19 -60 -47 -75 -62 -16 -15 -32 -29 -36
-30 -4 -2 -7 -7 -6 -13 0 -5 -14 -11 -33 -12 -41 -4 -42 9 -3 37 17 12 27 26
24 32 -4 7 -2 8 4 4 6 -3 26 6 44 22 18 16 61 50 96 76 55 42 61 50 50 64 -11
15 -11 15 4 4 14 -11 31 -2 127 73 61 48 114 91 117 97 8 13 -35 22 824 -168z
m-10520 115 c0 -5 -7 -9 -15 -9 -15 0 -20 12 -9 23 8 8 24 -1 24 -14z m6400 1
c0 -9 -523 -12 -1885 -10 l-460 1 -66 -58 c-36 -32 -99 -85 -140 -118 -83 -68
-339 -279 -443 -367 -39 -32 -74 -58 -78 -58 -17 0 -7 31 17 52 13 11 22 25
19 29 -3 5 1 7 8 4 7 -3 24 5 38 17 14 13 44 38 68 56 23 19 39 38 36 43 -3 5
-2 9 3 8 20 -3 34 2 28 11 -4 6 -2 9 3 8 5 -2 54 34 108 79 55 46 133 111 174
144 41 34 77 65 80 68 3 4 24 21 48 40 23 18 40 37 37 42 -4 5 1 6 9 3 9 -3
16 -1 16 5 0 13 559 17 1658 13 466 -1 722 -6 722 -12z m7030 -6 c0 -25 -6
-25 -37 -1 -17 12 -7 27 18 27 14 0 19 -7 19 -26z m-4980 6 c0 -5 -7 -10 -15
-10 -8 0 -15 5 -15 10 0 6 7 10 15 10 8 0 15 -4 15 -10z m3960 -95 c0 -15 -27
-28 -41 -19 -13 7 -11 28 3 42 13 13 38 -2 38 -23z m2940 5 c0 -5 -7 -10 -15
-10 -8 0 -15 5 -15 10 0 6 7 10 15 10 8 0 15 -4 15 -10z m-8827 -78 c59 -35
107 -70 107 -78 0 -19 1 -19 -80 27 -118 67 -181 109 -175 119 8 12 22 5 148
-68z m-6861 6 c-15 -15 -26 -4 -18 18 5 13 9 15 18 6 9 -9 9 -15 0 -24z m2478
17 c0 -8 -9 -15 -20 -15 -20 0 -26 11 -13 23 12 13 33 7 33 -8z m6688 3 c-3
-7 -31 -28 -64 -46 -32 -19 -80 -47 -106 -62 -61 -37 -88 -45 -88 -27 0 7 44
38 98 68 53 30 106 59 117 65 27 16 48 17 43 2z m-4703 -8 c3 -5 -1 -10 -9
-10 -9 0 -16 -4 -16 -10 0 -5 -7 -10 -15 -10 -18 0 -20 26 -2 33 20 9 35 8 42
-3z m8450 0 c3 -5 0 -10 -9 -10 -8 0 -16 -5 -18 -12 -3 -7 -12 -9 -22 -5 -15
6 -16 10 -6 22 14 17 46 20 55 5z m-2957 -47 c19 -18 6 -33 -29 -33 -35 0 -51
27 -26 45 9 7 13 16 9 21 -9 10 28 -16 46 -33z m-8454 5 c23 -32 20 -38 -19
-38 -39 0 -55 21 -35 45 18 21 36 19 54 -7z m4324 -16 c2 -7 -3 -12 -12 -12
-9 0 -16 7 -16 16 0 17 22 14 28 -4z m8450 0 c2 -7 -3 -12 -12 -12 -9 0 -16 7
-16 16 0 17 22 14 28 -4z m-7878 -37 c0 -8 5 -15 10 -15 6 0 10 -6 10 -12 0
-10 -53 -12 -238 -10 l-238 3 -59 -36 c-32 -19 -61 -38 -64 -42 -3 -5 -13 -9
-21 -11 -8 -2 -67 -34 -130 -71 -63 -37 -177 -103 -253 -145 -83 -47 -135 -82
-131 -88 4 -7 2 -8 -4 -4 -14 8 -40 -5 -190 -95 -62 -38 -116 -69 -119 -69 -3
0 -38 -19 -77 -43 -39 -24 -79 -46 -89 -50 -10 -4 -15 -11 -12 -17 4 -6 -1 -7
-11 -3 -13 5 -15 3 -9 -7 5 -9 4 -11 -4 -6 -7 5 -29 -3 -51 -18 -46 -30 -63
-33 -58 -9 3 15 42 40 268 168 222 126 305 177 313 190 4 9 12 13 17 10 10 -6
7 -7 235 125 88 51 189 108 225 128 36 19 71 42 78 51 7 9 15 15 17 13 3 -1
27 9 55 23 48 25 54 25 275 25 193 0 225 2 225 15 0 8 7 15 15 15 8 0 15 -7
15 -15z m8450 0 c0 -8 -7 -15 -15 -15 -8 0 -15 7 -15 15 0 8 7 15 15 15 8 0
15 -7 15 -15z m-9930 -20 c0 -8 -7 -15 -15 -15 -8 0 -15 7 -15 15 0 8 7 15 15
15 8 0 15 -7 15 -15z m8450 0 c0 -8 -7 -15 -15 -15 -8 0 -15 7 -15 15 0 8 7
15 15 15 8 0 15 -7 15 -15z m-11972 -42 c4 -30 -33 -41 -59 -17 -25 22 -24 32
4 37 38 8 52 3 55 -20z m8436 21 c23 -9 19 -42 -6 -50 -16 -5 -27 0 -41 17
-19 24 -19 24 4 30 13 4 25 7 26 8 1 1 8 -2 17 -5z m-4341 -19 c1 -5 -6 -11
-15 -13 -11 -2 -18 3 -18 13 0 17 30 18 33 0z m8450 0 c1 -5 -6 -11 -15 -13
-11 -2 -18 3 -18 13 0 17 30 18 33 0z m-7176 -42 c68 -27 123 -54 123 -60 0
-7 -4 -13 -9 -13 -19 0 -247 93 -261 106 -27 26 19 16 147 -33z m107 14 c15
-11 15 -15 4 -24 -17 -14 -58 1 -58 22 0 18 30 20 54 2z m8447 2 c24 -13 16
-29 -16 -29 -26 0 -40 14 -30 30 8 13 21 13 46 -1z m-12461 -35 c0 -16 -16
-19 -25 -4 -8 13 4 32 16 25 5 -4 9 -13 9 -21z m6398 14 c-6 -17 -261 -107
-272 -97 -14 13 -9 16 120 63 125 47 158 54 152 34z m-8865 -13 c1 -5 -6 -11
-15 -13 -11 -2 -18 3 -18 13 0 17 30 18 33 0z m10917 6 c0 -6 -4 -13 -10 -16
-5 -3 -10 1 -10 9 0 9 5 16 10 16 6 0 10 -4 10 -9z m805 -14 c-7 -16 71 -91
85 -82 6 4 10 3 9 -2 -1 -4 1 -16 6 -26 4 -9 5 -32 3 -49 -4 -26 1 -38 22 -60
27 -26 43 -30 68 -15 7 5 12 4 12 -2 0 -11 -15 -15 -34 -12 -5 1 -3 -6 5 -15
11 -13 11 -18 1 -21 -9 -4 -6 -13 9 -34 11 -16 15 -29 9 -29 -6 0 -9 -4 -6 -8
7 -11 -34 -13 -54 -2 -14 7 -19 5 -23 -11 -5 -19 -6 -19 -29 3 -48 46 -79 69
-87 64 -13 -8 -104 -16 -97 -9 9 9 -75 93 -93 93 -8 0 -12 3 -8 6 3 4 0 22 -8
41 -23 55 -20 71 8 45 13 -12 27 -19 32 -15 4 5 5 3 2 -3 -8 -15 46 -54 75
-54 28 0 71 28 63 41 -4 5 -1 9 4 9 6 0 11 13 11 29 0 21 -13 41 -56 81 l-55
52 48 -7 c26 -4 53 -8 58 -8 6 -1 9 4 7 11 -1 8 2 11 7 7 6 -3 8 -11 6 -18z
m-1422 -1 c3 -8 2 -16 -2 -18 -5 -2 -25 -61 -45 -131 -19 -70 -42 -139 -49
-152 l-13 -25 -37 31 c-21 17 -44 29 -51 26 -20 -8 -68 -82 -99 -153 -49 -111
-58 -209 -30 -309 9 -33 17 -73 17 -89 1 -29 -2 -31 -74 -53 -41 -13 -78 -23
-82 -23 -14 0 -36 68 -48 146 -28 183 36 377 168 517 l55 57 -24 23 c-13 12
-26 21 -30 20 -3 -1 -6 8 -5 20 1 19 20 29 146 73 155 55 195 63 203 40z
m4792 -42 c0 -10 -8 -20 -18 -22 -22 -4 -35 27 -16 39 20 12 34 5 34 -17z
m-11414 -7 c-13 -13 -26 -3 -16 12 3 6 11 8 17 5 6 -4 6 -10 -1 -17z m8459 14
c0 -12 -20 -25 -27 -18 -7 7 6 27 18 27 5 0 9 -4 9 -9z m-6520 -107 c0 -16
-26 -19 -35 -4 -4 6 -4 18 -1 27 5 12 9 13 21 3 8 -7 15 -19 15 -26z m8454 -5
c-10 -17 -44 -10 -44 9 0 10 3 22 7 25 9 9 44 -23 37 -34z m-11936 10 c-2 -6
-8 -10 -13 -10 -5 0 -11 4 -13 10 -2 6 4 11 13 11 9 0 15 -5 13 -11z m8452 -5
c0 -17 -22 -14 -28 4 -2 7 3 12 12 12 9 0 16 -7 16 -16z m-4322 -14 c138 -29
182 -41 182 -51 0 -14 -26 -11 -162 17 -87 19 -128 31 -128 41 0 16 -8 17 108
-7z m-706 -33 c14 -12 28 -31 30 -42 2 -17 -3 -20 -31 -20 -43 0 -82 44 -61
70 17 20 30 19 62 -8z m8457 -8 c39 -37 36 -54 -9 -54 -24 0 -38 7 -54 28 -21
28 -21 29 -2 43 27 19 28 18 65 -17z m-5089 2 c0 -13 -15 -17 -152 -41 -137
-24 -138 -24 -138 -7 0 8 39 20 118 34 135 24 172 27 172 14z m-4810 -52 c0
-10 -4 -19 -9 -19 -14 0 -33 28 -27 39 10 16 36 1 36 -20z m8444 15 c3 -9 6
-23 6 -32 0 -14 -4 -13 -21 5 -12 11 -18 26 -15 32 10 16 23 14 30 -5z
m-10824 -14 c0 -21 -15 -27 -25 -10 -7 12 2 30 16 30 5 0 9 -9 9 -20z m-810
-5 c0 -8 -7 -15 -15 -15 -8 0 -15 7 -15 15 0 8 7 15 15 15 8 0 15 -7 15 -15z
m8450 6 c0 -14 -18 -23 -30 -16 -6 4 -8 11 -5 16 8 12 35 12 35 0z m-5290 -71
c0 -11 -4 -20 -9 -20 -14 0 -23 18 -16 30 10 17 25 11 25 -10z m8450 0 c0 -11
-4 -20 -9 -20 -14 0 -23 18 -16 30 10 17 25 11 25 -10z m-9080 -25 c0 -8 -4
-15 -10 -15 -5 0 -10 7 -10 15 0 8 5 15 10 15 6 0 10 -7 10 -15z m-3220 -16
c0 -5 -7 -9 -15 -9 -9 0 -12 6 -9 15 6 15 24 11 24 -6z m8450 0 c0 -5 -4 -9
-10 -9 -5 0 -10 7 -10 16 0 8 5 12 10 9 6 -3 10 -10 10 -16z m-2267 -28 c8 -8
-18 -11 -103 -11 -128 0 -190 8 -190 23 0 14 278 3 293 -12z m-5068 -41 c-5
-8 -11 -8 -17 -2 -6 6 -7 16 -3 22 5 8 11 8 17 2 6 -6 7 -16 3 -22z m3870 20
c3 -5 1 -10 -4 -10 -6 0 -11 5 -11 10 0 6 2 10 4 10 3 0 8 -4 11 -10z m930 0
c3 -5 -3 -10 -14 -10 -12 0 -21 5 -21 10 0 6 6 10 14 10 8 0 18 -4 21 -10z
m3655 -11 c0 -5 -7 -9 -15 -9 -15 0 -20 12 -9 23 8 8 24 -1 24 -14z m4790 12
c0 -6 -4 -13 -10 -16 -5 -3 -10 1 -10 9 0 9 5 16 10 16 6 0 10 -4 10 -9z
m-5650 -16 c0 -13 -23 -15 -150 -15 -137 0 -163 4 -143 23 3 4 71 7 150 7 120
0 143 -2 143 -15z m-8725 -24 c7 -12 -12 -24 -25 -16 -11 7 -4 25 10 25 5 0
11 -4 15 -9z m5282 -79 c20 -43 50 -111 68 -152 18 -41 42 -95 53 -120 93
-202 182 -405 182 -415 0 -6 -18 -17 -40 -24 -30 -9 -41 -18 -46 -38 -6 -22
-8 -23 -16 -9 -9 16 -12 15 -44 -3 -19 -12 -39 -21 -43 -21 -4 0 -24 35 -43
78 -137 298 -308 679 -308 685 0 3 12 8 27 12 15 3 39 15 55 26 15 11 28 18
28 14 0 -3 18 4 40 15 25 13 38 25 34 32 -4 7 -3 8 5 4 7 -4 28 -42 48 -84z
m-3507 70 c0 -13 -12 -22 -22 -16 -10 6 -1 24 13 24 5 0 9 -4 9 -8z m6675 -2
c-3 -5 -13 -10 -21 -10 -8 0 -14 5 -14 10 0 6 9 10 21 10 11 0 17 -4 14 -10z
m1775 1 c0 -6 -4 -13 -10 -16 -5 -3 -10 1 -10 9 0 9 5 16 10 16 6 0 10 -4 10
-9z m1720 3 c0 -8 -19 -13 -24 -6 -3 5 1 9 9 9 8 0 15 -2 15 -3z m-10015 -34
c-5 -8 -11 -8 -17 -2 -6 6 -7 16 -3 22 5 8 11 8 17 2 6 -6 7 -16 3 -22z m8455
10 c0 -5 -7 -10 -15 -10 -8 0 -15 5 -15 10 0 6 7 10 15 10 8 0 15 -4 15 -10z
m1525 -20 c0 -1 10 -3 23 -4 12 -2 39 -19 60 -39 36 -35 38 -35 83 -25 43 10
46 9 77 -21 17 -18 36 -29 42 -26 6 4 9 2 8 -3 -2 -5 8 -23 22 -38 14 -16 26
-36 27 -44 1 -8 5 -28 9 -45 7 -29 7 -29 -47 18 -61 54 -98 60 -136 25 -48
-45 -20 -121 40 -111 53 8 88 -53 41 -71 -29 -11 -111 15 -139 44 -16 16 -33
27 -38 23 -6 -3 -7 -1 -4 4 4 6 -5 19 -19 28 -23 15 -26 22 -21 61 4 42 3 45
-46 86 -28 24 -57 42 -66 40 -14 -2 -14 -2 -1 7 8 6 23 11 33 11 21 0 22 8 1
31 -20 22 -1 57 30 53 11 -1 21 -3 21 -4z m-11627 -17 c-2 -10 -13 -19 -26
-21 -24 -4 -29 7 -10 26 18 18 40 15 36 -5z m1512 2 c0 -8 -7 -15 -15 -15 -16
0 -20 12 -8 23 11 12 23 8 23 -8z m6935 -5 c0 -8 -10 -16 -22 -18 -22 -3 -32
16 -16 32 12 11 38 2 38 -14z m1515 5 c0 -8 -7 -15 -15 -15 -16 0 -20 12 -8
23 11 12 23 8 23 -8z m-8746 -4 c3 -5 -1 -11 -9 -15 -9 -3 -15 0 -15 9 0 16
16 20 24 6z m8446 -6 c0 -8 -4 -15 -10 -15 -5 0 -10 7 -10 15 0 8 5 15 10 15
6 0 10 -7 10 -15z m-492 -12 c-2 -9 -6 -16 -10 -15 -5 1 -145 2 -312 2 -261 0
-305 2 -310 15 -5 13 34 15 315 15 295 0 320 -1 317 -17z m-5678 -8 c0 -8 -4
-15 -10 -15 -5 0 -10 7 -10 15 0 8 5 15 10 15 6 0 10 -7 10 -15z m2407 1 c-4
-9 3 -16 16 -20 45 -12 -2 -26 -137 -41 -76 -8 -142 -12 -147 -9 -22 13 8 22
115 34 102 12 113 15 109 31 -4 15 0 19 22 19 19 0 26 -4 22 -14z m3766 -25
c62 -21 204 -71 316 -110 113 -40 211 -69 218 -66 8 2 11 0 8 -5 -4 -6 7 -13
24 -16 28 -6 40 -22 25 -36 -5 -6 -161 46 -502 168 -85 30 -158 52 -163 49 -5
-4 -9 -2 -9 4 0 5 -13 12 -30 16 -31 7 -42 35 -15 35 9 0 66 -18 128 -39z
m2279 24 c0 -5 -5 -11 -11 -13 -6 -2 -11 4 -11 13 0 9 5 15 11 13 6 -2 11 -8
11 -13z m2406 -2 c-5 -25 -25 -27 -38 -4 -10 19 -8 21 15 21 19 0 26 -5 23
-17z m-13302 -74 c113 -37 167 -70 225 -140 58 -69 95 -130 155 -251 26 -53
52 -94 57 -91 6 4 7 1 2 -6 -4 -7 -2 -23 4 -34 6 -12 19 -44 30 -72 20 -55 10
-50 148 -71 28 -4 39 -15 73 -72 39 -66 50 -100 30 -87 -18 11 -144 44 -151
39 -4 -2 -10 0 -14 6 -8 14 -42 13 -51 -2 -5 -8 -2 -9 12 -4 10 4 15 4 11 0
-4 -4 5 -20 20 -36 23 -24 28 -41 34 -101 4 -40 5 -74 3 -76 -8 -8 -120 34
-142 53 -13 11 -29 32 -35 46 -23 48 -32 26 -37 -90 l-5 -115 -24 32 c-13 18
-28 30 -33 27 -4 -3 -8 -1 -8 4 0 5 -13 23 -29 39 l-29 30 13 77 12 77 -102
83 c-98 82 -269 246 -292 283 -6 10 -16 17 -23 15 -6 -1 -9 2 -5 8 3 5 -2 22
-13 38 -10 15 -25 43 -31 62 -16 44 -26 238 -16 315 l7 57 56 -6 c32 -4 98
-21 148 -37z m2427 -18 c51 -26 195 -101 320 -166 126 -64 231 -124 234 -132
3 -8 0 -26 -6 -40 -10 -22 -16 -25 -47 -20 -33 6 -39 2 -102 -66 -37 -39 -104
-111 -149 -159 -46 -49 -83 -92 -83 -97 0 -5 7 -11 15 -15 8 -3 15 -1 15 4 0
11 33 13 68 4 18 -5 22 -13 22 -43 0 -42 -14 -61 -45 -61 -15 0 -25 -12 -38
-49 -21 -59 -103 -154 -158 -182 -51 -25 -109 -25 -143 2 -15 12 -30 19 -34
15 -4 -3 -37 -36 -74 -73 -66 -67 -68 -69 -68 -120 0 -29 -2 -53 -5 -53 -12 0
-245 122 -245 129 0 4 17 20 39 36 42 32 29 -7 153 440 148 537 161 586 149
598 -15 15 -14 53 1 77 22 35 77 26 181 -29z m4758 30 c30 -5 87 -14 127 -21
87 -14 99 -35 15 -27 -100 10 -226 28 -235 33 -4 3 -8 9 -8 15 0 11 31 12 101
0z m-5241 -11 c0 -5 -7 -10 -15 -10 -8 0 -15 5 -15 10 0 6 7 10 15 10 8 0 15
-4 15 -10z m8450 0 c0 -5 -7 -10 -15 -10 -8 0 -15 5 -15 10 0 6 7 10 15 10 8
0 15 -4 15 -10z m47 -676 c45 -340 82 -631 83 -646 0 -17 -5 -28 -14 -28 -9 0
-16 18 -21 58 -3 31 -26 203 -50 382 -24 179 -49 369 -56 424 -8 59 -19 104
-28 113 -11 11 -12 19 -4 32 7 11 5 54 -7 146 -10 72 -15 134 -13 138 19 32
34 -55 110 -619z m-11865 564 c-9 -9 -15 -9 -24 0 -10 10 -10 15 2 22 20 12
38 -6 22 -22z m6336 -20 c-4 -12 -243 -87 -276 -88 -8 0 -12 6 -10 13 3 6 51
26 109 42 57 17 111 34 119 37 27 11 62 9 58 -4z m9026 -24 c16 -15 13 -34 -4
-34 -14 0 -41 31 -35 41 9 13 21 11 39 -7z m-10669 -4 c-3 -5 -10 -10 -16 -10
-5 0 -9 5 -9 10 0 6 7 10 16 10 8 0 12 -4 9 -10z m8450 0 c-3 -5 -10 -10 -16
-10 -5 0 -9 5 -9 10 0 6 7 10 16 10 8 0 12 -4 9 -10z m-4526 -37 c123 -39 150
-51 131 -63 -15 -9 -273 74 -278 89 -6 18 24 13 147 -26z m3941 -19 c0 -16
-16 -19 -25 -4 -8 13 4 32 16 25 5 -4 9 -13 9 -21z m-2430 -19 c0 -8 -9 -15
-20 -15 -20 0 -26 11 -13 23 12 13 33 7 33 -8z m-8948 -37 c-9 -9 -12 -7 -12
12 0 19 3 21 12 12 9 -9 9 -15 0 -24z m-1180 -10 c-9 -9 -15 -9 -24 0 -10 10
-10 15 2 22 20 12 38 -6 22 -22z m9638 22 c0 -5 -4 -10 -10 -10 -5 0 -10 5
-10 10 0 6 5 10 10 10 6 0 10 -4 10 -10z m-1182 -12 c-6 -18 -25 -20 -31 -3
-5 10 0 15 14 15 12 0 19 -5 17 -12z m3849 -11 c-1 -5 -11 -11 -20 -13 -14 -2
-15 1 -6 17 10 20 33 16 26 -4z m1673 15 c0 -13 -12 -22 -22 -16 -10 6 -1 24
13 24 5 0 9 -4 9 -8z m-3085 -16 c41 -18 45 -33 10 -42 -29 -7 -29 -3 -10 -47
13 -32 12 -47 -6 -47 -4 0 -13 16 -19 35 -6 19 -15 35 -18 35 -4 0 -54 -20
-112 -43 -112 -47 -107 -41 -93 -110 7 -38 -19 -27 -34 14 -11 28 -15 30 -43
24 -30 -7 -31 -6 -24 22 13 53 37 71 159 122 133 56 141 57 190 37z m-4495
-19 c0 -13 -232 -127 -257 -127 -7 0 -13 7 -13 15 0 8 6 15 13 15 6 0 62 25
122 54 117 58 135 64 135 43z m8940 -32 c0 -8 -7 -15 -15 -15 -8 0 -15 7 -15
15 0 8 7 15 15 15 8 0 15 -7 15 -15z m-14550 -4 c0 -6 -4 -13 -10 -16 -5 -3
-10 1 -10 9 0 9 5 16 10 16 6 0 10 -4 10 -9z m2563 -6 c8 -18 -11 -31 -25 -17
-11 11 -3 32 12 32 4 0 10 -7 13 -15z m5197 -46 c112 -57 142 -79 104 -79 -22
0 -254 120 -254 131 0 19 33 7 150 -52z m495 2 c94 -27 289 -83 435 -126 146
-42 285 -82 310 -89 156 -44 206 -61 216 -72 6 -8 15 -10 19 -6 5 4 5 2 1 -5
-6 -12 21 -82 37 -94 5 -3 7 -9 5 -12 -1 -4 22 -63 52 -131 l55 -126 73 0 c86
0 97 -17 13 -22 -115 -6 -105 -15 -196 189 -44 100 -82 184 -85 187 -13 12
-322 96 -332 90 -7 -4 -8 -2 -4 4 4 7 1 12 -7 12 -27 0 -779 219 -791 230 -11
11 2 30 17 25 7 -3 89 -27 182 -54z m193 48 c-2 -6 -8 -10 -13 -10 -5 0 -11 4
-13 10 -2 6 4 11 13 11 9 0 15 -5 13 -11z m-2748 -120 c0 -12 -25 -39 -35 -39
-4 0 -50 -29 -102 -65 -52 -36 -99 -65 -104 -65 -23 0 -4 24 52 63 33 23 86
61 117 83 54 39 72 45 72 23z m1946 -101 c99 -71 135 -108 106 -108 -15 0
-227 162 -230 176 -2 8 0 14 4 14 3 0 58 -37 120 -82z m-4016 -23 c0 -15 -26
-32 -36 -23 -2 3 -2 13 2 22 8 20 34 21 34 1z m8446 -14 c-10 -16 -36 -13 -36
3 0 17 21 27 34 16 4 -5 5 -13 2 -19z m-6266 -4 c0 -7 -45 -57 -101 -112 -75
-74 -103 -95 -112 -86 -8 8 15 36 93 111 58 54 108 99 113 100 4 0 7 -6 7 -13z
m-1372 -38 c2 -13 -54 -17 -440 -32 -531 -21 -561 -21 -556 -4 3 7 28 13 64
15 157 8 901 39 914 38 8 -1 16 -8 18 -17z m3074 -76 c88 -87 114 -123 90
-123 -4 0 -54 46 -110 103 -89 89 -109 117 -83 117 3 0 50 -44 103 -97z m5063
56 c42 -16 79 -42 122 -84 35 -33 65 -56 67 -50 3 5 4 1 3 -10 0 -11 10 -42
24 -70 21 -44 24 -64 24 -160 0 -105 -2 -114 -34 -180 -19 -39 -43 -76 -53
-84 -12 -8 -17 -19 -13 -29 3 -9 3 -13 -1 -10 -3 4 -26 -6 -50 -23 -86 -59
-130 -72 -239 -73 -84 -1 -110 3 -164 24 -78 30 -166 110 -205 187 -116 230 5
507 254 579 67 20 192 12 265 -17z m-2420 -114 l33 -80 -36 -17 c-21 -9 -42
-17 -48 -17 -12 -1 -78 159 -69 168 9 9 69 30 78 27 5 -1 24 -37 42 -81z
m1645 25 c0 -41 -14 -60 -46 -60 -28 0 -40 16 -47 61 -4 31 -2 38 16 46 14 6
31 6 49 -1 23 -9 28 -16 28 -46z m-572 26 c7 -16 19 -24 34 -23 23 1 190 -20
241 -29 23 -5 27 -10 27 -39 0 -31 -3 -35 -33 -40 l-33 -7 -49 -376 c-56 -425
-52 -412 -134 -412 -58 0 -81 22 -81 78 0 18 20 187 45 374 25 188 45 347 45
355 0 7 -9 13 -20 13 -22 0 -40 28 -32 49 3 9 0 11 -7 6 -15 -9 -51 22 -51 45
0 37 32 41 48 6z m-5286 -19 c-5 -7 -41 -56 -81 -109 -40 -54 -79 -98 -87 -98
-8 0 -14 3 -14 6 0 9 142 196 165 217 21 19 35 6 17 -16z m3398 8 c0 -8 -6
-15 -14 -15 -17 0 -28 14 -19 24 12 12 33 6 33 -9z m2754 -16 c-3 -5 -10 -7
-15 -3 -5 3 -7 10 -3 15 3 5 10 7 15 3 5 -3 7 -10 3 -15z m-4801 -2 c3 -8 37
-60 77 -116 48 -69 69 -106 62 -113 -7 -7 -37 28 -92 106 -51 72 -86 113 -94
109 -6 -4 -5 1 3 10 16 20 37 22 44 4z m-4787 -18 c3 -5 -1 -11 -8 -14 -15 -6
-838 -35 -981 -35 -75 0 -98 3 -95 13 4 9 122 16 489 29 266 9 500 18 519 20
41 4 68 -1 76 -13z m1189 -60 c10 -15 -1 -23 -20 -15 -9 3 -13 10 -10 16 8 13
22 13 30 -1z m-3447 -20 c-2 -6 -8 -10 -13 -10 -5 0 -11 4 -13 10 -2 6 4 11
13 11 9 0 15 -5 13 -11z m-941 -53 c-4 -9 -11 -16 -17 -16 -11 0 -14 33 -3 44
11 10 26 -11 20 -28z m8451 7 c-4 -22 -22 -20 -26 1 -2 10 3 16 13 16 10 0 15
-7 13 -17z m-8123 -3 c3 -5 -1 -10 -9 -10 -9 0 -16 5 -16 10 0 6 4 10 9 10 6
0 13 -4 16 -10z m8446 -3 c-1 -12 -15 -9 -19 4 -3 6 1 10 8 8 6 -3 11 -8 11
-12z m5214 -17 c0 -7 -6 -15 -12 -17 -8 -3 -13 4 -13 17 0 13 5 20 13 18 6 -3
12 -11 12 -18z m-8447 -2 c-6 -18 -28 -21 -28 -4 0 9 7 16 16 16 9 0 14 -5 12
-12z m-4810 -20 c-6 -18 -28 -21 -28 -4 0 9 7 16 16 16 9 0 14 -5 12 -12z
m8452 -8 c0 -5 -7 -10 -16 -10 -8 0 -12 5 -9 10 3 6 10 10 16 10 5 0 9 -4 9
-10z m-6450 -20 c0 -5 -6 -10 -14 -10 -8 0 -18 5 -21 10 -3 6 3 10 14 10 12 0
21 -4 21 -10z m4000 -4 c0 -14 -104 -92 -287 -216 -45 -30 -79 -59 -75 -65 3
-5 2 -7 -3 -3 -11 10 -216 -132 -209 -144 4 -7 2 -8 -4 -4 -13 8 -64 -22 -57
-34 3 -4 -3 -7 -13 -6 -9 0 -16 -5 -14 -12 1 -8 -2 -11 -7 -7 -6 3 -21 -1 -35
-10 -24 -16 -25 -16 -83 62 -73 97 -267 364 -277 381 -5 8 -1 12 11 12 12 0
36 -23 60 -57 147 -204 235 -318 244 -315 6 1 7 -2 4 -8 -4 -6 1 -20 10 -30
16 -18 19 -17 86 31 69 49 229 159 381 262 42 29 74 56 70 62 -3 5 -2 7 2 3 4
-3 46 20 94 53 91 63 102 67 102 45z m-2762 -67 c-3 -26 -18 -29 -32 -6 -7 10
-5 21 4 32 17 20 33 6 28 -26z m8452 6 c0 -28 -24 -34 -34 -9 -8 20 1 34 20
34 8 0 14 -10 14 -25z m-4505 -25 c10 -11 22 -17 26 -14 5 3 6 -1 4 -9 -6 -15
49 -69 60 -59 4 4 5 2 3 -4 -1 -7 60 -78 136 -158 77 -81 145 -154 151 -162
10 -14 35 -14 238 -3 124 7 230 10 234 6 17 -18 -25 -26 -197 -36 -290 -17
-269 -20 -330 44 -30 30 -58 51 -63 48 -6 -3 -7 -1 -3 5 4 6 -34 53 -86 109
-51 53 -121 127 -155 163 -35 36 -63 71 -63 78 0 18 25 14 45 -8z m-5955 -30
c0 -23 -25 -27 -33 -6 -7 16 1 26 20 26 7 0 13 -9 13 -20z m-890 -35 c0 -8 -4
-15 -10 -15 -5 0 -10 7 -10 15 0 8 5 15 10 15 6 0 10 -7 10 -15z m3555 -54 c1
-25 8 -48 20 -61 25 -27 76 -59 104 -63 11 -2 26 -8 33 -15 22 -22 -37 -25
-80 -3 -22 11 -43 17 -47 13 -5 -4 -5 -1 -1 6 6 11 -5 17 -26 13 -5 0 -7 2 -6
7 1 4 -6 21 -15 39 -23 44 -23 103 1 103 13 0 17 -9 17 -39z m1380 30 c7 -12
-12 -24 -25 -16 -11 7 -4 25 10 25 5 0 11 -4 15 -9z m8447 -6 c0 -5 -5 -11
-11 -13 -6 -2 -11 4 -11 13 0 9 5 15 11 13 6 -2 11 -8 11 -13z m-13096 -16 c3
-6 0 -17 -8 -25 -13 -13 -16 -13 -28 1 -12 14 -11 18 1 26 19 12 26 11 35 -2z
m8447 -3 c9 -22 -18 -40 -33 -22 -6 9 -9 20 -5 26 9 15 32 12 38 -4z m2805
-28 c-3 -7 -33 -24 -69 -39 -35 -15 -141 -60 -236 -101 -139 -60 -173 -72
-175 -59 -2 11 20 27 77 53 44 21 86 38 93 38 7 0 10 5 6 12 -4 7 -3 8 4 4 7
-4 52 11 102 33 49 23 95 41 101 41 5 0 7 5 3 12 -4 7 -3 8 4 4 7 -4 20 -2 29
3 25 14 66 14 61 -1z m-7800 -46 c2 -7 -6 -12 -17 -12 -21 0 -27 11 -14 24 9
9 26 2 31 -12z m-187 -79 c13 -16 12 -17 -3 -4 -10 7 -18 15 -18 17 0 8 8 3
21 -13z m-801 -13 c0 -13 -19 -22 -30 -15 -14 9 0 34 16 28 8 -3 14 -9 14 -13z
m8960 4 c0 -8 -19 -13 -24 -6 -3 5 1 9 9 9 8 0 15 -2 15 -3z m-11672 -66 c-6
-18 -28 -21 -28 -4 0 9 7 16 16 16 9 0 14 -5 12 -12z m6595 -20 c-2 -18 -6
-43 -9 -55 l-4 -23 -383 0 -383 0 -2 38 c-2 20 -5 45 -8 55 -5 16 18 17 394
17 l399 0 -4 -32z m1857 22 c0 -5 -4 -10 -10 -10 -5 0 -10 5 -10 10 0 6 5 10
10 10 6 0 10 -4 10 -10z m-3663 -15 c0 -8 -4 -12 -9 -9 -5 3 -6 10 -3 15 9 13
12 11 12 -6z m2254 -2 c13 -16 12 -17 -3 -4 -10 7 -18 15 -18 17 0 8 8 3 21
-13z m-3479 -75 c3 -7 3 -19 1 -26 -6 -16 -33 4 -33 24 0 17 26 18 32 2z m673
1 c10 -15 -1 -23 -20 -15 -9 3 -13 10 -10 16 8 13 22 13 30 -1z m7779 -5 c3
-9 3 -20 0 -25 -8 -13 -34 9 -34 27 0 19 26 18 34 -2z m671 5 c10 -15 -1 -23
-20 -15 -9 3 -13 10 -10 16 8 13 22 13 30 -1z m-8449 -74 c8 -19 19 -35 24
-35 6 0 9 -4 8 -8 -5 -15 56 -121 65 -115 6 3 7 1 3 -5 -12 -19 56 -132 79
-132 11 0 254 34 540 75 755 110 824 119 832 112 4 -4 2 -12 -3 -17 -5 -5
-238 -42 -517 -82 -288 -41 -507 -77 -507 -83 0 -5 -4 -17 -10 -25 -7 -12 -12
-11 -27 7 l-18 21 -155 -24 c-85 -13 -158 -24 -162 -24 -4 0 -20 22 -36 50
-16 27 -32 47 -37 42 -4 -4 -5 -2 -2 4 6 10 -23 69 -109 225 -12 21 -19 40
-16 43 14 15 34 3 48 -29z m779 5 c-5 -8 -11 -8 -17 -2 -6 6 -7 16 -3 22 5 8
11 8 17 2 6 -6 7 -16 3 -22z m8465 10 c0 -12 -29 -20 -35 -10 -9 15 4 30 20
23 8 -3 15 -9 15 -13z m-10063 -27 c6 -17 -35 -27 -52 -13 -8 7 -15 17 -15 22
0 13 63 5 67 -9z m8450 1 c5 -16 -38 -26 -54 -12 -7 5 -10 15 -7 20 8 12 56 6
61 -8z m-13134 -29 c-6 -17 -25 -15 -31 3 -2 7 5 12 17 12 14 0 19 -5 14 -15z
m8457 6 c0 -11 -26 -22 -34 -14 -12 12 -5 23 14 23 11 0 20 -4 20 -9z m-2813
-18 c2 -6 -3 -13 -12 -16 -10 -5 -15 0 -15 14 0 21 21 22 27 2z m2183 6 c0
-20 -41 -69 -70 -84 -42 -22 -528 -22 -569 0 -30 15 -81 70 -81 86 0 5 147 9
360 9 254 0 360 -3 360 -11z m6265 1 c11 -17 -5 -32 -21 -19 -7 6 -11 15 -8
20 7 12 21 11 29 -1z m-10047 -54 c-4 -25 -36 -34 -44 -12 -8 21 13 46 32 39
8 -3 14 -15 12 -27z m8450 10 c5 -24 -10 -38 -31 -30 -20 7 -22 25 -5 42 16
16 32 10 36 -12z m-7808 -47 c0 -5 -9 -9 -20 -9 -19 0 -26 11 -14 23 8 8 34
-3 34 -14z m-2632 -11 c-3 -26 -36 -37 -49 -16 -13 19 -11 26 9 31 36 10 43 7
40 -15z m592 7 c0 -8 -7 -15 -15 -15 -8 0 -15 7 -15 15 0 8 7 15 15 15 8 0 15
-7 15 -15z m7855 -5 c0 -7 -8 -18 -18 -24 -14 -8 -20 -8 -27 4 -14 21 -12 28
8 33 25 7 37 2 37 -13z m595 5 c0 -8 -7 -15 -15 -15 -8 0 -15 7 -15 15 0 8 7
15 15 15 8 0 15 -7 15 -15z m2030 5 c0 -5 -7 -10 -15 -10 -8 0 -15 5 -15 10 0
6 7 10 15 10 8 0 15 -4 15 -10z m-9834 -81 c10 -17 -13 -36 -27 -22 -12 12 -4
33 11 33 5 0 12 -5 16 -11z m8450 0 c10 -17 -13 -36 -27 -22 -12 12 -4 33 11
33 5 0 12 -5 16 -11z m1994 -25 c0 -8 -7 -14 -15 -14 -15 0 -21 21 -9 33 10 9
24 -2 24 -19z m-8450 1 c0 -8 -6 -15 -14 -15 -17 0 -28 14 -19 24 12 12 33 6
33 -9z m9185 -45 c4 -6 4 -18 1 -26 -5 -12 -9 -12 -26 -2 -11 7 -20 18 -20 25
0 16 36 17 45 3z m-10230 -21 c10 -15 -1 -23 -20 -15 -9 3 -13 10 -10 16 8 13
22 13 30 -1z m416 -2 c-1 -12 -15 -9 -19 4 -3 6 1 10 8 8 6 -3 11 -8 11 -12z
m8037 1 c-6 -18 -28 -21 -28 -4 0 9 7 16 16 16 9 0 14 -5 12 -12z m414 -3 c0
-5 -5 -11 -11 -13 -6 -2 -11 4 -11 13 0 9 5 15 11 13 6 -2 11 -8 11 -13z
m-10187 -93 c0 -18 -20 -15 -23 4 -3 10 1 15 10 12 7 -3 13 -10 13 -16z m8445
-1 c0 -6 -4 -13 -10 -16 -5 -3 -10 1 -10 9 0 9 5 16 10 16 6 0 10 -4 10 -9z
m-8807 -21 c20 -24 21 -29 2 -53 -22 -30 -55 -13 -55 27 0 51 22 62 53 26z
m8451 -5 c14 -21 14 -28 4 -45 -19 -30 -52 -22 -56 13 -7 59 23 77 52 32z
m-6564 -25 c0 -12 -29 -20 -35 -10 -9 15 4 30 20 23 8 -3 15 -9 15 -13z m8446
9 c8 -14 -18 -31 -30 -19 -9 9 0 30 14 30 5 0 12 -5 16 -11z m-8946 -19 c0
-21 -15 -27 -25 -10 -7 12 2 30 16 30 5 0 9 -9 9 -20z m8450 0 c0 -11 -4 -20
-10 -20 -5 0 -10 9 -10 20 0 11 5 20 10 20 6 0 10 -9 10 -20z m-7882 -158 c2
-7 -6 -12 -17 -12 -21 0 -27 11 -14 24 9 9 26 2 31 -12z m2390 -12 c-2 -6 -8
-6 -18 0 -13 9 -13 11 0 20 15 10 25 0 18 -20z m6062 15 c0 -8 -6 -15 -14 -15
-17 0 -28 14 -19 24 12 12 33 6 33 -9z m2395 -5 c0 -7 -6 -15 -12 -17 -8 -3
-13 4 -13 17 0 13 5 20 13 18 6 -3 12 -11 12 -18z m-9535 -5 c0 -8 -4 -15 -10
-15 -5 0 -10 7 -10 15 0 8 5 15 10 15 6 0 10 -7 10 -15z m8452 0 c0 -5 -5 -11
-11 -13 -6 -2 -11 4 -11 13 0 9 5 15 11 13 6 -2 11 -8 11 -13z m-7172 -15 c0
-5 -7 -10 -15 -10 -8 0 -15 5 -15 10 0 6 7 10 15 10 8 0 15 -4 15 -10z m500
-85 c0 -8 -4 -15 -9 -15 -13 0 -22 16 -14 24 11 11 23 6 23 -9z m-101 -86
c-26 -16 -38 16 -22 57 6 15 9 13 21 -15 11 -27 11 -36 1 -42z m-522 -15 c3
-8 -2 -23 -11 -32 -15 -15 -17 -15 -32 0 -21 21 -11 48 16 48 11 0 23 -7 27
-16z m8448 -9 c0 -22 -31 -33 -47 -17 -17 17 -1 44 24 40 15 -2 23 -10 23 -23z
m-7895 -22 c-1 -20 -19 -34 -41 -31 -22 3 -22 4 -5 21 18 17 46 23 46 10z
m-3440 -28 c7 -9 10 -18 7 -22 -8 -7 -37 15 -37 28 0 14 16 11 30 -6z m8450 0
c7 -9 10 -18 7 -22 -8 -7 -37 15 -37 28 0 14 16 11 30 -6z m-5760 -29 c81 -21
141 -59 234 -146 166 -158 179 -242 97 -640 -18 -88 -33 -195 -37 -272 l-7
-127 59 -3 59 -3 52 -85 c28 -47 52 -88 52 -92 1 -5 -48 -8 -107 -8 l-109 0
-12 -72 c-7 -40 -31 -118 -53 -173 -35 -86 -41 -113 -45 -195 -4 -88 5 -151
32 -212 7 -17 4 -16 -36 1 -67 30 -144 103 -164 156 -10 25 -21 45 -25 45 -8
0 -32 -47 -70 -140 -25 -59 -38 -80 -50 -80 -7 0 -49 87 -83 171 -8 20 -19 39
-25 43 -5 3 -22 -19 -37 -49 -14 -30 -43 -69 -64 -86 -34 -29 -122 -82 -127
-76 -1 1 6 34 16 72 33 122 24 211 -35 357 -20 48 -41 121 -47 162 l-13 76
-97 0 c-54 0 -98 2 -98 5 0 3 12 23 26 45 15 22 23 44 18 51 -4 7 -3 10 4 6 5
-4 22 13 36 38 25 42 30 45 68 45 l41 0 -6 138 c-4 100 -15 185 -41 312 -46
225 -54 318 -32 392 38 133 220 303 366 344 62 17 195 17 260 0z m-5030 -56
c0 -5 -7 -10 -16 -10 -8 0 -12 5 -9 10 3 6 10 10 16 10 5 0 9 -4 9 -10z m8445
0 c3 -5 1 -10 -4 -10 -6 0 -11 5 -11 10 0 6 2 10 4 10 3 0 8 -4 11 -10z
m-5995 -31 c0 -11 -4 -17 -10 -14 -5 3 -10 13 -10 21 0 8 5 14 10 14 6 0 10
-9 10 -21z m8450 1 c0 -11 -4 -20 -10 -20 -5 0 -10 9 -10 20 0 11 5 20 10 20
6 0 10 -9 10 -20z m-5002 -16 c4 -30 -22 -37 -52 -13 -32 25 -24 41 17 37 24
-2 33 -9 35 -24z m-4909 -28 c41 -14 111 -43 155 -64 45 -21 103 -47 129 -57
46 -17 48 -17 62 1 9 11 13 31 10 47 -7 41 30 35 54 -10 15 -30 14 -71 -5
-155 -20 -87 -65 -143 -129 -160 l-42 -11 -6 -96 c-4 -53 -16 -130 -27 -171
-12 -41 -22 -85 -23 -97 -1 -12 -4 -20 -6 -18 -2 2 -22 -22 -45 -53 -50 -68
-107 -119 -152 -138 -44 -18 -116 -18 -161 1 -20 8 -38 14 -40 11 -2 -2 -6
-19 -9 -38 -5 -28 1 -46 36 -104 110 -178 194 -289 213 -277 6 4 7 1 2 -6 -9
-16 123 -153 138 -144 6 3 7 2 4 -4 -8 -13 87 -106 98 -96 4 5 5 3 2 -3 -8
-14 77 -80 157 -124 84 -47 271 -72 629 -86 l177 -7 0 -68 c0 -39 4 -69 10
-69 6 0 10 9 10 19 0 22 5 24 109 46 l74 15 52 -40 52 -40 156 0 c98 0 157 4
157 10 0 6 -13 10 -30 10 -45 0 -226 37 -297 61 -79 26 -133 74 -133 116 0 92
137 373 364 746 l47 77 185 0 184 0 0 39 c0 37 -3 41 -54 70 -110 62 -196 218
-196 356 0 79 42 215 88 283 7 10 20 8 63 -11 75 -34 134 -53 205 -66 73 -14
154 4 227 49 27 17 52 30 56 30 5 0 19 -39 31 -87 41 -156 23 -298 -54 -425
-22 -38 -30 -58 -21 -58 8 0 11 -7 8 -20 -4 -15 -12 -19 -29 -16 -14 3 -37 -6
-61 -23 -21 -15 -46 -30 -55 -34 -13 -5 -18 -17 -18 -47 l0 -40 184 0 183 0
91 -152 c107 -182 262 -468 262 -485 0 -7 4 -13 8 -13 13 0 33 50 26 62 -4 6
-3 8 3 5 5 -3 27 26 49 66 l39 72 3 -191 c2 -187 2 -193 -23 -242 -31 -63 -31
-85 0 -110 24 -19 25 -23 25 -146 l0 -126 -285 6 -284 7 2 -181 2 -182 -407 0
-408 0 0 178 0 179 -577 -5 c-411 -3 -580 -8 -585 -16 -5 -6 -8 -441 -8 -966
1 -948 1 -956 21 -968 22 -14 21 -37 -2 -37 -8 0 -15 -7 -15 -15 -1 -8 -2
-216 -3 -462 l-1 -448 -90 0 -90 0 0 50 c0 47 -1 50 -26 50 -23 0 -26 3 -22
30 5 35 14 32 -187 55 -77 9 -173 20 -213 26 -134 17 -129 19 -141 -58 -6 -38
-12 -86 -13 -108 l-3 -40 -45 0 -45 0 -1 50 c0 28 -6 76 -13 108 -10 48 -16
57 -34 57 -12 0 -119 -12 -237 -26 -161 -20 -218 -31 -228 -43 -10 -12 -15
-13 -18 -3 -10 23 -24 12 -24 -18 0 -29 -1 -30 -50 -30 -48 0 -50 1 -50 28 0
23 7 31 38 44 37 16 310 126 490 197 l92 37 3 534 2 535 74 0 75 0 -3 -531 -3
-530 29 -13 c15 -7 105 -44 198 -81 94 -37 208 -84 253 -104 46 -20 88 -36 93
-36 10 0 13 2688 3 2714 -3 9 -17 16 -30 16 -24 0 -24 0 -24 119 l0 118 36 6
c20 3 49 4 64 1 15 -4 30 -2 34 4 3 5 -12 12 -35 16 -61 10 -209 61 -296 103
-43 20 -84 37 -90 36 -7 0 -11 2 -8 6 2 4 -16 17 -40 29 -28 14 -44 17 -42 10
3 -20 -43 -21 -64 -2 -16 15 -17 19 -5 33 12 14 8 20 -35 49 l-49 32 0 -494 0
-495 -32 -5 c-109 -18 -644 -74 -650 -68 -16 17 -33 470 -33 887 0 389 2 460
17 527 34 153 97 254 191 308 42 24 46 29 32 38 -21 11 -11 32 16 32 16 0 23
-9 21 -30 0 -3 15 -4 34 -2 29 4 34 8 35 31 0 14 4 61 8 104 3 43 3 81 -1 83
-13 8 -58 102 -79 161 -35 102 -34 154 5 308 38 148 43 193 25 227 -16 30 -2
35 38 12 l37 -21 42 30 c24 17 74 41 111 54 88 30 195 26 302 -11z m1492 -9
c-1 -12 -15 -9 -19 4 -3 6 1 10 8 8 6 -3 11 -8 11 -12z m2860 -2 c-1 -15 -24
-12 -29 3 -3 9 2 13 12 10 10 -1 17 -7 17 -13z m5599 6 c0 -12 -20 -25 -27
-18 -7 7 6 27 18 27 5 0 9 -4 9 -9z m-1405 -41 c-3 -5 -13 -10 -21 -10 -8 0
-14 5 -14 10 0 6 9 10 21 10 11 0 17 -4 14 -10z m-375 -40 c0 -5 -7 -10 -16
-10 -8 0 -12 5 -9 10 3 6 10 10 16 10 5 0 9 -4 9 -10z m1253 -47 c-13 -2 -33
-2 -45 0 -13 2 -3 4 22 4 25 0 35 -2 23 -4z m-10628 -93 c-5 -8 -11 -8 -17 -2
-6 6 -7 16 -3 22 5 8 11 8 17 2 6 -6 7 -16 3 -22z m-1697 2 c2 -7 -6 -12 -17
-12 -21 0 -27 11 -14 24 9 9 26 2 31 -12z m8835 -159 c63 -55 129 -52 166 7
18 30 19 31 25 8 10 -40 6 -150 -8 -219 -27 -127 -114 -255 -195 -289 -28 -11
-31 -17 -31 -56 l0 -44 184 0 184 0 72 -122 c40 -68 81 -137 91 -154 18 -29
19 -57 19 -363 0 -288 -2 -331 -15 -331 -8 0 -15 -5 -15 -10 0 -6 7 -13 15
-16 12 -5 15 -29 15 -130 l0 -124 -130 0 -130 0 0 -180 0 -180 -410 0 -410 0
0 180 0 179 -379 -6 -379 -6 -4 69 c-1 38 -2 94 0 126 3 51 5 57 29 62 40 11
73 37 73 58 0 20 -43 111 -81 174 -16 26 -18 53 -19 210 0 98 -1 188 0 199 0
23 24 -17 140 -232 42 -79 80 -140 85 -135 5 4 5 1 1 -6 -5 -8 5 -41 23 -81
17 -37 38 -96 47 -132 l16 -64 234 -3 c159 -2 234 0 234 7 0 6 -13 11 -29 11
-47 0 -239 39 -294 60 -28 11 -55 16 -60 13 -6 -3 -7 -2 -4 4 6 9 -39 38 -54
35 -3 0 -6 4 -7 11 -1 7 -5 28 -8 47 -7 46 21 130 91 273 30 60 52 114 48 121
-3 6 -3 8 2 4 4 -4 65 90 135 210 l127 217 186 3 187 2 0 39 c0 35 -3 39 -42
57 -122 55 -228 243 -228 406 l0 57 30 -11 c17 -5 61 -8 98 -6 122 7 231 75
269 166 l14 34 28 -58 c15 -33 44 -73 64 -91z m-1055 116 c-2 -6 -8 -10 -13
-10 -5 0 -11 4 -13 10 -2 6 4 11 13 11 9 0 15 -5 13 -11z m-1618 -39 c0 -11
-7 -20 -15 -20 -8 0 -15 9 -15 20 0 11 7 20 15 20 8 0 15 -9 15 -20z m8450 6
c0 -16 -18 -31 -27 -22 -8 8 5 36 17 36 5 0 10 -6 10 -14z m-2140 -27 c0 -6 7
-9 15 -5 8 3 14 2 14 -2 -5 -28 4 -32 72 -32 l70 0 23 -53 c30 -67 48 -83 69
-62 20 19 27 19 27 0 0 -8 -7 -15 -15 -15 -13 0 -12 -4 4 -22 12 -12 23 -30
27 -40 3 -10 17 -21 32 -24 31 -8 62 -32 62 -48 0 -6 -11 -33 -24 -61 l-23
-50 36 -31 36 -32 0 -86 c0 -84 1 -87 33 -117 39 -37 41 -71 8 -120 -37 -55
-40 -80 -15 -128 21 -42 21 -42 3 -83 -10 -23 -27 -49 -38 -59 -10 -10 -24
-27 -30 -37 -6 -11 -19 -31 -30 -46 -26 -36 -33 -140 -13 -188 18 -42 67 -73
103 -64 13 4 36 24 50 45 21 33 25 48 22 97 -3 53 -1 59 16 56 12 -2 16 1 10
9 -5 8 -3 10 5 4 18 -10 59 31 83 85 30 64 35 183 11 230 -10 19 -24 34 -30
33 -7 -2 -10 3 -7 11 3 8 1 17 -5 21 -17 10 -13 44 11 86 21 38 22 39 46 23
62 -40 121 -142 154 -261 19 -71 22 -109 26 -443 4 -351 -19 -984 -37 -1001
-4 -5 -631 61 -678 70 -2 1 -3 224 -3 496 l0 494 -59 -39 c-105 -70 -273 -158
-376 -196 -55 -21 -108 -46 -119 -56 -11 -12 -24 -17 -35 -12 -19 8 -29 7 -96
-5 l-50 -9 43 -1 42 -1 0 -120 0 -120 -25 0 -25 0 0 -512 c-1 -865 0 -910 13
-927 9 -11 9 -15 0 -18 -17 -6 -19 -1263 -2 -1263 5 0 42 14 82 31 40 17 149
62 242 99 94 37 183 74 198 81 l28 13 -2 530 -2 531 74 0 74 0 2 -534 1 -535
94 -37 c179 -70 453 -181 491 -197 30 -13 37 -21 37 -44 0 -27 -2 -28 -50 -28
-48 0 -50 1 -50 29 0 23 -5 29 -27 34 -73 13 -493 60 -498 55 -9 -9 -28 -118
-29 -168 l-1 -45 -45 0 -45 0 -3 40 c-1 22 -7 71 -13 108 -9 58 -13 66 -24 51
-13 -19 -51 -12 -39 7 4 8 -5 9 -32 5 -22 -3 -77 -10 -124 -15 -338 -38 -320
-34 -320 -71 0 -20 -5 -30 -14 -30 -11 0 -16 -14 -18 -47 l-3 -48 -92 -3 -93
-3 0 1456 0 1455 -480 0 -480 0 0 123 0 123 42 14 c75 27 74 58 -4 192 l-38
67 2 197 3 196 21 -38 c11 -22 49 -91 83 -154 75 -137 156 -305 172 -358 l11
-39 44 48 45 47 67 -20 c61 -19 83 -20 247 -14 232 9 453 31 541 54 75 20 156
69 234 142 25 23 61 55 82 71 52 42 233 248 232 265 -1 7 2 12 6 11 14 -3 111
144 103 156 -3 7 -3 9 2 5 4 -4 24 17 43 48 28 45 33 62 29 91 -8 46 -10 47
-46 29 -46 -24 -123 -20 -181 9 -70 36 -126 98 -169 190 -43 89 -58 151 -69
276 -7 84 -7 85 14 81 33 -6 92 26 126 69 23 29 39 39 60 39 15 0 28 -5 28
-11z m-1094 -106 c-11 -11 -19 6 -11 24 8 17 8 17 12 0 3 -10 2 -21 -1 -24z
m-94 -5 c-9 -9 -15 -9 -24 0 -9 9 -7 12 12 12 19 0 21 -3 12 -12z m-6974 -40
c-3 -7 -13 -15 -24 -17 -16 -3 -17 -1 -5 13 16 19 34 21 29 4z m-2028 -33 c0
-8 -6 -15 -14 -15 -17 0 -28 14 -19 24 12 12 33 6 33 -9z m8450 0 c0 -8 -7
-15 -15 -15 -8 0 -15 7 -15 15 0 8 7 15 15 15 8 0 15 -7 15 -15z m-9872 -25
c25 -55 -16 -69 -61 -22 -37 39 -34 52 11 52 32 0 39 -4 50 -30z m8450 0 c8
-16 11 -34 7 -40 -11 -18 -46 -10 -70 16 -36 39 -32 54 13 54 32 0 39 -4 50
-30z m-4648 -25 c0 -8 -7 -15 -15 -15 -8 0 -15 7 -15 15 0 8 7 15 15 15 8 0
15 -7 15 -15z m8450 0 c0 -8 -6 -15 -14 -15 -17 0 -28 14 -19 24 12 12 33 6
33 -9z m-9860 -4 c0 -12 -20 -25 -27 -18 -7 7 6 27 18 27 5 0 9 -4 9 -9z
m8447 -17 c-9 -9 -28 6 -21 18 4 6 10 6 17 -1 6 -6 8 -13 4 -17z m-7387 -19
c0 -8 -4 -15 -9 -15 -13 0 -22 16 -14 24 11 11 23 6 23 -9z m-3530 -10 c13
-16 6 -35 -15 -35 -18 0 -26 15 -19 34 8 20 18 20 34 1z m6816 -12 c-10 -10
-19 5 -10 18 6 11 8 11 12 0 2 -7 1 -15 -2 -18z m1642 -2 c-5 -24 -38 -27 -38
-3 0 10 3 21 6 25 11 11 35 -5 32 -22z m2322 -7 c0 -16 -16 -19 -25 -4 -8 13
4 32 16 25 5 -4 9 -13 9 -21z m-7060 -59 c0 -8 -4 -15 -10 -15 -5 0 -10 7 -10
15 0 8 5 15 10 15 6 0 10 -7 10 -15z m8450 0 c0 -8 -4 -15 -9 -15 -13 0 -22
16 -14 24 11 11 23 6 23 -9z m-13185 -14 c0 -17 -42 -34 -51 -20 -8 14 16 40
35 37 9 -2 16 -9 16 -17z m8450 0 c0 -17 -42 -34 -51 -20 -8 14 16 40 35 37 9
-2 16 -9 16 -17z m2922 -26 c7 -20 -2 -29 -21 -22 -9 4 -13 13 -10 22 8 19 23
19 31 0z m-693 -52 c-15 -32 -27 -63 -27 -70 0 -7 -5 -9 -10 -6 -6 4 -8 -3 -5
-15 4 -12 3 -20 -1 -17 -4 2 -34 -21 -66 -51 -32 -31 -76 -62 -97 -71 -21 -8
-38 -21 -38 -29 0 -11 37 -14 192 -16 l192 -3 58 -92 57 -93 -629 0 c-347 0
-630 2 -630 4 0 2 25 45 56 95 l56 91 229 0 c188 0 229 2 229 14 0 7 -22 23
-48 34 -96 42 -86 48 81 47 144 0 155 1 209 27 67 31 149 105 185 165 35 60
38 54 7 -14z m-10518 6 c3 -6 1 -16 -5 -22 -13 -13 -42 0 -49 21 -5 15 44 16
54 1z m5524 1 c0 -5 -4 -10 -10 -10 -5 0 -10 5 -10 10 0 6 5 10 10 10 6 0 10
-4 10 -10z m8458 -1 c-2 -6 -8 -10 -13 -10 -5 0 -11 4 -13 10 -2 6 4 11 13 11
9 0 15 -5 13 -11z m-9218 -30 c0 -5 -4 -9 -10 -9 -5 0 -10 7 -10 16 0 8 5 12
10 9 6 -3 10 -10 10 -16z m9168 -2 c4 -22 -24 -33 -43 -17 -12 10 -13 16 -4
27 16 18 43 13 47 -10z m-718 -3 c0 -8 -4 -12 -10 -9 -5 3 -10 10 -10 16 0 5
5 9 10 9 6 0 10 -7 10 -16z m-11850 -4 c0 -5 -9 -10 -20 -10 -11 0 -20 5 -20
10 0 6 9 10 20 10 11 0 20 -4 20 -10z m-690 -49 c0 -6 -4 -13 -10 -16 -5 -3
-10 1 -10 9 0 9 5 16 10 16 6 0 10 -4 10 -9z m1044 -10 c3 -5 -1 -11 -9 -15
-9 -3 -15 0 -15 9 0 16 16 20 24 6z m12110 -17 c10 -26 7 -52 -6 -56 -25 -9
-38 4 -38 38 0 27 4 34 19 34 10 0 22 -7 25 -16z m-8451 -41 c-7 -18 -30 -16
-37 3 -4 10 1 22 11 30 15 10 19 10 24 -4 3 -9 4 -23 2 -29z m-4335 -1 c2 -7
-6 -12 -17 -12 -21 0 -27 11 -14 24 9 9 26 2 31 -12z m5032 -7 c0 -8 -4 -15
-10 -15 -5 0 -10 7 -10 15 0 8 5 15 10 15 6 0 10 -7 10 -15z m8452 0 c0 -5 -5
-11 -11 -13 -6 -2 -11 4 -11 13 0 9 5 15 11 13 6 -2 11 -8 11 -13z m-3656 -16
c10 -17 -12 -32 -35 -24 -29 9 -27 35 3 35 14 0 28 -5 32 -11z m2894 -7 c0
-13 -12 -22 -22 -16 -10 6 -1 24 13 24 5 0 9 -4 9 -8z m-11431 -39 c-6 -7 -15
-10 -20 -7 -13 8 -3 21 15 21 12 0 13 -4 5 -14z m5754 -8 c1 -5 -6 -11 -15
-13 -11 -2 -18 3 -18 13 0 17 30 18 33 0z m2947 -14 c0 -5 -7 -17 -16 -26 -13
-13 -19 -13 -31 -3 -13 10 -13 14 3 25 21 15 44 17 44 4z m-4770 -36 c0 -8 -4
-15 -9 -15 -13 0 -22 16 -14 24 11 11 23 6 23 -9z m8455 6 c7 -12 -12 -24 -25
-16 -11 7 -4 25 10 25 5 0 11 -4 15 -9z m-13170 -61 c4 -6 1 -17 -5 -26 -14
-16 -40 -2 -40 22 0 16 36 19 45 4z m6113 -2 c-6 -18 -28 -21 -28 -4 0 9 7 16
16 16 9 0 14 -5 12 -12z m-4498 -13 c0 -8 -4 -15 -10 -15 -5 0 -10 7 -10 15 0
8 5 15 10 15 6 0 10 -7 10 -15z m8447 -12 c-3 -3 -11 -2 -17 2 -9 6 -9 10 1
16 14 8 27 -7 16 -18z m3301 -4 c-2 -6 -8 -10 -13 -10 -5 0 -11 4 -13 10 -2 6
4 11 13 11 9 0 15 -5 13 -11z m-13413 -40 c32 -39 28 -53 -14 -57 -26 -3 -34
1 -38 17 -3 12 -9 21 -14 21 -10 0 -12 34 -2 43 15 15 43 5 68 -24z m6018 -2
c-3 -5 -9 -3 -14 4 -4 7 -5 17 -2 22 3 5 9 3 14 -4 4 -7 5 -17 2 -22z m-1403
-3 c0 -8 -7 -14 -15 -14 -15 0 -21 21 -9 33 10 9 24 -2 24 -19z m8450 0 c0 -8
-7 -14 -15 -14 -15 0 -21 21 -9 33 10 9 24 -2 24 -19z m-14520 -50 c0 -8 -7
-14 -15 -14 -15 0 -21 21 -9 33 10 9 24 -2 24 -19z m14870 -24 c-6 -11 -15
-18 -20 -15 -13 8 0 35 16 35 12 0 12 -4 4 -20z m-7080 -66 c0 -8 -4 -14 -9
-14 -11 0 -22 26 -14 34 9 9 23 -3 23 -20z m100 16 c0 -5 -4 -10 -10 -10 -5 0
-10 5 -10 10 0 6 5 10 10 10 6 0 10 -4 10 -10z m5130 -132 c0 -5 -7 -8 -15 -8
-15 0 -20 21 -8 33 7 7 23 -11 23 -25z m-9482 -5 c-4 -22 -22 -20 -26 1 -2 10
3 16 13 16 10 0 15 -7 13 -17z m8452 3 c0 -8 -4 -18 -10 -21 -5 -3 -10 -4 -10
-1 0 2 -3 11 -6 20 -4 11 -1 16 10 16 9 0 16 -6 16 -14z m-8919 -33 c13 -16
12 -17 -3 -4 -17 13 -22 21 -14 21 2 0 10 -8 17 -17z m8329 2 c0 -8 -7 -15
-15 -15 -8 0 -15 7 -15 15 0 8 7 15 15 15 8 0 15 -7 15 -15z m-10826 -56 c-3
-5 -10 -7 -15 -3 -5 3 -7 10 -3 15 3 5 10 7 15 3 5 -3 7 -10 3 -15z m924 -41
c5 -24 69 -200 142 -393 73 -192 165 -438 205 -545 40 -107 119 -316 175 -465
56 -148 111 -294 122 -322 l19 -53 595 0 594 0 0 -85 0 -85 -652 2 -652 3 -82
245 c-45 135 -191 576 -325 980 -133 404 -244 741 -247 748 -3 8 10 12 46 12
l50 0 10 -42z m12412 39 c0 -1 -110 -335 -244 -742 -135 -407 -282 -853 -328
-992 l-83 -252 -653 -1 -653 0 3 85 3 86 591 -1 c556 0 592 1 599 17 71 182
215 578 212 587 -2 6 2 16 9 21 8 6 47 100 88 210 41 110 133 358 206 550 73
193 137 369 142 393 l10 42 49 0 c27 0 49 -1 49 -3z m-10740 -63 c0 -8 -19
-13 -24 -6 -3 5 1 9 9 9 8 0 15 -2 15 -3z m11600 -136 c0 -16 -3 -19 -11 -11
-6 6 -8 16 -5 22 11 17 16 13 16 -11z m-11292 1 c-2 -6 -8 -10 -13 -10 -5 0
-11 4 -13 10 -2 6 4 11 13 11 9 0 15 -5 13 -11z m8452 2 c0 -14 -18 -23 -30
-16 -6 4 -8 11 -5 16 8 12 35 12 35 0z m-538 -28 c24 -21 23 -43 -1 -43 -32 0
-51 11 -51 29 0 34 23 40 52 14z m3422 -21 c2 -4 1 -14 -4 -22 -7 -11 -12 -12
-21 -3 -6 6 -8 16 -5 22 8 13 23 14 30 3z m-8454 -12 c0 -5 -4 -10 -10 -10 -5
0 -10 5 -10 10 0 6 5 10 10 10 6 0 10 -4 10 -10z m-5999 -23 c-1 -12 -15 -9
-19 4 -3 6 1 10 8 8 6 -3 11 -8 11 -12z m14567 -90 c3 -16 1 -17 -17 -5 -25
16 -27 31 -4 26 10 -2 19 -11 21 -21z m-11873 7 c14 -6 14 -8 -1 -25 -9 -11
-23 -19 -31 -19 -16 0 -17 22 -1 38 14 14 12 14 33 6z m13 -113 c2 -23 0 -32
-9 -29 -14 5 -30 53 -21 63 13 13 27 -3 30 -34z m-100 -53 c-6 -18 -28 -21
-28 -4 0 9 7 16 16 16 9 0 14 -5 12 -12z m9147 -98 c3 -6 -1 -13 -10 -16 -19
-8 -30 0 -20 15 8 14 22 14 30 1z m2401 -1 c10 -17 -13 -36 -27 -22 -12 12 -4
33 11 33 5 0 12 -5 16 -11z m-6487 -143 c17 -21 10 -80 -10 -84 -9 -2 -24 9
-33 23 -16 24 -16 28 -1 51 18 28 28 30 44 10z m7046 -17 c10 -15 -1 -23 -20
-15 -9 3 -13 10 -10 16 8 13 22 13 30 -1z m-8945 -14 c0 -8 -4 -15 -9 -15 -13
0 -22 16 -14 24 11 11 23 6 23 -9z m8455 6 c7 -12 -12 -24 -25 -16 -11 7 -4
25 10 25 5 0 11 -4 15 -9z m-6935 -56 c0 -8 -4 -15 -9 -15 -13 0 -22 16 -14
24 11 11 23 6 23 -9z m6710 -95 c0 -5 -7 -10 -16 -10 -8 0 -12 5 -9 10 3 6 10
10 16 10 5 0 9 -4 9 -10z m425 0 c3 -5 -3 -10 -14 -10 -12 0 -21 5 -21 10 0 6
6 10 14 10 8 0 18 -4 21 -10z m-10241 -6 c9 -3 14 -10 11 -15 -7 -10 -35 0
-35 12 0 11 3 11 24 3z m9199 -69 c1 -5 -6 -11 -15 -13 -11 -2 -18 3 -18 13 0
17 30 18 33 0z m-6463 -15 c0 -5 -2 -10 -4 -10 -3 0 -8 5 -11 10 -3 6 -1 10 4
10 6 0 11 -4 11 -10z m-7180 -69 c0 -22 -29 -36 -43 -22 -15 15 0 41 23 41 13
0 20 -7 20 -19z m7825 -21 c-5 -8 -11 -8 -17 -2 -6 6 -7 16 -3 22 5 8 11 8 17
2 6 -6 7 -16 3 -22z m6417 5 c0 -5 -5 -11 -11 -13 -6 -2 -11 4 -11 13 0 9 5
15 11 13 6 -2 11 -8 11 -13z m654 -30 c8 -20 -13 -45 -32 -38 -14 5 -19 34 -7
46 11 12 33 7 39 -8z m-8456 1 c0 -15 -14 -35 -21 -30 -15 9 -10 34 6 34 8 0
15 -2 15 -4z m-4412 -68 c-6 -18 -28 -21 -28 -4 0 9 7 16 16 16 9 0 14 -5 12
-12z m12247 -28 c0 -18 -34 -24 -55 -10 -13 9 -13 11 0 20 21 14 55 8 55 -10z
m-8455 0 c0 -5 -9 -9 -20 -7 -31 5 -36 17 -7 17 15 0 27 -4 27 -10z m-1630
-25 c0 -8 -6 -15 -14 -15 -17 0 -28 14 -19 24 12 12 33 6 33 -9z m9910 -61 c0
-18 -14 -18 -30 1 -16 19 -3 40 16 24 8 -6 14 -18 14 -25z m-8460 5 c0 -6 -4
-7 -10 -4 -5 3 -10 11 -10 16 0 6 5 7 10 4 6 -3 10 -11 10 -16z m7780 6 c0 -8
-7 -15 -15 -15 -16 0 -20 12 -8 23 11 12 23 8 23 -8z m-12662 -96 c-2 -6 -8
-10 -13 -10 -5 0 -11 4 -13 10 -2 6 4 11 13 11 9 0 15 -5 13 -11z m14198 -50
c8 -14 -11 -33 -25 -25 -11 7 -4 36 9 36 5 0 12 -5 16 -11z m-991 -100 c10
-15 -1 -23 -20 -15 -9 3 -13 10 -10 16 8 13 22 13 30 -1z m-13451 -55 c22 -8
20 -34 -2 -34 -24 0 -32 8 -25 26 6 16 6 16 27 8z m3796 -44 c0 -5 -4 -10 -10
-10 -5 0 -10 5 -10 10 0 6 5 10 10 10 6 0 10 -4 10 -10z m-3520 -36 c0 -17
-22 -14 -28 4 -2 7 3 12 12 12 9 0 16 -7 16 -16z m-882 -31 c-5 -25 -28 -28
-28 -4 0 12 6 21 16 21 9 0 14 -7 12 -17z m14892 -59 c0 -15 -6 -24 -15 -24
-15 0 -21 40 -9 53 12 11 24 -3 24 -29z m-8450 0 c0 -8 -7 -14 -15 -14 -17 0
-18 2 -9 24 7 18 24 12 24 -10z m1240 -59 c0 -8 -7 -15 -15 -15 -8 0 -15 7
-15 15 0 8 7 15 15 15 8 0 15 -7 15 -15z m-6450 -31 c0 -8 -7 -14 -15 -14 -15
0 -21 21 -9 33 10 9 24 -2 24 -19z m3982 4 c11 -10 22 -83 47 -318 25 -248 31
-347 31 -532 l0 -228 24 -6 c21 -5 25 -14 30 -55 3 -27 9 -72 12 -100 l6 -52
-34 7 -35 6 -12 -82 c-6 -46 -12 -101 -14 -123 l-2 -40 -49 -3 -49 -3 6 43 c5
40 -17 185 -32 200 -3 4 -51 1 -105 -8 -54 -8 -101 -12 -104 -10 -2 3 -1 35 4
72 l9 68 100 45 100 45 -3 543 -3 543 29 0 c15 0 35 -6 44 -12z m3553 0 c1 -2
17 -145 34 -318 27 -254 33 -358 33 -538 l1 -222 23 -6 c24 -6 27 -15 40 -142
l6 -63 -34 6 -34 6 -12 -70 c-7 -39 -12 -96 -12 -126 l0 -55 -51 0 -52 0 6 41
c5 42 -17 187 -31 201 -4 4 -52 1 -106 -7 -55 -8 -101 -13 -103 -11 -2 2 -1
34 3 71 l7 67 63 29 c35 15 64 33 64 40 0 6 7 9 15 5 8 -3 25 -1 38 5 l22 10
-1 537 c-1 295 1 541 4 546 4 7 71 2 77 -6z m910 2 c3 -5 1 -10 -4 -10 -6 0
-11 5 -11 10 0 6 2 10 4 10 3 0 8 -4 11 -10z m3645 -26 c0 -8 -4 -14 -10 -14
-5 0 -10 9 -10 21 0 11 5 17 10 14 6 -3 10 -13 10 -21z m-11690 -19 c0 -8 -4
-15 -9 -15 -13 0 -22 16 -14 24 11 11 23 6 23 -9z m330 -6 c0 -24 -23 -21 -28
4 -2 10 3 17 12 17 10 0 16 -9 16 -21z m-940 -37 c0 -13 -12 -22 -22 -16 -10
6 -1 24 13 24 5 0 9 -4 9 -8z m5000 -23 c0 -5 -7 -9 -15 -9 -15 0 -20 12 -9
23 8 8 24 -1 24 -14z m8455 1 c3 -5 -3 -10 -14 -10 -12 0 -21 5 -21 10 0 6 6
10 14 10 8 0 18 -4 21 -10z m-3383 -25 c0 -5 -5 -11 -11 -13 -6 -2 -11 4 -11
13 0 9 5 15 11 13 6 -2 11 -8 11 -13z m3775 -7 c16 -20 23 -84 10 -97 -6 -6
-20 -11 -31 -11 -35 1 -56 24 -56 63 0 24 6 39 18 46 23 14 48 13 59 -1z
m-8461 -6 c15 -10 25 -80 13 -88 -21 -13 -67 7 -74 33 -10 40 30 76 61 55z
m8996 -47 c8 -19 8 -28 -2 -40 -18 -22 -27 -19 -39 16 -15 44 -14 49 9 49 12
0 25 -10 32 -25z m-8457 -6 c4 -12 2 -26 -4 -32 -13 -13 -16 -10 -25 26 -8 33
19 39 29 6z m-6560 -10 c0 -7 -8 -15 -17 -17 -18 -3 -25 18 -11 32 10 10 28 1
28 -15z m7128 -49 c4 0 7 -28 7 -62 l0 -63 -697 2 -698 3 -3 62 -3 63 693 -2
c381 -2 696 -3 701 -3z m2575 0 l673 0 -3 -61 -3 -60 -697 -2 -698 -2 0 61 c0
67 5 78 35 70 11 -3 323 -6 693 -6z m-9956 -32 c-9 -9 -15 -9 -24 0 -9 9 -7
12 12 12 19 0 21 -3 12 -12z m5968 -57 c0 -5 -6 -14 -14 -20 -16 -13 -32 2
-21 19 8 12 35 13 35 1z m8450 0 c0 -5 -6 -14 -14 -20 -10 -9 -15 -8 -19 3 -3
8 -3 17 0 20 9 9 33 7 33 -3z m-11506 -40 c3 -5 -1 -14 -8 -20 -16 -13 -32 2
-21 19 8 12 22 13 29 1z m8452 -2 c10 -17 -13 -36 -27 -22 -12 12 -4 33 11 33
5 0 12 -5 16 -11z m-4501 -1375 c107 -49 351 -158 452 -202 58 -25 63 -29 63
-59 0 -32 -1 -33 -45 -33 -43 0 -45 1 -45 30 0 22 5 30 18 31 18 1 -299 48
-452 67 -50 7 -91 10 -93 8 -7 -7 -31 -172 -29 -206 1 -35 1 -35 -47 -38 l-49
-3 4 43 c1 24 -4 81 -11 126 l-15 84 -35 -6 c-20 -3 -81 -10 -136 -16 -55 -6
-118 -15 -140 -20 -22 -4 -87 -14 -144 -21 -58 -7 -99 -15 -93 -17 7 -2 12
-17 12 -33 0 -28 -2 -29 -45 -29 -44 0 -45 1 -45 33 0 31 4 33 88 69 113 48
378 166 465 208 l67 32 0 489 c0 475 -1 489 -19 480 -23 -13 -31 -5 -31 31 0
32 16 37 36 11 11 -15 13 -4 14 79 l0 97 73 3 72 3 5 -598 5 -597 100 -46z
m3135 992 c0 -175 3 -245 12 -254 9 -9 9 -15 0 -24 -9 -9 -12 -98 -12 -340 l0
-328 33 -14 c231 -101 588 -265 588 -270 -1 -3 -1 -17 -1 -31 0 -23 -4 -25
-45 -25 -43 0 -45 1 -45 30 0 17 6 31 13 31 14 2 -183 32 -348 53 -60 8 -129
18 -151 22 -38 6 -42 4 -47 -17 -10 -45 -20 -124 -21 -174 l-1 -50 -48 -3 -49
-3 3 43 c2 24 -3 80 -11 126 l-14 83 -50 -6 c-28 -4 -145 -20 -259 -36 -114
-16 -220 -30 -235 -30 -17 -1 -20 -3 -9 -6 9 -2 17 -13 17 -24 0 -10 7 -19 15
-19 8 0 15 -4 15 -10 0 -6 -27 -10 -60 -10 l-60 0 0 33 c0 29 4 34 53 53 89
37 317 138 422 188 55 27 110 52 123 57 l22 9 0 593 c0 327 2 596 4 598 2 2
36 3 75 1 l71 -4 0 -242z m5480 178 c0 -14 -21 -19 -33 -7 -9 9 13 34 24 27 5
-3 9 -12 9 -20z m-14340 -9 c0 -2 -7 -5 -15 -9 -9 -3 -15 0 -15 9 0 9 6 12 15
9 8 -4 15 -7 15 -9z m1655 5 c-3 -5 -12 -7 -20 -3 -21 7 -19 13 6 13 11 0 18
-4 14 -10z m8455 0 c0 -5 -4 -10 -9 -10 -6 0 -13 5 -16 10 -3 6 1 10 9 10 9 0
16 -4 16 -10z m-7762 -12 c-6 -18 -28 -21 -28 -4 0 9 7 16 16 16 9 0 14 -5 12
-12z m8452 -3 c0 -8 -7 -15 -15 -15 -8 0 -15 7 -15 15 0 8 7 15 15 15 8 0 15
-7 15 -15z m3030 -50 c0 -8 -7 -15 -15 -15 -8 0 -15 7 -15 15 0 8 7 15 15 15
8 0 15 -7 15 -15z m-13049 -10 c-1 -15 -24 -12 -29 3 -3 9 2 13 12 10 10 -1
17 -7 17 -13z m11374 5 c3 -5 -1 -10 -9 -10 -9 0 -16 5 -16 10 0 6 4 10 9 10
6 0 13 -4 16 -10z m-12561 -21 c-8 -14 -24 -10 -24 6 0 9 6 12 15 9 8 -4 12
-10 9 -15z m8446 1 c0 -5 -4 -10 -10 -10 -5 0 -10 5 -10 10 0 6 5 10 10 10 6
0 10 -4 10 -10z m5864 -15 c21 -32 20 -42 -6 -48 -44 -12 -85 36 -52 60 26 19
40 16 58 -12z m-14788 4 c10 -17 -13 -36 -27 -22 -12 12 -4 33 11 33 5 0 12
-5 16 -11z m14464 -34 c0 -8 -6 -15 -14 -15 -17 0 -28 14 -19 24 12 12 33 6
33 -9z m-2800 -40 c9 -11 10 -19 2 -27 -12 -12 -28 -4 -42 23 -9 16 -7 19 8
19 11 0 25 -7 32 -15z m-6240 -15 c0 -5 -7 -10 -15 -10 -8 0 -15 5 -15 10 0 6
7 10 15 10 8 0 15 -4 15 -10z m8450 0 c0 -5 -7 -10 -15 -10 -8 0 -15 5 -15 10
0 6 7 10 15 10 8 0 15 -4 15 -10z m-12206 -49 c3 -5 -1 -14 -8 -20 -16 -13
-32 2 -21 19 8 12 22 13 29 1z m13536 -112 c0 -5 -7 -9 -15 -9 -15 0 -20 12
-9 23 8 8 24 -1 24 -14z m-12430 -19 c0 -5 -4 -10 -10 -10 -5 0 -10 5 -10 10
0 6 5 10 10 10 6 0 10 -4 10 -10z m8455 0 c-3 -5 -10 -10 -16 -10 -5 0 -9 5
-9 10 0 6 7 10 16 10 8 0 12 -4 9 -10z m-7372 -44 c7 -18 -1 -26 -25 -26 -18
0 -25 20 -11 33 11 12 31 8 36 -7z m8452 -6 c0 -8 -10 -16 -22 -18 -22 -3 -32
16 -16 32 12 11 38 2 38 -14z m2385 -5 c0 -8 -4 -15 -10 -15 -5 0 -10 7 -10
15 0 8 5 15 10 15 6 0 10 -7 10 -15z m-13385 -5 c7 -12 -12 -40 -27 -40 -16 0
-21 32 -7 41 18 12 26 11 34 -1z m-1527 -17 c-4 -22 -22 -20 -26 1 -2 10 3 16
13 16 10 0 15 -7 13 -17z m292 7 c0 -5 -4 -10 -10 -10 -5 0 -10 5 -10 10 0 6
5 10 10 10 6 0 10 -4 10 -10z m8160 -4 c0 -8 -4 -17 -9 -21 -12 -7 -24 12 -16
25 9 15 25 12 25 -4z m-8590 -46 c0 -5 -4 -10 -9 -10 -6 0 -13 5 -16 10 -3 6
1 10 9 10 9 0 16 -4 16 -10z m150 -8 c0 -13 -12 -22 -22 -16 -10 6 -1 24 13
24 5 0 9 -4 9 -8z m1790 -13 c0 -5 -7 -9 -15 -9 -15 0 -20 12 -9 23 8 8 24 -1
24 -14z m-1140 -34 c0 -8 -4 -15 -9 -15 -13 0 -22 16 -14 24 11 11 23 6 23 -9z
m8450 0 c0 -8 -7 -15 -15 -15 -16 0 -20 12 -8 23 11 12 23 8 23 -8z m3653 -1
c11 -11 -3 -24 -18 -18 -8 4 -12 10 -9 15 6 11 18 12 27 3z m-7136 -158 c56
-25 107 -46 113 -46 7 0 10 -14 8 -32 -3 -32 -5 -33 -50 -36 -47 -3 -48 -3
-48 27 0 16 5 31 11 33 6 2 -35 9 -92 16 -57 7 -132 18 -167 24 l-63 10 7 57
c3 31 8 59 10 63 3 4 41 -11 87 -31 45 -21 128 -59 184 -85z m3378 74 c39 -17
84 -38 100 -45 189 -85 187 -83 183 -112 -3 -26 -7 -28 -50 -31 -47 -3 -48 -3
-48 27 0 16 5 31 12 33 6 2 -51 12 -128 22 -213 26 -197 20 -189 75 10 74 14
82 33 72 9 -5 49 -23 87 -41z m-7233 25 c0 -5 -5 -11 -11 -13 -6 -2 -11 4 -11
13 0 9 5 15 11 13 6 -2 11 -8 11 -13z m13678 -14 c0 -6 -4 -13 -10 -16 -5 -3
-10 1 -10 9 0 9 5 16 10 16 6 0 10 -4 10 -9z m-625 -20 c7 -12 -12 -24 -25
-16 -11 7 -4 25 10 25 5 0 11 -4 15 -9z m-10212 -48 c4 -20 5 -38 4 -40 -6 -5
-123 -21 -129 -16 -5 2 -8 14 -8 27 0 18 9 26 41 36 22 8 42 17 45 22 3 4 13
8 23 8 13 0 20 -10 24 -37z m3540 0 c4 -20 5 -38 4 -39 -2 -2 -48 -10 -102
-17 -55 -8 -92 -15 -82 -16 14 -1 18 -8 15 -28 -3 -26 -7 -28 -50 -31 l-48 -3
0 33 c1 32 3 34 118 85 64 29 122 53 128 53 6 0 14 -17 17 -37z m6647 -23 c14
-26 3 -45 -16 -29 -16 13 -19 49 -4 49 5 0 14 -9 20 -20z m-14520 6 c0 -15
-14 -35 -21 -30 -15 9 -10 34 6 34 8 0 15 -2 15 -4z m818 -8 c-3 -7 -11 -13
-18 -13 -7 0 -15 6 -17 13 -3 7 4 12 17 12 13 0 20 -5 18 -12z m7625 6 c9 -9
-4 -35 -14 -28 -5 3 -9 12 -9 20 0 14 12 19 23 8z m4632 0 c8 -4 22 -19 30
-34 13 -25 12 -29 -4 -44 -16 -15 -20 -14 -57 19 -38 34 -38 35 -20 50 22 17
27 18 51 9z m-8426 -30 c26 -33 26 -41 1 -54 -16 -9 -26 -5 -56 23 -41 37 -39
57 6 57 19 0 35 -9 49 -26z m-73 -100 c-6 -17 -8 -17 -24 0 -15 15 -15 18 -2
26 19 12 35 -3 26 -26z m8454 5 c0 -20 -24 -26 -35 -9 -4 6 -4 17 -1 25 7 20
36 7 36 -16z m-13432 10 c-2 -6 -8 -10 -13 -10 -5 0 -11 4 -13 10 -2 6 4 11
13 11 9 0 15 -5 13 -11z m3951 -105 c-6 -7 -17 -10 -25 -7 -17 6 -18 15 -2 31
17 17 43 -5 27 -24z m11401 11 c0 -8 -7 -15 -15 -15 -16 0 -20 12 -8 23 11 12
23 8 23 -8z m-8460 -5 c0 -5 -5 -10 -11 -10 -5 0 -7 5 -4 10 3 6 8 10 11 10 2
0 4 -4 4 -10z m-7228 -55 c0 -5 -5 -11 -11 -13 -6 -2 -11 4 -11 13 0 9 5 15
11 13 6 -2 11 -8 11 -13z m8444 -12 c-10 -10 -19 5 -10 18 6 11 8 11 12 0 2
-7 1 -15 -2 -18z m-4008 -4 c-2 -6 -8 -10 -13 -10 -5 0 -11 4 -13 10 -2 6 4
11 13 11 9 0 15 -5 13 -11z m-2936 -26 c27 -24 22 -33 -16 -33 -37 0 -51 12
-42 35 7 20 35 19 58 -2z m8408 -19 c0 -8 -4 -12 -10 -9 -5 3 -10 13 -10 21 0
8 5 12 10 9 6 -3 10 -13 10 -21z m-4085 6 c3 -5 -1 -10 -10 -10 -9 0 -13 5
-10 10 3 6 8 10 10 10 2 0 7 -4 10 -10z m8455 0 c0 -5 -7 -10 -15 -10 -8 0
-15 5 -15 10 0 6 7 10 15 10 8 0 15 -4 15 -10z m565 -40 c0 -7 -6 -15 -12 -17
-8 -3 -13 4 -13 17 0 13 5 20 13 18 6 -3 12 -11 12 -18z m-8445 0 c0 -5 -7
-10 -15 -10 -8 0 -15 5 -15 10 0 6 7 10 15 10 8 0 15 -4 15 -10z m-1480 -20
c0 -5 -7 -10 -15 -10 -8 0 -15 5 -15 10 0 6 7 10 15 10 8 0 15 -4 15 -10z
m8450 0 c0 -5 -7 -10 -16 -10 -8 0 -12 5 -9 10 3 6 10 10 16 10 5 0 9 -4 9
-10z m-11972 -42 c2 -9 -6 -21 -17 -27 -16 -9 -24 -7 -41 11 -29 31 -25 40 17
36 26 -2 39 -8 41 -20z m8446 5 c6 -15 -8 -32 -26 -33 -10 0 -38 30 -38 41 0
17 57 10 64 -8z m-4354 3 c0 -11 -19 -15 -25 -6 -3 5 1 10 9 10 9 0 16 -2 16
-4z m8450 0 c0 -11 -19 -15 -25 -6 -3 5 1 10 9 10 9 0 16 -2 16 -4z m1384 -32
c21 -8 20 -20 0 -28 -23 -9 -54 2 -54 20 0 14 27 19 54 8z m-8444 -14 c0 -5
-2 -10 -4 -10 -3 0 -8 5 -11 10 -3 6 -1 10 4 10 6 0 11 -4 11 -10z m-6490 -15
c0 -8 -7 -15 -15 -15 -16 0 -20 12 -8 23 11 12 23 8 23 -8z m2470 0 c0 -8 -4
-15 -10 -15 -5 0 -10 7 -10 15 0 8 5 15 10 15 6 0 10 -7 10 -15z m8445 6 c3
-5 1 -12 -5 -16 -5 -3 -10 1 -10 9 0 18 6 21 15 7z m-2465 -11 c0 -5 -7 -10
-15 -10 -8 0 -15 5 -15 10 0 6 7 10 15 10 8 0 15 -4 15 -10z m6644 -39 c9 -14
-4 -41 -19 -41 -15 0 -28 27 -19 41 3 5 11 9 19 9 8 0 16 -4 19 -9z m-11414
-11 c0 -5 -5 -10 -11 -10 -5 0 -7 5 -4 10 3 6 8 10 11 10 2 0 4 -4 4 -10z
m8450 0 c0 -5 -5 -10 -11 -10 -5 0 -7 5 -4 10 3 6 8 10 11 10 2 0 4 -4 4 -10z
m-6510 -101 c0 -12 -27 -11 -35 1 -11 17 5 32 21 19 8 -6 14 -15 14 -20z
m8450 0 c0 -12 -27 -11 -35 1 -11 17 5 32 21 19 8 -6 14 -15 14 -20z m-11930
7 c0 -3 -4 -8 -10 -11 -5 -3 -10 -1 -10 4 0 6 5 11 10 11 6 0 10 -2 10 -4z
m8440 -6 c0 -5 -2 -10 -4 -10 -3 0 -8 5 -11 10 -3 6 -1 10 4 10 6 0 11 -4 11
-10z m-5017 -54 c36 -31 36 -56 -1 -56 -40 0 -78 51 -55 73 12 12 27 7 56 -17z
m8457 -5 c30 -25 33 -31 21 -45 -25 -30 -71 -13 -85 31 -16 49 14 56 64 14z
m-9902 -57 c-10 -10 -28 6 -28 24 0 15 1 15 17 -1 9 -9 14 -19 11 -23z m8446
20 c4 -9 4 -19 2 -21 -8 -8 -26 8 -26 23 0 19 16 18 24 -2z m-11634 -15 c0 -5
-7 -9 -15 -9 -8 0 -15 7 -15 15 0 9 6 12 15 9 8 -4 15 -10 15 -15z m804 0 c-3
-5 -10 -7 -15 -3 -5 3 -7 10 -3 15 3 5 10 7 15 3 5 -3 7 -10 3 -15z m2356 -64
c0 -8 -4 -15 -10 -15 -5 0 -10 7 -10 15 0 8 5 15 10 15 6 0 10 -7 10 -15z
m8450 -6 c0 -5 -4 -9 -10 -9 -5 0 -10 7 -10 16 0 8 5 12 10 9 6 -3 10 -10 10
-16z m-9080 -19 c0 -5 -2 -10 -4 -10 -3 0 -8 5 -11 10 -3 6 -1 10 4 10 6 0 11
-4 11 -10z m8450 0 c0 -5 -4 -10 -10 -10 -5 0 -10 5 -10 10 0 6 5 10 10 10 6
0 10 -4 10 -10z m-11670 -15 c0 -8 -4 -15 -10 -15 -5 0 -10 7 -10 15 0 8 5 15
10 15 6 0 10 -7 10 -15z m14362 -57 c-12 -12 -35 -1 -27 12 3 5 13 6 21 3 10
-4 12 -9 6 -15z m-13250 -3 c0 -5 -5 -11 -11 -13 -6 -2 -11 4 -11 13 0 9 5 15
11 13 6 -2 11 -8 11 -13z m8448 -1 c0 -8 -5 -12 -10 -9 -6 4 -8 11 -5 16 9 14
15 11 15 -7z m-9580 -40 c0 -9 -5 -14 -12 -12 -18 6 -21 28 -4 28 9 0 16 -7
16 -16z m1784 -5 c-8 -14 -24 -10 -24 6 0 9 6 12 15 9 8 -4 12 -10 9 -15z
m6666 11 c0 -5 -4 -10 -10 -10 -5 0 -10 5 -10 10 0 6 5 10 10 10 6 0 10 -4 10
-10z m-6515 -20 c3 -5 -1 -10 -9 -10 -9 0 -16 5 -16 10 0 6 4 10 9 10 6 0 13
-4 16 -10z m-1647 -43 c4 -21 -25 -34 -40 -19 -8 8 -8 16 2 27 16 19 34 15 38
-8z m1510 1 c-6 -18 -28 -21 -28 -4 0 9 7 16 16 16 9 0 14 -5 12 -12z m6933
-3 c0 -6 -10 -12 -23 -13 -19 -4 -20 -2 -9 12 15 17 33 18 32 1z m1509 -1 c0
-8 -5 -12 -10 -9 -6 4 -8 11 -5 16 9 14 15 11 15 -7z m-8740 -4 c0 -5 -4 -10
-10 -10 -5 0 -10 5 -10 10 0 6 5 10 10 10 6 0 10 -4 10 -10z m8450 0 c0 -5 -4
-10 -10 -10 -5 0 -10 5 -10 10 0 6 5 10 10 10 6 0 10 -4 10 -10z m2282 -15 c0
-5 -5 -11 -11 -13 -6 -2 -11 4 -11 13 0 9 5 15 11 13 6 -2 11 -8 11 -13z
m2406 -2 c-5 -26 -38 -29 -38 -4 0 15 6 21 21 21 14 0 19 -5 17 -17z m-10858
-3 c0 -5 -4 -10 -10 -10 -5 0 -10 5 -10 10 0 6 5 10 10 10 6 0 10 -4 10 -10z
m2403 -5 c-6 -17 -25 -15 -31 3 -2 7 5 12 17 12 14 0 19 -5 14 -15z m-2905
-66 c-2 -6 -8 -10 -13 -10 -5 0 -11 4 -13 10 -2 6 4 11 13 11 9 0 15 -5 13
-11z m8450 0 c-2 -6 -8 -10 -13 -10 -5 0 -11 4 -13 10 -2 6 4 11 13 11 9 0 15
-5 13 -11z m-11810 -101 c-3 -7 -11 -13 -18 -13 -7 0 -15 6 -17 13 -3 7 4 12
17 12 13 0 20 -5 18 -12z m7128 -9 c6 -5 15 -5 19 -1 5 4 5 2 2 -4 -3 -5 28
-43 69 -84 41 -40 74 -79 74 -86 0 -7 5 -14 12 -16 7 -3 -27 -45 -75 -95 -48
-49 -83 -94 -79 -98 4 -5 2 -5 -5 -1 -6 3 -14 2 -18 -4 -3 -5 -18 -10 -33 -10
-21 0 -49 21 -120 92 -57 56 -92 99 -92 112 0 13 36 57 96 117 97 97 114 106
150 78z m1324 12 c0 -14 -18 -23 -30 -16 -6 4 -8 11 -5 16 8 12 35 12 35 0z
m-1552 -53 c16 -16 15 -38 -2 -38 -18 0 -39 27 -31 40 8 13 18 13 33 -2z
m8460 -17 c15 -22 15 -23 -9 -19 -16 2 -25 10 -27 27 -4 29 15 25 36 -8z
m-10678 9 c0 -5 -4 -10 -10 -10 -5 0 -10 5 -10 10 0 6 5 10 10 10 6 0 10 -4
10 -10z m4080 -110 l5 -115 33 1 c30 0 33 -2 30 -25 -3 -24 -7 -26 -47 -25
-65 1 -71 16 -71 154 0 64 3 120 7 124 4 4 14 5 23 4 12 -3 16 -25 20 -118z
m4380 110 c0 -5 -7 -10 -15 -10 -8 0 -15 5 -15 10 0 6 7 10 15 10 8 0 15 -4
15 -10z m-4037 -35 c9 -4 17 -16 17 -27 0 -22 4 -21 -85 -1 -25 5 -61 -20 -51
-35 4 -7 25 -15 46 -18 86 -14 133 -68 99 -115 -10 -14 -16 -29 -13 -32 3 -3
-1 -5 -8 -4 -7 1 -29 -2 -48 -6 -63 -14 -161 37 -121 63 10 5 25 3 42 -6 33
-17 63 -18 90 -4 34 19 21 37 -39 54 -76 21 -102 40 -102 76 0 20 9 36 30 52
27 21 38 23 78 18 26 -4 55 -11 65 -15z m-1183 -14 c28 -21 55 -82 47 -106 -5
-12 -24 -15 -92 -15 -92 0 -109 -12 -60 -44 33 -22 48 -20 83 9 35 30 38 30
46 9 9 -23 -17 -59 -54 -74 -44 -18 -102 0 -132 43 -28 40 -31 116 -4 145 9
11 16 25 14 32 -2 7 9 14 26 15 15 2 31 7 35 10 10 10 64 -4 91 -24z m635 5
c26 -17 58 -80 53 -104 -3 -14 -17 -17 -91 -20 -94 -3 -110 -15 -62 -46 33
-22 48 -20 84 10 32 27 51 25 51 -6 0 -21 -42 -58 -76 -66 -68 -17 -138 47
-138 126 0 101 99 159 179 106z m-4757 -2 c27 -19 28 -40 3 -54 -26 -13 -27
-13 -51 12 -31 34 -27 46 20 57 3 0 16 -6 28 -15z m3658 -19 c7 -19 31 -70 53
-114 39 -79 39 -101 3 -101 -16 0 -122 219 -115 237 10 26 44 14 59 -22z m178
27 c2 -4 -9 -37 -24 -72 -16 -36 -30 -70 -30 -76 0 -6 -10 -19 -22 -30 -12
-10 -18 -14 -15 -7 4 6 2 22 -3 35 -16 33 39 158 69 158 11 0 22 -4 25 -8z
m480 -9 c6 -15 9 -15 17 -3 9 13 10 13 6 -1 -3 -9 23 -51 64 -103 68 -87 85
-126 52 -126 -18 0 -93 76 -84 87 3 3 0 3 -7 -1 -7 -5 -11 -15 -8 -23 3 -8 2
-12 -3 -9 -4 3 -20 -8 -35 -24 -14 -17 -31 -30 -36 -30 -14 0 -30 44 -19 48 5
2 9 10 9 18 0 9 4 13 8 10 5 -3 19 8 31 25 l22 30 -35 41 c-35 41 -42 58 -29
71 12 13 41 7 47 -10z m153 1 c3 -9 -5 -26 -21 -43 -14 -15 -23 -30 -19 -34 3
-4 -4 -7 -16 -7 -12 0 -20 4 -16 9 3 5 1 12 -5 16 -15 9 -12 18 15 48 29 30
53 35 62 11z m3981 0 c28 -19 29 -50 1 -57 -27 -7 -49 1 -49 19 0 8 -4 14 -10
14 -5 0 -10 6 -10 14 0 12 9 18 40 25 3 0 16 -6 28 -15z m-8145 -9 c1 -5 -6
-11 -15 -13 -11 -2 -18 3 -18 13 0 17 30 18 33 0z m1905 -69 c3 -64 0 -76 -13
-76 -14 0 -16 12 -14 73 1 39 4 75 6 80 11 21 19 -9 21 -77z m460 -6 l-3 -73
-33 -2 c-43 -3 -62 17 -62 65 0 39 11 50 51 50 12 0 19 7 19 18 0 10 3 22 7
25 16 16 24 -15 21 -83z m6085 75 c1 -5 -6 -11 -15 -13 -11 -2 -18 3 -18 13 0
17 30 18 33 0z m-6793 -69 l0 -74 -37 -7 c-44 -8 -63 10 -63 60 0 37 15 55 47
55 16 0 23 6 23 20 0 11 7 20 15 20 12 0 15 -15 15 -74z m810 55 c0 -15 8 -21
33 -23 27 -3 33 -7 35 -32 7 -63 -18 -92 -68 -79 -18 5 -20 14 -20 79 0 43 4
74 10 74 6 0 10 -9 10 -19z m-4904 -2 c10 -17 -13 -36 -27 -22 -12 12 -4 33
11 33 5 0 12 -5 16 -11z m8450 0 c8 -14 -18 -31 -30 -19 -9 9 0 30 14 30 5 0
12 -5 16 -11z m-4189 -19 c23 0 33 -4 30 -12 -2 -7 -14 -12 -25 -10 -13 2 -22
-2 -22 -9 0 -7 3 -9 7 -6 10 10 43 -23 43 -43 0 -26 -26 -43 -55 -36 -32 8
-32 26 0 26 32 0 32 18 1 30 -20 7 -24 15 -20 35 2 14 0 25 -6 25 -6 0 -8 5
-4 12 6 9 9 9 12 0 2 -7 19 -12 39 -12z m430 -25 c2 -34 1 -35 -33 -35 -24 0
-34 -4 -31 -12 2 -7 16 -13 30 -13 32 1 36 -21 7 -30 -13 -4 -31 0 -46 10 -20
13 -24 23 -22 56 2 41 3 42 68 52 14 3 25 5 25 6 0 0 1 -15 2 -34z m395 11
c-5 -6 -17 -36 -27 -66 -21 -66 -37 -85 -62 -76 -17 7 -16 8 5 24 21 17 22 20
9 50 -7 18 -17 29 -22 25 -4 -5 -5 -2 -1 4 4 7 2 22 -4 33 -9 17 -8 20 9 20
13 0 21 -9 26 -30 4 -16 11 -30 17 -30 6 0 8 9 5 20 -3 11 -2 18 3 15 4 -3 10
4 13 15 3 14 10 18 21 14 11 -4 13 -10 8 -18z m-5572 5 c0 -6 -4 -13 -10 -16
-5 -3 -10 1 -10 9 0 9 5 16 10 16 6 0 10 -4 10 -9z m4688 -23 c3 -26 1 -28
-33 -28 -39 0 -46 -22 -9 -28 42 -7 50 -14 26 -23 -52 -20 -94 29 -72 86 9 23
15 26 47 23 33 -3 38 -7 41 -30z m264 -31 c4 -74 -12 -101 -58 -95 -39 4 -44
28 -5 28 17 0 31 4 31 9 0 5 -8 7 -19 4 -26 -7 -51 23 -51 61 0 42 16 56 61
56 l37 0 4 -63z m113 8 c0 -64 -18 -75 -25 -15 -7 61 -34 63 -38 3 -2 -29 -8
-43 -18 -43 -10 0 -14 14 -14 56 l0 55 47 -3 48 -3 0 -50z m3385 47 c0 -13
-12 -22 -22 -16 -10 6 -1 24 13 24 5 0 9 -4 9 -8z m-9635 -13 c10 -15 -1 -23
-20 -15 -9 3 -13 10 -10 16 8 13 22 13 30 -1z m3855 -14 c0 -8 -7 -15 -15 -15
-8 0 -15 7 -15 15 0 8 7 15 15 15 8 0 15 -7 15 -15z m1670 5 c0 -5 -7 -10 -15
-10 -8 0 -15 5 -15 10 0 6 7 10 15 10 8 0 15 -4 15 -10z m6783 -5 c1 -5 -6
-11 -15 -13 -11 -2 -18 3 -18 13 0 17 30 18 33 0z m1667 6 c0 -17 -18 -21 -24
-6 -3 9 0 15 9 15 8 0 15 -4 15 -9z m-5020 -35 c0 -2 -7 -7 -16 -10 -8 -3 -12
-2 -9 4 6 10 25 14 25 6z m-2075 -36 c-5 -8 -11 -8 -17 -2 -6 6 -7 16 -3 22 5
8 11 8 17 2 6 -6 7 -16 3 -22z m8455 15 c0 -8 -7 -15 -15 -15 -8 0 -15 7 -15
15 0 8 7 15 15 15 8 0 15 -7 15 -15z m-14556 -16 c-3 -5 -10 -7 -15 -3 -5 3
-7 10 -3 15 3 5 10 7 15 3 5 -3 7 -10 3 -15z m2565 -15 c-9 -11 -15 -11 -25
-3 -10 8 -11 14 -1 24 17 19 42 -2 26 -21z m5885 15 c-3 -5 -10 -7 -15 -3 -5
3 -7 10 -3 15 3 5 10 7 15 3 5 -3 7 -10 3 -15z m2564 -6 c-4 -22 -22 -20 -26
1 -2 10 3 16 13 16 10 0 15 -7 13 -17z m-3005 -8 c-3 -9 -8 -14 -10 -11 -3 3
-2 9 2 15 9 16 15 13 8 -4z m-1323 -184 c0 -14 -18 -23 -30 -16 -6 4 -8 11 -5
16 8 12 35 12 35 0z m5396 -50 c-8 -13 -36 -15 -36 -3 0 4 5 13 12 20 14 14
34 0 24 -17z m-8448 7 c-3 -7 -15 -15 -28 -16 -21 -3 -22 -2 -11 12 16 19 44
21 39 4z"/>
<path d="M1849 9093 c17 -32 80 -98 81 -85 0 6 -3 12 -7 12 -5 0 -21 21 -38
45 -29 43 -56 64 -36 28z"/>
<path d="M1966 8959 c-54 -42 -68 -98 -41 -163 39 -93 183 -102 231 -14 20 34
17 98 -6 135 -37 62 -131 84 -184 42z"/>
<path d="M2160 8685 c0 -4 17 -27 38 -52 20 -25 51 -65 67 -88 55 -78 114
-153 126 -161 18 -11 6 7 -109 158 -97 129 -122 158 -122 143z"/>
<path d="M4517 8319 c-9 -12 -41 -48 -71 -79 -31 -32 -56 -63 -56 -69 0 -14
34 -31 63 -31 29 0 100 68 118 113 10 24 10 34 -2 55 -19 34 -34 37 -52 11z"/>
<path d="M13782 8098 c-16 -16 -15 -33 4 -48 22 -19 54 12 38 37 -14 22 -27
26 -42 11z"/>
<path d="M5039 5095 c-157 -227 -207 -321 -190 -353 6 -11 32 -28 58 -40 50
-21 198 -50 208 -40 3 3 4 126 3 274 l-3 269 -76 -110z"/>
<path d="M5950 4930 l0 -270 28 0 c38 0 173 35 210 54 43 22 45 41 11 109 -28
58 -236 377 -245 377 -2 0 -4 -121 -4 -270z"/>
<path d="M6150 4549 c-41 -10 -103 -22 -137 -25 -111 -12 -67 -25 74 -22 l137
3 7 33 c3 17 4 32 0 31 -3 -1 -40 -10 -81 -20z"/>
<path d="M3853 4503 c9 -2 23 -2 30 0 6 3 -1 5 -18 5 -16 0 -22 -2 -12 -5z"/>
<path d="M8598 5123 c-82 -115 -162 -242 -192 -304 -28 -60 -31 -74 -16 -64 5
3 7 0 4 -8 -3 -8 6 -21 20 -31 28 -18 175 -56 219 -56 l27 0 0 270 c0 149 -2
270 -3 270 -2 0 -29 -35 -59 -77z"/>
<path d="M9490 4932 c0 -150 3 -272 8 -272 4 0 41 70 82 154 l76 154 -74 109
c-40 59 -78 112 -83 118 -5 5 -9 -96 -9 -263z"/>
<path d="M6727 2885 c-4 -8 -2 -17 3 -20 6 -4 10 3 10 14 0 25 -6 27 -13 6z"/>
<path d="M6755 2871 c-3 -5 -1 -12 5 -16 5 -3 10 1 10 9 0 18 -6 21 -15 7z"/>
<path d="M7286 2877 c3 -10 9 -15 12 -12 3 3 0 11 -7 18 -10 9 -11 8 -5 -6z"/>
<path d="M7598 443 c-38 -38 -68 -73 -68 -78 0 -6 36 -46 80 -90 l80 -80 80
80 c44 44 80 84 80 90 0 6 -31 42 -70 80 l-70 69 0 -57 c0 -40 4 -59 14 -63
14 -5 15 -41 2 -62 -10 -17 -57 -15 -77 4 -19 17 -16 41 8 61 10 7 13 27 11
62 l-3 52 -67 -68z"/>
<path d="M8413 423 c-36 -25 -27 -33 37 -33 64 0 74 9 38 34 -28 20 -47 19
-75 -1z"/>
<path d="M9056 425 c-28 -21 -10 -35 45 -35 55 0 59 4 27 31 -25 22 -46 24
-72 4z"/>
<path d="M7012 391 c-18 -11 -11 -56 8 -56 10 0 16 12 18 33 3 33 -3 38 -26
23z"/>
<path d="M6303 393 c-7 -2 -13 -18 -13 -35 0 -23 4 -29 16 -24 9 3 18 6 20 6
2 0 4 14 4 30 0 30 -4 33 -27 23z"/>
<path d="M7176 384 c-10 -27 -7 -54 8 -54 21 0 38 27 31 50 -8 24 -30 27 -39
4z"/>
<path d="M6895 390 c-3 -5 3 -10 14 -10 12 0 21 5 21 10 0 6 -6 10 -14 10 -8
0 -18 -4 -21 -10z"/>
<path d="M6405 390 c-3 -5 3 -10 14 -10 12 0 21 5 21 10 0 6 -6 10 -14 10 -8
0 -18 -4 -21 -10z"/>
<path d="M6673 393 c-7 -2 -13 -18 -13 -35 0 -43 34 -35 38 10 3 31 -1 35 -25
25z"/>
</g>
</svg>
