<?xml version="1.0" standalone="no"?>
<!DOCTYPE svg PUBLIC "-//W3C//DTD SVG 20010904//EN"
 "http://www.w3.org/TR/2001/REC-SVG-20010904/DTD/svg10.dtd">
<svg version="1.0" xmlns="http://www.w3.org/2000/svg"
 width="626.000000pt" height="626.000000pt" viewBox="0 0 626.000000 626.000000"
 preserveAspectRatio="xMidYMid meet">

<g transform="translate(0.000000,626.000000) scale(0.100000,-0.100000)"
fill="#000000" stroke="none">
<path d="M1916 4764 c-9 -8 -16 -21 -16 -27 0 -19 -35 -36 -59 -30 -40 10 -78
-46 -50 -74 8 -8 7 -16 -2 -30 -18 -29 -4 -57 24 -49 31 7 37 1 76 -81 38 -79
40 -80 124 -67 40 7 44 17 31 84 -9 42 -28 48 -66 20 -41 -30 -56 -20 -81 54
-18 53 -18 58 -3 75 9 10 35 21 57 24 70 9 87 41 48 91 -23 29 -60 34 -83 10z"/>
<path d="M1634 4351 c-24 -15 -38 -37 -59 -93 -121 -319 -237 -597 -269 -643
-18 -25 -22 -48 -25 -150 -3 -107 12 -650 25 -940 3 -60 6 -117 6 -126 -1 -19
31 -28 68 -19 29 7 28 -2 54 385 19 276 35 455 43 475 3 8 27 -86 54 -210 61
-280 127 -565 140 -607 10 -30 14 -33 51 -33 l41 0 -7 143 c-18 368 -54 821
-75 933 -6 30 -6 53 0 59 5 5 9 16 9 24 0 13 131 241 227 393 l23 38 70 -59
c82 -69 158 -101 238 -101 80 0 83 4 66 70 -8 30 -14 64 -14 76 0 16 -11 25
-44 38 -40 15 -146 112 -146 133 0 4 20 19 45 32 25 13 44 27 43 30 -2 3 -18
29 -36 57 l-33 50 -73 -15 c-84 -17 -106 -13 -286 54 -68 25 -103 26 -136 6z"/>
<path d="M1745 2340 c-3 -5 -17 -10 -30 -10 -19 0 -25 -7 -30 -34 -14 -71 -15
-71 138 -74 75 -1 137 1 137 5 0 9 -8 14 -105 73 -71 44 -101 55 -110 40z"/>
<path d="M1390 2329 c0 -7 -14 -10 -35 -7 -32 4 -35 2 -40 -27 -15 -85 -20
-80 78 -83 54 -2 87 1 87 7 0 18 -60 109 -75 115 -8 3 -15 1 -15 -5z"/>
<path d="M4042 1766 c-100 -101 -255 -159 -422 -158 -145 0 -252 31 -360 104
-57 38 -62 39 -93 27 -42 -16 -87 -58 -87 -81 0 -19 28 -52 51 -60 10 -4 4
-14 -18 -35 -41 -39 -42 -65 -1 -96 l32 -25 -32 -27 c-18 -15 -32 -35 -32 -46
0 -20 28 -53 51 -61 10 -4 4 -14 -18 -35 -18 -17 -33 -40 -33 -50 0 -27 37
-58 90 -76 l45 -15 6 -71 c9 -89 40 -145 109 -196 158 -116 408 -119 576 -9
100 66 148 147 149 253 l1 74 58 27 c108 52 132 98 76 142 l-30 24 30 22 c40
30 42 74 3 99 -16 9 -30 18 -32 20 -2 1 11 14 28 28 40 35 41 67 1 97 l-30 22
31 32 c42 44 35 74 -24 103 -24 12 -50 21 -58 20 -8 0 -38 -24 -67 -53z"/>
</g>
</svg>
