<?xml version="1.0" standalone="no"?>
<!DOCTYPE svg PUBLIC "-//W3C//DTD SVG 20010904//EN"
 "http://www.w3.org/TR/2001/REC-SVG-20010904/DTD/svg10.dtd">
<svg version="1.0" xmlns="http://www.w3.org/2000/svg"
 width="626.000000pt" height="447.000000pt" viewBox="0 0 626.000000 447.000000"
 preserveAspectRatio="xMidYMid meet">

<g transform="translate(0.000000,447.000000) scale(0.100000,-0.100000)"
fill="#000000" stroke="none">
<path d="M2946 3635 c-3 -9 -6 -25 -6 -35 0 -37 -64 -41 -92 -5 -24 31 -25 31
-66 -4 l-33 -28 25 -29 c21 -26 22 -32 11 -48 -9 -12 -23 -17 -47 -14 -31 3
-33 1 -39 -37 -8 -49 -5 -55 30 -55 53 0 45 -64 -11 -82 -7 -3 -3 -19 13 -45
l23 -41 36 21 c35 19 37 19 63 2 24 -15 26 -22 21 -56 -6 -38 -6 -39 24 -39
17 0 37 -3 45 -6 12 -4 18 5 24 38 11 57 41 63 79 18 l27 -31 33 32 34 33 -26
33 c-34 45 -20 66 37 57 31 -5 39 -3 39 8 0 9 3 29 6 46 6 30 5 32 -35 38 -34
5 -41 10 -41 30 0 14 8 25 19 29 39 12 45 32 21 70 -12 19 -23 35 -26 35 -2 0
-18 -9 -35 -19 -25 -15 -37 -17 -52 -10 -16 9 -18 18 -12 55 6 41 5 44 -17 44
-13 0 -33 3 -44 6 -14 4 -23 0 -28 -11z m65 -174 c21 -21 29 -39 29 -64 0 -42
-37 -92 -75 -101 -39 -10 -92 18 -111 57 -47 99 79 186 157 108z"/>
<path d="M4493 3283 c15 -2 37 -2 50 0 12 2 0 4 -28 4 -27 0 -38 -2 -22 -4z"/>
<path d="M4660 3225 c13 -14 26 -25 28 -25 3 0 -5 11 -18 25 -13 14 -26 25
-28 25 -3 0 5 -11 18 -25z"/>
<path d="M1833 3155 c-33 -33 -35 -39 -29 -77 10 -62 61 -143 142 -228 l72
-74 42 29 c75 52 178 154 199 198 30 62 27 93 -13 133 -49 49 -98 44 -189 -19
-15 -10 -21 -9 -35 10 -26 33 -83 63 -120 63 -26 0 -43 -9 -69 -35z"/>
<path d="M4430 3106 c0 -22 3 -27 11 -19 8 8 8 16 0 30 -9 16 -10 14 -11 -11z"/>
<path d="M4570 3100 c0 -16 5 -30 10 -30 6 0 10 14 10 30 0 17 -4 30 -10 30
-5 0 -10 -13 -10 -30z"/>
<path d="M4482 3080 c0 -14 2 -19 5 -12 2 6 2 18 0 25 -3 6 -5 1 -5 -13z"/>
<path d="M4441 3042 c-1 -24 16 -200 24 -243 3 -22 0 -26 -18 -25 -45 2 -28
-109 21 -132 36 -17 91 -15 98 3 4 8 11 15 18 15 14 0 33 65 28 98 -3 19 -8
23 -25 18 l-22 -5 11 142 c6 78 9 144 8 146 -9 10 -24 -56 -24 -102 0 -29 -3
-82 -7 -119 l-6 -68 -32 0 -32 0 -12 127 c-13 123 -29 200 -30 145z"/>
<path d="M4685 2999 c-4 -6 -5 -12 -2 -15 2 -3 7 2 10 11 7 17 1 20 -8 4z"/>
<path d="M2928 2873 c7 -3 16 -2 19 1 4 3 -2 6 -13 5 -11 0 -14 -3 -6 -6z"/>
<path d="M3770 2726 c0 -2 8 -10 18 -17 15 -13 16 -12 3 4 -13 16 -21 21 -21
13z"/>
<path d="M2572 2610 c0 -14 2 -19 5 -12 2 6 2 18 0 25 -3 6 -5 1 -5 -13z"/>
<path d="M2534 2538 l-19 -23 23 19 c12 11 22 21 22 23 0 8 -8 2 -26 -19z"/>
<path d="M1686 2488 c-24 -30 -24 -34 -9 -45 14 -11 19 -9 35 15 35 54 13 79
-26 30z"/>
<path d="M4750 2499 c0 -6 9 -24 21 -40 17 -24 24 -27 35 -18 12 10 11 16 -3
40 -17 28 -53 40 -53 18z"/>
<path d="M1440 2446 c-14 -38 -13 -56 4 -56 18 0 32 58 17 73 -7 7 -13 2 -21
-17z"/>
<path d="M5017 2452 c-11 -17 6 -62 23 -62 16 0 17 4 9 32 -5 18 -9 34 -9 35
0 6 -19 2 -23 -5z"/>
<path d="M3942 2325 c0 -16 2 -22 5 -12 2 9 2 23 0 30 -3 6 -5 -1 -5 -18z"/>
<path d="M1958 2288 c-27 -9 -41 -48 -18 -48 22 0 71 31 68 42 -6 16 -19 18
-50 6z"/>
<path d="M4477 2293 c-13 -12 -7 -23 23 -38 36 -19 46 -19 54 0 8 22 -60 56
-77 38z"/>
<path d="M2435 2270 c-3 -5 -1 -10 4 -10 6 0 11 5 11 10 0 6 -2 10 -4 10 -3 0
-8 -4 -11 -10z"/>
<path d="M1270 2131 c0 -17 5 -31 10 -31 6 0 10 9 10 20 0 11 0 23 1 27 0 4
-4 9 -10 11 -6 2 -11 -10 -11 -27z"/>
<path d="M5190 2130 c0 -16 5 -30 10 -30 6 0 10 14 10 30 0 17 -4 30 -10 30
-5 0 -10 -13 -10 -30z"/>
<path d="M1964 2087 c-3 -8 -4 -30 -2 -49 3 -30 6 -33 32 -31 38 3 40 6 29 50
-6 28 -14 39 -31 41 -13 2 -25 -3 -28 -11z"/>
<path d="M2382 2075 c0 -16 2 -22 5 -12 2 9 2 23 0 30 -3 6 -5 -1 -5 -18z"/>
<path d="M4467 2093 c-2 -5 -7 -25 -11 -45 -5 -28 -3 -38 6 -38 7 0 22 -3 34
-6 18 -5 22 0 27 32 4 22 2 43 -5 51 -11 14 -44 18 -51 6z"/>
<path d="M4061 1934 c0 -11 3 -14 6 -6 3 7 2 16 -1 19 -3 4 -6 -2 -5 -13z"/>
<path d="M2333 1855 c0 -27 2 -38 4 -22 2 15 2 37 0 50 -2 12 -4 0 -4 -28z"/>
<path d="M4063 1675 c0 -27 2 -38 4 -22 2 15 2 37 0 50 -2 12 -4 0 -4 -28z"/>
<path d="M2341 1624 c0 -11 3 -14 6 -6 3 7 2 16 -1 19 -3 4 -6 -2 -5 -13z"/>
<path d="M2430 1356 c0 -2 8 -10 18 -17 15 -13 16 -12 3 4 -13 16 -21 21 -21
13z"/>
<path d="M3869 1263 c-13 -16 -12 -17 4 -4 16 13 21 21 13 21 -2 0 -10 -8 -17
-17z"/>
<path d="M2585 1210 c10 -11 20 -20 23 -20 3 0 -3 9 -13 20 -10 11 -20 20 -23
20 -3 0 3 -9 13 -20z"/>
<path d="M3398 1113 c6 -2 18 -2 25 0 6 3 1 5 -13 5 -14 0 -19 -2 -12 -5z"/>
<path d="M1650 1059 c0 -6 -11 -37 -25 -68 -13 -31 -63 -150 -111 -266 -47
-115 -88 -214 -90 -220 -3 -7 131 -11 385 -14 l388 -4 6 89 c4 49 9 162 13
252 l7 162 -28 0 c-14 0 -97 11 -183 25 -390 64 -362 60 -362 44z m557 -141
c-3 -7 -5 -2 -5 12 0 14 2 19 5 13 2 -7 2 -19 0 -25z m-39 -405 c-15 -2 -42
-2 -60 0 -18 2 -6 4 27 4 33 0 48 -2 33 -4z"/>
<path d="M4526 1026 l-268 -41 6 -90 c3 -49 9 -163 12 -252 l7 -163 393 0 394
0 -9 23 c-36 90 -69 156 -75 150 -4 -4 -4 1 0 11 5 13 4 17 -4 12 -7 -4 -10
-2 -7 7 7 15 -70 205 -77 191 -3 -5 -3 -3 -2 4 6 21 -27 92 -39 85 -6 -3 -7
-1 -3 6 12 18 -24 101 -43 100 -9 -1 -137 -20 -285 -43z m-249 -78 c-3 -8 -6
-5 -6 6 -1 11 2 17 5 13 3 -3 4 -12 1 -19z m223 -432 c0 -2 -7 -7 -16 -10 -8
-3 -12 -2 -9 4 6 10 25 14 25 6z m413 -23 c-73 -2 -193 -2 -265 0 -73 1 -14 3
132 3 146 0 205 -2 133 -3z"/>
</g>
</svg>
