<?xml version="1.0" standalone="no"?>
<!DOCTYPE svg PUBLIC "-//W3C//DTD SVG 20010904//EN"
 "http://www.w3.org/TR/2001/REC-SVG-20010904/DTD/svg10.dtd">
<svg version="1.0" xmlns="http://www.w3.org/2000/svg"
 width="800.000000pt" height="800.000000pt" viewBox="0 0 800.000000 800.000000"
 preserveAspectRatio="xMidYMid meet">

<g transform="translate(0.000000,800.000000) scale(0.100000,-0.100000)"
fill="#000000" stroke="none">
<path d="M3300 6984 c-19 -8 -50 -29 -68 -47 -61 -59 -62 -71 -62 -677 l0
-546 -106 -199 -106 -200 4 -78 c4 -66 9 -84 34 -120 17 -23 50 -53 74 -67
l45 -25 1020 0 c561 0 1037 4 1058 8 46 10 101 57 128 108 14 27 19 59 19 111
l0 72 -105 197 -105 198 0 563 0 563 -30 51 c-23 41 -41 58 -82 78 l-52 26
-815 0 c-706 -1 -821 -3 -851 -16z m1691 -123 l29 -29 0 -536 0 -536 -870 0
-870 0 0 528 c1 564 0 560 51 588 19 11 180 13 827 14 l804 0 29 -29z m126
-1351 c40 -74 73 -138 73 -142 0 -5 -468 -8 -1040 -8 l-1040 0 26 53 c15 28
49 94 76 145 l50 92 891 -2 891 -3 73 -135z m113 -289 c0 -35 -41 -81 -72 -81
-13 0 -475 0 -1028 0 l-1005 0 -27 30 c-16 17 -28 41 -28 55 l0 25 1080 0
1080 0 0 -29z"/>
<path d="M3994 5484 c-16 -24 -16 -27 3 -52 20 -27 22 -27 151 -30 121 -2 133
-1 152 18 24 24 26 53 4 74 -12 13 -41 16 -154 16 -139 0 -140 0 -156 -26z"/>
<path d="M2833 5929 c-96 -51 -301 -193 -408 -282 -121 -102 -287 -272 -376
-387 -289 -371 -483 -831 -538 -1275 -6 -49 -14 -107 -16 -128 -4 -31 -1 -42
19 -62 52 -52 101 -20 111 72 94 823 515 1492 1203 1910 58 35 112 69 119 75
19 15 16 62 -4 80 -33 28 -51 27 -110 -3z"/>
<path d="M5322 5950 c-29 -12 -45 -53 -31 -83 6 -12 59 -51 119 -86 435 -255
795 -659 1002 -1122 102 -228 187 -543 204 -759 6 -69 11 -88 30 -107 29 -29
58 -29 85 -2 20 20 21 29 15 105 -15 197 -85 490 -166 694 -135 341 -335 646
-590 900 -163 163 -316 283 -506 397 -113 68 -130 75 -162 63z"/>
<path d="M945 3493 c-36 -9 -77 -45 -91 -79 -12 -28 -14 -199 -14 -1001 0
-1080 -4 -1011 69 -1060 l34 -23 746 0 c727 0 747 1 779 20 18 11 41 34 52 52
20 32 20 53 20 1013 0 954 -1 981 -20 1012 -44 72 10 68 -815 69 -407 1 -749
0 -760 -3z m1483 -115 c9 -9 12 -238 12 -970 0 -936 0 -958 -19 -968 -13 -7
-261 -10 -735 -10 -636 0 -716 2 -730 16 -14 14 -16 115 -16 968 0 727 3 955
12 964 17 17 1459 17 1476 0z"/>
<path d="M1634 1701 c-36 -22 -58 -75 -48 -115 3 -14 20 -37 36 -51 90 -76
221 33 158 133 -33 53 -91 66 -146 33z"/>
<path d="M5948 3490 c-43 -13 -84 -47 -102 -84 -14 -31 -16 -128 -16 -979 l0
-944 29 -40 c50 -69 37 -68 607 -68 l510 0 37 25 c21 14 46 43 57 66 20 39 20
63 20 967 0 766 -2 933 -14 960 -17 41 -62 81 -105 96 -40 13 -979 14 -1023 1z
m1023 -121 c16 -16 19 -30 17 -67 l-3 -47 -527 -3 -528 -2 0 48 c0 27 7 57 16
70 l15 22 495 0 c485 0 494 0 515 -21z m19 -834 l0 -615 -530 0 -530 0 0 615
0 615 530 0 530 0 0 -615z m0 -868 c0 -113 -3 -147 -16 -165 l-15 -22 -496 0
c-448 0 -498 2 -515 17 -16 14 -18 33 -18 165 l0 148 530 0 530 0 0 -143z"/>
<path d="M6389 1711 c-21 -22 -29 -39 -29 -66 0 -52 44 -95 97 -95 46 0 76 19
93 59 40 98 -85 177 -161 102z"/>
<path d="M5415 1484 c-74 -47 -269 -141 -389 -189 -138 -54 -372 -116 -531
-140 -151 -23 -433 -31 -591 -16 -337 31 -713 146 -982 299 -104 59 -162 53
-162 -18 0 -35 29 -58 150 -122 353 -184 725 -281 1135 -295 337 -11 630 34
960 147 120 41 398 172 488 230 41 26 47 35 47 63 0 67 -56 85 -125 41z"/>
</g>
</svg>
